{
.appVersion = "3115";
.formatVersion = 3;
axes = (
{
name = Weight;
tag = wght;
}
);
classes = (
{
automatic = 1;
code = "A Aacute Abreve Acircumflex Adieresis Agrave Amacron Aogonek Aring Atilde AE B C Cacute Ccaron Ccedilla Cdotaccent D Eth Dcaron Dcroat E Eacute Ecaron Ecircumflex Edieresis Edotaccent Egrave Emacron Eogonek F G Gbreve Gcommaaccent Gdotaccent H Hbar I IJ Iacute Icircumflex Idieresis Idotaccent Igrave Imacron Iogonek J K Kcommaaccent L Lacute Lcaron Lcommaaccent Ldot Lslash M N Nacute Ncaron Ncommaaccent Eng Ntilde O Oacute Ocircumflex Odieresis Ograve Ohungarumlaut Omacron Oslash Otilde OE P Thorn Q R Racute Rcaron Rcommaaccent S Sacute Scaron Scedilla Scommaaccent T Tbar Tcaron Tcedilla Tcommaaccent U Uacute Ucircumflex Udieresis Ugrave Uhungarumlaut Umacron Uogonek Uring V W Wacute Wcircumflex Wdieresis Wgrave X Y Yacute Ycircumflex Ydieresis Ygrave Z Zacute Zcaron Zdotaccent Q.ss01 Delta Omega";
name = Uppercase;
}
);
customParameters = (
{
name = "Use Typo Metrics";
value = 1;
},
{
name = "Use Line Breaks";
value = 1;
},
{
name = "Write lastChange";
value = 0;
},
{
name = fsType;
value = (
);
}
);
date = "2020-07-30 12:53:53 +0000";
familyName = "Syne Tactile";
featurePrefixes = (
{
automatic = 1;
code = "languagesystem DFLT dflt;

languagesystem latn dflt;
languagesystem latn AZE;
languagesystem latn CRT;
languagesystem latn KAZ;
languagesystem latn TAT;
languagesystem latn TRK;
languagesystem latn ROM;
languagesystem latn MOL;
languagesystem latn CAT;
";
name = Languagesystems;
}
);
features = (
{
automatic = 1;
code = "feature locl;
feature sups;
feature numr;
feature dnom;
feature frac;
feature ordn;
feature lnum;
feature pnum;
feature tnum;
feature onum;
feature case;
feature salt;
feature ss01;
";
tag = aalt;
},
{
code = "sub a x by a_x;
sub s p by s_p;
sub k y by k_y;";
tag = dlig;
},
{
code = "sub f f i by f_f_i;
sub f i by fi;
sub f f by f_f;
sub f r by f_r;
sub f m by f_m;
sub f n by f_n;
sub f y by f_y;
sub f u by f_u;

glyphs = (
{
color = 6;
glyphname = A;
kernLeft = A;
kernRight = A;
layers = (
{
anchors = (
{
name = bottom;
pos = (258,0);
},
{
name = ogonek;
pos = (544,10);
},
{
name = top;
pos = (247,630);
}
);
layerId = "BC735296-CD3A-4FA4-9AA9-EE2D747BC69E";
shapes = (
{
closed = 1;
nodes = (
(505,-35,o),
(518,-28,o),
(533,-14,cs),
(553,5,o),
(543,27,o),
(523,66,cs),
(504,103,o),
(490,140,o),
(475,179,cs),
(449,246,o),
(422,309,o),
(399,371,cs),
(380,420,o),
(371,475,o),
(349,528,cs),
(330,575,o),
(309,615,o),
(299,656,c),
(234,637,l),
(219,649,l),
(121,503,o),
(96,335,o),
(38,182,c),
(35,177,o),
(-17,38,o),
(-20,35,c),
(24,-19,l),
(35,-9,o),
(50,31,o),
(98,157,cs),
(102,168,o),
(106,178,o),
(110,189,c),
(124,188,o),
(140,187,o),
(157,187,cs),
(187,187,o),
(212,197,o),
(233,199,cs),
(240,200,o),
(248,201,o),
(258,201,cs),
(279,201,o),
(302,199,o),
(324,199,cs),
(334,199,o),
(343,199,o),
(352,200,cs),
(367,201,o),
(378,204,o),
(389,204,c),
(389,210,l),
(397,190,o),
(405,170,o),
(413,150,cs),
(427,113,o),
(441,75,o),
(458,40,c),
(454,35,o),
(451,27,o),
(451,16,cs),
(451,-13,o),
(468,-35,o),
(492,-35,cs)
);
},
{
closed = 1;
nodes = (
(168,369,o),
(196,479,o),
(253,577,c),
(264,548,o),
(277,522,o),
(288,497,cs),
(308,449,o),
(317,395,o),
(337,342,cs),
(347,316,o),
(356,291,o),
(366,266,c),
(359,265,o),
(352,264,o),
(345,263,c),
(324,263,ls),
(304,263,o),
(281,265,o),
(258,265,cs),
(246,265,o),
(235,264,o),
(224,263,cs),
(197,259,o),
(176,261,o),
(157,261,cs),
(149,261,o),
(141,259,o),
(132,257,c)
);
}
);
width = 592;
}
);
unicode = 65;
},
{
color = 6;
glyphname = Aogonek;
kernLeft = A;
kernRight = A;
layers = (
{
anchors = (
{
name = bottom;
pos = (258,0);
},
{
name = ogonek;
pos = (544,10);
},
{
name = top;
pos = (247,630);
}
);
layerId = "BC735296-CD3A-4FA4-9AA9-EE2D747BC69E";
shapes = (
{
closed = 1;
nodes = (
(548,-216,o),
(564,-197,o),
(583,-184,c),
(551,-126,l),
(532,-139,o),
(526,-147,o),
(517,-151,cs),
(510,-154,o),
(497,-149,o),
(487,-142,cs),
(475,-134,o),
(461,-123,o),
(455,-117,c),
(454,-111,o),
(454,-106,o),
(454,-100,cs),
(454,-75,o),
(461,-49,o),
(472,-29,c),
(478,-33,o),
(485,-35,o),
(492,-35,cs),
(505,-35,o),
(518,-28,o),
(533,-14,cs),
(553,5,o),
(543,27,o),
(523,66,cs),
(504,103,o),
(490,140,o),
(475,179,cs),
(449,246,o),
(422,309,o),
(399,371,cs),
(380,420,o),
(371,475,o),
(349,528,cs),
(330,575,o),
(309,615,o),
(299,656,c),
(234,637,l),
(234,637,l),
(219,649,l),
(121,503,o),
(96,335,o),
(38,182,c),
(35,177,o),
(-17,38,o),
(-20,35,c),
(24,-19,l),
(35,-9,o),
(50,31,o),
(98,157,cs),
(102,168,o),
(106,178,o),
(110,189,c),
(124,189,o),
(140,187,o),
(157,187,cs),
(187,187,o),
(212,197,o),
(233,199,cs),
(240,200,o),
(248,201,o),
(258,201,cs),
(279,201,o),
(302,199,o),
(324,199,cs),
(334,199,o),
(343,199,o),
(352,200,cs),
(367,201,o),
(378,204,o),
(389,204,c),
(389,210,l),
(413,150,ls),
(427,113,o),
(441,75,o),
(458,40,c),
(455,36,o),
(453,30,o),
(452,23,c),
(420,-3,o),
(400,-46,o),
(400,-100,cs),
(400,-110,o),
(401,-121,o),
(402,-130,cs),
(407,-158,o),
(426,-181,o),
(457,-202,cs),
(483,-220,o),
(504,-228,o),
(527,-222,cs)
);
},
{
closed = 1;
nodes = (
(168,369,o),
(195,479,o),
(253,577,c),
(264,549,o),
(277,522,o),
(288,497,cs),
(308,449,o),
(317,395,o),
(337,342,cs),
(346,316,o),
(356,291,o),
(366,266,c),
(345,263,l),
(324,263,ls),
(304,263,o),
(281,265,o),
(258,265,cs),
(246,265,o),
(235,264,o),
(224,263,cs),
(197,259,o),
(176,261,o),
(157,261,cs),
(149,261,o),
(141,259,o),
(132,257,c)
);
}
);
width = 592;
}
);
metricLeft = A;
unicode = 260;
},
{
color = 6;
glyphname = AE;
kernLeft = A;
layers = (
{
anchors = (
{
name = bottom;
pos = (392,0);
},
{
name = top;
pos = (392,680);
}
);
layerId = "BC735296-CD3A-4FA4-9AA9-EE2D747BC69E";
shapes = (
{
closed = 1;
nodes = (
(410,-5,o),
(447,-4,o),
(456,-4,cs),
(524,-4,o),
(584,3,o),
(633,15,cs),
(636,16,o),
(641,16,o),
(648,16,cs),
(668,16,o),
(692,12,o),
(713,12,c),
(713,90,l),
(695,90,o),
(671,94,o),
(648,94,cs),
(636,94,o),
(626,93,o),
(616,91,cs),
(574,80,o),
(519,74,o),
(456,74,cs),
(448,74,o),
(416,73,o),
(392,73,c),
(395,105,o),
(402,141,o),
(402,178,cs),
(402,226,o),
(402,269,o),
(401,311,c),
(496,311,o),
(591,308,o),
(685,308,c),
(685,382,l),
(592,382,o),
(496,385,o),
(401,385,c),
(400,435,o),
(400,487,o),
(400,546,c),
(354,546,l),
(362,561,o),
(370,579,o),
(371,580,c),
(366,565,l),
(388,567,o),
(411,569,o),
(436,574,cs),
(468,579,o),
(511,582,o),
(569,582,cs),
(626,582,o),
(684,579,o),
(733,579,c),
(733,659,l),
(685,656,o),
(627,662,o),
(569,662,cs),
(507,662,o),
(462,659,o),
(424,652,cs),
(403,649,o),
(383,647,o),
(359,645,cs),
(356,645,o),
(336,652,o),
(320,635,cs),
(305,620,o),
(293,580,o),
(287,573,cs),
(216,474,o),
(154,377,o),
(96,268,cs),
(93,261,o),
(76,245,o),
(65,229,cs),
(32,181,o),
(-12,80,o),
(-24,13,c),
(45,0,l),
(52,40,o),
(79,119,o),
(121,180,c),
(121,176,l),
(151,176,o),
(182,179,o),
(211,179,cs),
(237,179,o),
(257,177,o),
(272,173,cs),
(292,168,o),
(307,161,o),
(331,161,c),
(329,127,o),
(321,89,o),
(321,47,cs),
(321,59,o),
(308,36,o),
(333,11,cs),
(346,-3,o),
(356,-5,o),
(385,-5,cs)
);
},
{
closed = 1;
nodes = (
(319,224,o),
(310,234,o),
(290,240,cs),
(268,246,o),
(243,249,o),
(211,249,cs),
(197,249,o),
(182,248,o),
(167,248,c),
(227,357,o),
(277,433,o),
(330,506,c),
(330,406,o),
(332,321,o),
(332,222,c)
);
}
);
width = 773;
}
);
unicode = 198;
},
{
color = 6;
glyphname = B;
layers = (
{
anchors = (
{
name = bottom;
pos = (370,0);
},
{
name = top;
pos = (370,680);
}
);
layerId = "BC735296-CD3A-4FA4-9AA9-EE2D747BC69E";
shapes = (
{
closed = 1;
nodes = (
(393,-11,o),
(438,3,o),
(505,27,cs),
(533,37,o),
(586,96,o),
(594,151,cs),
(595,161,o),
(596,172,o),
(596,183,cs),
(596,257,o),
(559,311,o),
(503,342,c),
(520,361,o),
(530,386,o),
(538,419,cs),
(544,445,o),
(535,478,o),
(535,481,cs),
(528,537,o),
(508,587,o),
(480,613,cs),
(448,644,o),
(408,650,o),
(399,651,cs),
(340,659,o),
(333,660,o),
(273,660,cs),
(237,660,o),
(230,657,o),
(190,652,cs),
(164,648,o),
(-10,660,o),
(-10,553,c),
(50,553,l),
(50,563,o),
(81,569,o),
(115,573,c),
(116,511,o),
(119,450,o),
(119,390,cs),
(119,341,o),
(117,290,o),
(117,239,cs),
(117,212,o),
(117,188,o),
(118,166,cs),
(121,113,o),
(129,65,o),
(129,21,c),
(189,21,l),
(189,72,o),
(181,122,o),
(178,171,cs),
(177,194,o),
(177,216,o),
(177,239,cs),
(177,289,o),
(179,339,o),
(179,390,cs),
(179,452,o),
(176,515,o),
(175,578,c),
(185,579,o),
(193,579,o),
(198,580,cs),
(233,584,o),
(239,587,o),
(273,587,cs),
(329,587,o),
(333,586,o),
(385,573,cs),
(403,569,o),
(431,563,o),
(439,555,cs),
(463,533,o),
(472,502,o),
(476,471,cs),
(477,460,o),
(481,444,o),
(480,437,cs),
(472,407,o),
(458,382,o),
(429,366,c),
(425,367,o),
(420,367,o),
(415,367,cs),
(398,367,o),
(382,365,o),
(369,365,c),
(369,347,l),
(364,346,o),
(358,346,o),
(353,345,cs),
(338,343,o),
(320,342,o),
(299,342,cs),
(259,342,o),
(228,335,o),
(188,335,c),
(188,275,l),
(227,275,o),
(258,282,o),
(299,282,cs),
(322,282,o),
(340,283,o),
(360,285,cs),
(385,288,o),
(407,291,o),
(426,297,c),
(431,296,o),
(436,295,o),
(440,294,cs),
(499,278,o),
(536,241,o),
(536,183,cs),
(536,176,o),
(536,170,o),
(535,163,cs),
(532,144,o),
(494,94,o),
(475,86,cs),
(424,67,o),
(381,55,o),
(269,55,cs),
(231,55,o),
(223,56,o),
(190,56,c),
(190,-10,l),
(223,-10,o),
(230,-11,o),
(269,-11,cs)
);
}
);
width = 625;
}
);
unicode = 66;
},
{
color = 6;
glyphname = C;
kernLeft = O;
kernRight = O;
layers = (
{
anchors = (
{
name = bottom;
pos = (340,0);
},
{
name = center;
pos = (361,340);
},
{
name = ogonek;
pos = (657,10);
},
{
name = top;
pos = (330,650);
},
{
name = topleft;
pos = (11,680);
},
{
name = topright;
pos = (711,680);
}
);
layerId = "BC735296-CD3A-4FA4-9AA9-EE2D747BC69E";
shapes = (
{
closed = 1;
nodes = (
(411,-11,o),
(468,13,o),
(497,67,cs),
(501,76,o),
(520,107,o),
(520,127,c),
(460,117,l),
(460,134,o),
(459,124,o),
(444,95,cs),
(432,73,o),
(389,59,o),
(338,59,cs),
(329,59,o),
(299,60,o),
(288,60,cs),
(250,63,o),
(247,71,o),
(257,49,c),
(243,65,o),
(250,66,o),
(223,102,cs),
(147,201,o),
(131,265,o),
(131,347,cs),
(131,389,o),
(137,423,o),
(153,463,cs),
(167,501,o),
(274,590,o),
(329,590,cs),
(345,590,o),
(377,568,o),
(395,562,cs),
(453,541,l),
(501,589,l),
(479,618,o),
(441,627,o),
(416,637,cs),
(394,645,o),
(355,660,o),
(329,660,cs),
(269,660,o),
(123,561,o),
(97,491,cs),
(80,448,o),
(71,399,o),
(71,347,cs),
(71,251,o),
(92,176,o),
(171,72,cs),
(186,52,o),
(196,24,o),
(213,5,cs),
(228,-11,o),
(274,-9,o),
(283,-9,cs),
(295,-10,o),
(327,-11,o),
(338,-11,cs)
);
}
);
width = 565;
}
);
unicode = 67;
},
{
color = 6;
glyphname = Ccedilla;
kernLeft = O;
kernRight = O;
layers = (
{
anchors = (
{
name = bottom;
pos = (283,-220);
},
{
name = center;
pos = (361,340);
},
{
name = ogonek;
pos = (657,10);
},
{
name = top;
pos = (330,650);
},
{
name = topleft;
pos = (11,680);
},
{
name = topright;
pos = (711,680);
}
);
layerId = "BC735296-CD3A-4FA4-9AA9-EE2D747BC69E";
shapes = (
{
closed = 1;
nodes = (
(314,-223,o),
(376,-202,o),
(389,-160,cs),
(392,-149,o),
(394,-134,o),
(394,-122,cs),
(394,-74,o),
(374,-45,o),
(315,-45,cs),
(312,-45,o),
(309,-45,o),
(307,-46,c),
(308,-43,ls),
(311,-36,o),
(315,-24,o),
(318,-11,c),
(338,-11,ls),
(411,-11,o),
(468,13,o),
(497,67,cs),
(501,76,o),
(520,107,o),
(520,127,c),
(460,117,l),
(460,134,o),
(459,124,o),
(444,95,cs),
(432,73,o),
(389,59,o),
(338,59,cs),
(329,59,o),
(299,60,o),
(288,60,cs),
(250,63,o),
(247,71,o),
(257,49,c),
(243,65,o),
(250,66,o),
(223,102,cs),
(147,201,o),
(131,265,o),
(131,347,cs),
(131,389,o),
(137,423,o),
(153,463,cs),
(167,501,o),
(274,590,o),
(329,590,cs),
(345,590,o),
(377,568,o),
(395,562,cs),
(453,541,l),
(501,589,l),
(479,618,o),
(441,627,o),
(416,637,cs),
(394,645,o),
(355,660,o),
(329,660,cs),
(269,660,o),
(123,561,o),
(97,491,cs),
(80,448,o),
(71,399,o),
(71,347,cs),
(71,251,o),
(92,176,o),
(171,72,cs),
(186,52,o),
(196,24,o),
(213,5,cs),
(221,-4,o),
(239,-7,o),
(255,-8,c),
(253,-13,o),
(250,-20,o),
(246,-28,cs),
(229,-69,o),
(257,-116,o),
(290,-107,cs),
(296,-106,o),
(306,-105,o),
(315,-105,cs),
(326,-105,o),
(340,-113,o),
(340,-122,cs),
(340,-126,o),
(340,-137,o),
(337,-148,c),
(336,-147,o),
(232,-164,o),
(233,-164,cs),
(221,-164,o),
(215,-163,o),
(220,-165,c),
(215,-164,o),
(209,-162,o),
(208,-162,c),
(158,-182,l),
(167,-204,o),
(181,-209,o),
(198,-217,cs),
(207,-221,o),
(217,-223,o),
(233,-223,cs)
);
}
);
width = 565;
}
);
metricLeft = C;
metricRight = C;
unicode = 199;
},
{
color = 6;
glyphname = D;
kernRight = O;
layers = (
{
anchors = (
{
name = bottom;
pos = (374,0);
},
{
name = center;
pos = (197,340);
},
{
name = top;
pos = (304,650);
}
);
layerId = "BC735296-CD3A-4FA4-9AA9-EE2D747BC69E";
shapes = (
{
closed = 1;
nodes = (
(192,4,o),
(237,1,o),
(282,3,cs),
(345,6,o),
(380,12,o),
(442,37,cs),
(511,65,o),
(580,171,o),
(605,275,cs),
(610,296,o),
(612,323,o),
(612,349,cs),
(612,479,o),
(517,651,o),
(355,651,cs),
(305,651,o),
(327,643,o),
(286,646,cs),
(274,646,o),
(239,648,o),
(202,648,cs),
(131,648,o),
(89,643,o),
(71,629,c),
(107,575.001,l),
(107,575,o),
(115,575,o),
(125,576,c),
(127,511,o),
(135,447,o),
(135,383,cs),
(135,323,o),
(130,262,o),
(130,201,cs),
(130,190,o),
(130,178,o),
(131,167,cs),
(131,153,o),
(129,88,o),
(129,63,cs),
(129,35,o),
(130,16,o),
(133,9,cs),
(140,-8,o),
(150,0,o),
(149,0,cs)
);
},
{
closed = 1;
nodes = (
(189,100,o),
(191,154,o),
(191,169,cs),
(190,179,o),
(190,189,o),
(190,201,cs),
(190,259,o),
(195,320,o),
(195,383,cs),
(195,452,o),
(187,517,o),
(185,578,c),
(195,578,o),
(201,578,o),
(202,578,cs),
(238,578,o),
(271,576,o),
(283,576,cs),
(313,574,o),
(346,581,o),
(355,581,cs),
(462,581,o),
(552,470,o),
(552,349,cs),
(552,327,o),
(551,311,o),
(546,293,cs),
(528,215,o),
(475,123,o),
(420,101,cs),
(381,85,o),
(331,77,o),
(279,73,cs),
(250,71,o),
(220,72,o),
(189,72,c)
);
}
);
width = 653;
}
);
metricLeft = H;
metricRight = O;
unicode = 68;
},
{
color = 6;
glyphname = E;
layers = (
{
anchors = (
{
name = bottom;
pos = (280,0);
},
{
name = ogonek;
pos = (520,10);
},
{
name = top;
pos = (280,645);
},
{
name = topleft;
pos = (-1,680);
}
);
layerId = "BC735296-CD3A-4FA4-9AA9-EE2D747BC69E";
shapes = (
{
closed = 1;
nodes = (
(268,1,o),
(388,6,o),
(424,6,cs),
(493,6,o),
(522,5,o),
(522,28,c),
(462,78,l),
(424,86,l),
(386,86,o),
(266,81,o),
(199,81,cs),
(184,81,o),
(166,82,o),
(151,83,c),
(157,127,o),
(161,184,o),
(164,237,cs),
(165,251,o),
(166,267,o),
(166,283,cs),
(166,291,o),
(166,299,o),
(165,307,c),
(171,307,o),
(177,307,o),
(184,307,cs),
(232,307,o),
(288,300,o),
(337,300,cs),
(350,300,o),
(362,301,o),
(374,302,cs),
(422,306,o),
(444,309,o),
(454,319,c),
(424,375,l),
(430,401,o),
(414,385,o),
(368,381,cs),
(360,381,o),
(349,380,o),
(337,380,cs),
(290,380,o),
(235,387,o),
(184,387,cs),
(176,387,o),
(168,387,o),
(160,386,c),
(158,410,o),
(155,434,o),
(153,457,cs),
(149,492,o),
(149,528,o),
(147,566,c),
(227,567,o),
(307,570,o),
(386,577,cs),
(390,577,o),
(394,578,o),
(400,578,cs),
(432,578,o),
(463,569,o),
(498,579,c),
(498,659,l),
(470,649,o),
(439,658,o),
(400,658,cs),
(393,658,o),
(387,657,o),
(380,657,cs),
(281,648,o),
(187,646,o),
(95,646,c),
(95,595,l),
(75,593,l),
(79,546,o),
(78,497,o),
(84,448,cs),
(90,393,o),
(96,338,o),
(96,283,cs),
(96,268,o),
(95,254,o),
(94,241,cs),
(91,185,o),
(86,123,o),
(80,78,cs),
(72,27,o),
(65,25,o),
(80,16,cs),
(98,6,o),
(136,1,o),
(199,1,cs)
);
}
);
width = 580;
}
);
metricLeft = H;
unicode = 69;
},
{
color = 6;
glyphname = Eogonek;
layers = (
{
anchors = (
{
name = bottom;
pos = (280,0);
},
{
name = ogonek;
pos = (520,10);
},
{
name = top;
pos = (306,680);
},
{
name = topleft;
pos = (-1,680);
}
);
layerId = "BC735296-CD3A-4FA4-9AA9-EE2D747BC69E";
shapes = (
{
closed = 1;
nodes = (
(524,-216,o),
(541,-197,o),
(559,-184,c),
(527,-126,l),
(508,-139,o),
(502,-147,o),
(493,-151,cs),
(486,-154,o),
(473,-149,o),
(463,-142,cs),
(450,-134,o),
(437,-123,o),
(431,-117,c),
(430,-111,o),
(430,-106,o),
(430,-100,cs),
(430,-53,o),
(454,-3,o),
(489,7,c),
(512,9,o),
(522,15,o),
(522,28,c),
(462,78,l),
(424,86,l),
(386,86,o),
(266,81,o),
(199,81,cs),
(184,81,o),
(166,82,o),
(151,83,c),
(157,127,o),
(161,184,o),
(164,237,cs),
(165,251,o),
(166,267,o),
(166,283,cs),
(166,291,o),
(166,299,o),
(165,306,c),
(171,307,o),
(177,307,o),
(184,307,cs),
(232,307,o),
(288,300,o),
(337,300,cs),
(350,300,o),
(362,301,o),
(374,302,cs),
(422,306,o),
(444,309,o),
(454,319,c),
(424,375,l),
(430,401,o),
(414,385,o),
(368,381,cs),
(360,381,o),
(349,380,o),
(337,380,cs),
(290,380,o),
(235,387,o),
(184,387,cs),
(176,387,o),
(168,387,o),
(161,386,c),
(158,411,o),
(156,434,o),
(153,457,cs),
(149,492,o),
(149,528,o),
(147,566,c),
(228,567,o),
(307,570,o),
(386,577,cs),
(390,577,o),
(394,578,o),
(400,578,cs),
(432,578,o),
(463,569,o),
(498,579,c),
(498,659,l),
(470,649,o),
(439,658,o),
(400,658,cs),
(393,658,o),
(387,657,o),
(380,657,cs),
(281,648,o),
(187,646,o),
(95,646,c),
(95,595,l),
(75,593,l),
(79,546,o),
(78,497,o),
(84,448,cs),
(90,393,o),
(96,338,o),
(96,283,cs),
(96,268,o),
(95,254,o),
(94,241,cs),
(91,185,o),
(86,123,o),
(80,78,cs),
(72,27,o),
(65,25,o),
(80,16,cs),
(98,6,o),
(136,1,o),
(199,1,cs),
(261,1,o),
(364,5,o),
(411,6,c),
(389,-20,o),
(376,-56,o),
(376,-100,cs),
(376,-110,o),
(377,-121,o),
(378,-130,cs),
(383,-158,o),
(402,-181,o),
(433,-202,cs),
(459,-220,o),
(480,-228,o),
(503,-222,cs)
);
}
);
width = 580;
}
);
metricLeft = E;
unicode = 280;
},
{
color = 6;
glyphname = F;
kernRight = F;
layers = (
{
anchors = (
{
name = bottom;
pos = (268,0);
},
{
name = top;
pos = (268,680);
}
);
layerId = "BC735296-CD3A-4FA4-9AA9-EE2D747BC69E";
shapes = (
{
closed = 1;
nodes = (
(163,3,l),
(149,96,o),
(154,195,o),
(159,296,cs),
(159,297,o),
(159,298,o),
(159,299,c),
(191,301,o),
(224,303,o),
(230,303,cs),
(290,305,o),
(371,304,o),
(433,308,c),
(428,388,l),
(370,384,o),
(289,385,o),
(227,383,cs),
(221,383,o),
(187,381,o),
(156,379,c),
(151,427,o),
(143,473,o),
(141,518,cs),
(141,532,o),
(142,548,o),
(143,566,c),
(262,570,o),
(392,572,o),
(507,572,c),
(507,652,l),
(375,652,o),
(224,649,o),
(94,644,c),
(94.991,610,l),
(75,610,l),
(75,579,o),
(70,547,o),
(71,514,cs),
(74,439,o),
(93,366,o),
(89,292,cs),
(84,194,o),
(79,90,o),
(94,-9,c)
);
}
);
width = 532;
}
);
metricLeft = H;
unicode = 70;
},
{
color = 6;
glyphname = G;
kernLeft = O;
layers = (
{
anchors = (
{
name = bottom;
pos = (328,0);
},
{
name = center;
pos = (393,340);
},
{
name = ogonek;
pos = (689,10);
},
{
name = top;
pos = (348,650);
},
{
name = topleft;
pos = (43,680);
},
{
name = topright;
pos = (743,680);
}
);
layerId = "BC735296-CD3A-4FA4-9AA9-EE2D747BC69E";
shapes = (
{
closed = 1;
nodes = (
(280,-11,o),
(350,-9,o),
(365,-7,cs),
(400,-4,o),
(423,5,o),
(448,27,cs),
(484,58,o),
(519,164,o),
(529,231,c),
(561,272,l),
(586,273,o),
(611,273,o),
(641,273,c),
(641,333,l),
(572,333,o),
(522,331,o),
(447,327,cs),
(374,323,o),
(340,317,o),
(303,289,c),
(362,253,l),
(368,259,o),
(401,264,o),
(451,267,cs),
(460,267,o),
(469,268,o),
(477,268,c),
(461,263,l),
(461,221,o),
(427,109,o),
(402,88,cs),
(391,78,o),
(382,74,o),
(358,72,cs),
(344,71,o),
(277,69,o),
(260,69,cs),
(233,69,o),
(222,72,o),
(218,71,c),
(192,119,o),
(155,171,o),
(147,232,cs),
(146,244,o),
(137,273,o),
(138,270,c),
(137,277,o),
(136,282,o),
(136,295,cs),
(136,307,o),
(137,320,o),
(138,335,cs),
(139,352,o),
(154,377,o),
(170,421,cs),
(188,473,o),
(206,512,o),
(234,539,cs),
(256,561,o),
(315,578,o),
(347,578,cs),
(389,578,o),
(436,557,o),
(471,522,c),
(521,578,l),
(469,630,o),
(407,658,o),
(347,658,cs),
(297,658,o),
(222,634,o),
(184,596,cs),
(144,556,o),
(121,497,o),
(104,448,cs),
(92,414,o),
(70,379,o),
(68,339,cs),
(67,325,o),
(66,310,o),
(66,295,cs),
(66,277,o),
(67,261,o),
(71,248,cs),
(76,229,o),
(81,218,o),
(82,201,cs),
(87,141,o),
(133,80,o),
(162,22,cs),
(173,-1,o),
(199,-11,o),
(260,-11,cs)
);
},
{
closed = 1;
nodes = (
(521,222,l),
(521,222,l)
);
}
);
width = 640;
}
);
metricLeft = O;
unicode = 71;
},
{
color = 6;
glyphname = H;
layers = (
{
anchors = (
{
name = bottom;
pos = (353,0);
},
{
name = center;
pos = (353,340);
},
{
name = top;
pos = (353,680);
},
{
name = topleft;
pos = (13,680);
}
);
layerId = "BC735296-CD3A-4FA4-9AA9-EE2D747BC69E";
shapes = (
{
closed = 1;
nodes = (
(141,-2,l),
(141,91,o),
(155,173,o),
(155,271,cs),
(155,275,o),
(155,279,o),
(155,283,c),
(250,285,o),
(344,295,o),
(438,295,cs),
(460,295,o),
(507,290,o),
(547,288,c),
(548,210,o),
(550,131,o),
(552,53,cs),
(553,30,o),
(558,12,o),
(558,0,c),
(628,0,l),
(628,22,o),
(623,42,o),
(622,55,cs),
(620,148,o),
(617,241,o),
(617,333,cs),
(617,366,o),
(617,395,o),
(618,422,cs),
(620,495,o),
(629,573,o),
(629,649,c),
(559,649,l),
(559,577,o),
(550,500,o),
(548,424,cs),
(547,404,o),
(547,379,o),
(547,358,c),
(509,360,o),
(463,365,o),
(438,365,cs),
(341,365,o),
(247,355,o),
(153,353,c),
(151,396,o),
(148,439,o),
(147,480,cs),
(147,491,o),
(146,503,o),
(146,517,cs),
(146,561,o),
(149,606,o),
(149,651,c),
(79,651,l),
(79,608,o),
(76,562,o),
(76,517,cs),
(76,504,o),
(77,490,o),
(77,477,cs),
(80,407,o),
(85,339,o),
(85,271,cs),
(85,178,o),
(71,96,o),
(71,-2,c)
);
}
);
width = 717;
}
);
unicode = 72;
},
{
color = 6;
glyphname = Hbar;
layers = (
{
anchors = (
{
name = bottom;
pos = (353,0);
},
{
name = center;
pos = (353,340);
},
{
name = top;
pos = (353,680);
},
{
name = topleft;
pos = (13,680);
}
);
layerId = "BC735296-CD3A-4FA4-9AA9-EE2D747BC69E";
shapes = (
{
closed = 1;
nodes = (
(141,-2,l),
(141,91,o),
(155,173,o),
(155,271,cs),
(155,275,o),
(155,279,o),
(155,283,c),
(250,285,o),
(344,295,o),
(438,295,cs),
(460,295,o),
(507,290,o),
(547,288,c),
(548,210,o),
(550,131,o),
(552,53,cs),
(553,30,o),
(558,12,o),
(558,0,c),
(628,0,l),
(628,22,o),
(623,42,o),
(622,55,cs),
(620,148,o),
(617,241,o),
(617,333,cs),
(617,366,o),
(617,395,o),
(618,422,cs),
(618,429,o),
(618,437,o),
(619,444,c),
(623,444,l),
(673,444,l),
(673,506,l),
(623,506,l),
(622,506,l),
(625,553,o),
(629,602,o),
(629,649,c),
(559,649,l),
(559,603,o),
(555,555,o),
(552,506,c),
(443,506,o),
(333,506,o),
(224,499,cs),
(201,497,o),
(174,498,o),
(146,499,c),
(146,505,o),
(146,511,o),
(146,517,cs),
(146,561,o),
(149,606,o),
(149,651,c),
(79,651,l),
(79,608,o),
(76,562,o),
(76,517,cs),
(76,512,o),
(76,508,o),
(76,503,c),
(63,503,o),
(51,504,o),
(42,504,c),
(42,442,l),
(51,442,o),
(64,441,o),
(79,440,c),
(82,383,o),
(85,327,o),
(85,271,cs),
(85,178,o),
(71,96,o),
(71,-2,c)
);
},
{
closed = 1;
nodes = (
(152,381,o),
(150,409,o),
(149,436,c),
(175,435,o),
(203,435,o),
(228,437,cs),
(334,444,o),
(441,444,o),
(549,444,c),
(548,437,o),
(548,431,o),
(548,424,cs),
(547,404,o),
(547,379,o),
(547,358,c),
(509,360,o),
(463,365,o),
(438,365,cs),
(341,365,o),
(247,355,o),
(153,353,c)
);
}
);
width = 761;
}
);
metricRight = H;
unicode = 294;
},
{
color = 6;
glyphname = I;
kernLeft = I;
kernRight = I;
layers = (
{
anchors = (
{
name = bottom;
pos = (147,0);
},
{
name = ogonek;
pos = (200,1);
},
{
name = top;
pos = (135,650);
},
{
name = topleft;
pos = (7,680);
}
);
layerId = "BC735296-CD3A-4FA4-9AA9-EE2D747BC69E";
shapes = (
{
closed = 1;
nodes = (
(176,-1,l),
(176,121,o),
(173,259,o),
(167,401,cs),
(166,412,o),
(166,423,o),
(166,436,cs),
(166,504,o),
(173,579,o),
(173,650,c),
(103,650,l),
(103,582,o),
(96,508,o),
(96,436,cs),
(96,424,o),
(96,410,o),
(97,398,cs),
(103,257,o),
(106,121,o),
(106,-1,c)
);
}
);
width = 255;
}
);
unicode = 73;
},
{
color = 6;
glyphname = Iogonek;
layers = (
{
anchors = (
{
name = bottom;
pos = (147,0);
},
{
name = ogonek;
pos = (200,1);
},
{
name = top;
pos = (135,650);
},
{
name = topleft;
pos = (7,680);
}
);
layerId = "BC735296-CD3A-4FA4-9AA9-EE2D747BC69E";
shapes = (
{
closed = 1;
nodes = (
(203,-225,o),
(220,-206,o),
(238,-193,c),
(206,-135,l),
(188,-148,o),
(182,-156,o),
(172,-160,cs),
(165,-163,o),
(152,-158,o),
(142,-151,cs),
(130,-143,o),
(117,-132,o),
(111,-126,c),
(110,-120,o),
(109,-115,o),
(109,-109,cs),
(109,-60,o),
(136,-8,o),
(172,-1,c),
(176,-1,l),
(176,121,o),
(173,259,o),
(167,401,cs),
(166,412,o),
(166,423,o),
(166,436,cs),
(166,504,o),
(173,579,o),
(173,650,c),
(103,650,l),
(103,582,o),
(96,508,o),
(96,436,cs),
(96,424,o),
(96,410,o),
(97,398,cs),
(103,263,o),
(106,131,o),
(106,13,c),
(75,-13,o),
(55,-56,o),
(55,-109,cs),
(55,-119,o),
(56,-130,o),
(57,-139,cs),
(63,-167,o),
(81,-190,o),
(112,-211,cs),
(139,-229,o),
(160,-237,o),
(182,-231,cs)
);
}
);
width = 255;
}
);
unicode = 302;
},
{
color = 6;
glyphname = J;
kernLeft = J;
layers = (
{
anchors = (
{
name = bottom;
pos = (176,0);
},
{
name = top;
pos = (176,680);
}
);
layerId = "BC735296-CD3A-4FA4-9AA9-EE2D747BC69E";
shapes = (
{
closed = 1;
nodes = (
(-40,-152,l),
(-84,-264,o),
(43,-273,o),
(130,-164,cs),
(173,-111,o),
(207,-31,o),
(221,52,cs),
(225,75,o),
(228,105,o),
(228,139,cs),
(228,189,o),
(221,240,o),
(222,279,cs),
(224,376,o),
(219,471,o),
(216,566,cs),
(216,650,l),
(146,650,l),
(146,564,ls),
(149,468,o),
(154,372,o),
(152,277,cs),
(151,236,o),
(158,186,o),
(158,139,cs),
(158,108,o),
(156,85,o),
(152,65,cs),
(140,-4,o),
(113,-67,o),
(75,-114,cs),
(34,-166,o),
(47,-124,o),
(25,-181,c)
);
}
);
width = 323;
}
);
unicode = 74;
},
{
color = 6;
glyphname = K;
kernLeft = I;
kernRight = K;
layers = (
{
anchors = (
{
name = bottom;
pos = (293,0);
},
{
name = top;
pos = (293,680);
}
);
layerId = "BC735296-CD3A-4FA4-9AA9-EE2D747BC69E";
shapes = (
{
closed = 1;
nodes = (
(497,59,l),
(472,84,o),
(439,118,o),
(436,121,cs),
(406,152,o),
(373,176,o),
(351,199,cs),
(327,226,o),
(305,244,o),
(274,271,cs),
(251,292,o),
(228,306,o),
(215,320,c),
(241,346,o),
(287,385,o),
(308,405,cs),
(360,455,o),
(397,506,o),
(442,558,cs),
(454,572,o),
(477,587,o),
(500,609,c),
(450,666,l),
(436,652,o),
(412,637,o),
(389,611,cs),
(344,559,o),
(308,510,o),
(259,463,cs),
(238,443,o),
(185,401,o),
(153,362,c),
(154,379,o),
(154,396,o),
(155,413,cs),
(158,495,o),
(142,575,o),
(142,650,c),
(72,650,l),
(72,568,o),
(88,490,o),
(85,416,cs),
(80,276,o),
(71,141,o),
(71,-1,c),
(141,-1,l),
(141,96,o),
(145,190,o),
(150,286,c),
(172,247,o),
(208,228,o),
(228,211,cs),
(254,188,o),
(273,174,o),
(300,145,cs),
(331,111,o),
(362,89,o),
(386,65,cs),
(438,11,o),
(473,-21,o),
(497,-21,c)
);
},
{
closed = 1;
nodes = (
(151,318,l),
(170,309,l),
(150,298,l)
);
}
);
width = 545;
}
);
metricLeft = H;
unicode = 75;
},
{
color = 6;
glyphname = L;
kernRight = L;
layers = (
{
anchors = (
{
name = bottom;
pos = (300,3);
},
{
name = center;
pos = (264,340);
},
{
name = top;
pos = (274,650);
},
{
name = topright;
pos = (524,650);
}
);
layerId = "BC735296-CD3A-4FA4-9AA9-EE2D747BC69E";
shapes = (
{
closed = 1;
nodes = (
(126,-9,o),
(192,3,o),
(218,3,cs),
(260,3,o),
(303,-3,o),
(346,-3,cs),
(394,-3,o),
(442,0,o),
(489,0,c),
(489,66,l),
(440,66,o),
(393,63,o),
(346,63,cs),
(305,63,o),
(262,69,o),
(218,69,cs),
(202,69,o),
(174,65,o),
(149,62,c),
(149,74,o),
(149,85,o),
(149,97,cs),
(149,115,o),
(148,149,o),
(147,163,cs),
(144,204,o),
(147,249,o),
(144,298,cs),
(140,361,o),
(131,418,o),
(131,473,cs),
(131,484,o),
(131,492,o),
(132,502,cs),
(134,526,o),
(131,576,o),
(138,613,c),
(137,604,o),
(145,620,o),
(145,648,c),
(85,648,l),
(85,646,o),
(82,641,o),
(80,630,cs),
(72,592,o),
(70,560,o),
(72,507,cs),
(73,496,o),
(71,484,o),
(71,473,cs),
(71,411,o),
(80,352,o),
(84,293,cs),
(87,248,o),
(84,202,o),
(88,157,cs),
(89,142,o),
(89,111,o),
(89,97,cs),
(89,69,o),
(88,41,o),
(88,12,cs),
(88,1,o),
(92,-7,o),
(99,-7,cs)
);
},
{
closed = 1;
nodes = (
(104,59,o),
(104,59,o),
(104,59,cs),
(104,59,ls)
);
}
);
width = 544;
}
);
metricLeft = H;
unicode = 76;
},
{
color = 6;
glyphname = M;
kernLeft = M;
kernRight = M;
layers = (
{
anchors = (
{
name = bottom;
pos = (447,0);
},
{
name = top;
pos = (447,680);
}
);
layerId = "BC735296-CD3A-4FA4-9AA9-EE2D747BC69E";
shapes = (
{
closed = 1;
nodes = (
(817,-10,o),
(804,22,o),
(810,110,cs),
(815,175,o),
(818,245,o),
(818,314,cs),
(818,360,o),
(816,391,o),
(812,428,cs),
(806,478,o),
(803,519,o),
(801,553,cs),
(801,568,o),
(800,582,o),
(800,597,cs),
(800,597,o),
(800,598,o),
(800,598,cs),
(800,615,l),
(716,676,l),
(682,656,o),
(647,575,o),
(638,559,cs),
(608,508,o),
(586,447,o),
(560,388,cs),
(540,343,o),
(522,294,o),
(504,249,cs),
(488,208,o),
(476,183,o),
(463,160,c),
(437,199,o),
(409,229,o),
(391,258,cs),
(351,321,o),
(323,382,o),
(289,441,cs),
(268,476,o),
(255,513,o),
(235,551,cs),
(214,590,o),
(187,631,o),
(175,659,c),
(145,644,l),
(80,644,l),
(80,532,o),
(74,418,o),
(72,304,cs),
(71,276,o),
(71,248,o),
(71,219,cs),
(71,173,o),
(72,126,o),
(73,78,cs),
(74,48,o),
(74,16,o),
(74,0,c),
(144,0,l),
(144,25,o),
(143,58,o),
(143,80,cs),
(142,129,o),
(141,175,o),
(141,219,cs),
(141,249,o),
(141,276,o),
(142,303,cs),
(143,386,o),
(147,471,o),
(149,556,c),
(158,541,o),
(166,526,o),
(173,513,cs),
(193,477,o),
(207,433,o),
(230,398,cs),
(268,337,o),
(304,275,o),
(332,215,cs),
(357,161,o),
(380,127,o),
(405,79,c),
(406,75,ls),
(411,59,o),
(403,29,o),
(409,17,cs),
(416,4,o),
(469,-31,o),
(485,33,c),
(511,76,l),
(508,80,o),
(506,85,o),
(504,88,c),
(533,131,o),
(550,172,o),
(569,219,cs),
(587,265,o),
(605,314,o),
(625,360,cs),
(647,407,o),
(665,462,o),
(698,519,cs),
(704,528,o),
(717,557,o),
(730,580,c),
(731,570,o),
(731,559,o),
(731,549,cs),
(734,503,o),
(738,460,o),
(743,419,cs),
(747,381,o),
(748,353,o),
(748,314,cs),
(748,248,o),
(743,181,o),
(740,114,cs),
(737,35,o),
(724,21,o),
(751,21,c),
(751,-10,l)
);
}
);
width = 906;
}
);
metricLeft = H;
metricRight = H;
unicode = 77;
},
{
color = 6;
glyphname = N;
layers = (
{
anchors = (
{
name = bottom;
pos = (361,0);
},
{
name = top;
pos = (381,650);
}
);
layerId = "BC735296-CD3A-4FA4-9AA9-EE2D747BC69E";
shapes = (
{
closed = 1;
nodes = (
(754,-24,l),
(743,-20,o),
(706,-7,o),
(708,-8,cs),
(701,-5,o),
(692,3,o),
(682,13,c),
(682,43,o),
(677,70,o),
(676,91,cs),
(672,157,o),
(671,222,o),
(669,288,cs),
(669,329,ls),
(669,393,o),
(672,459,o),
(672,526,cs),
(672,567,o),
(667,615,o),
(668,645,c),
(599,649,l),
(597,612,o),
(602,561,o),
(602,526,cs),
(602,461,o),
(599,395,o),
(599,329,cs),
(599,286,ls),
(601,227,o),
(602,167,o),
(605,107,c),
(601,112,o),
(597,116,o),
(594,120,cs),
(547,175,o),
(500,217,o),
(465,259,cs),
(422,309,o),
(391,363,o),
(354,417,cs),
(316,475,o),
(277,536,o),
(237,588,cs),
(221,608,o),
(209,623,o),
(200,634,cs),
(193,643,o),
(189,649,o),
(186,653,c),
(76,628,l),
(76,613,o),
(71,591,o),
(71,561,cs),
(71,454,o),
(77,349,o),
(77,244,cs),
(77,161,o),
(83,80,o),
(83,1,c),
(153,1,l),
(153,81,o),
(147,164,o),
(147,244,cs),
(147,351,o),
(141,456,o),
(141,561,cs),
(141,570,o),
(142,578,o),
(143,587,c),
(143,586,o),
(144,586,o),
(144,585,cs),
(157,568,o),
(170,553,o),
(181,538,cs),
(223,485,o),
(259,428,o),
(296,373,cs),
(333,318,o),
(369,258,o),
(411,207,cs),
(453,157,o),
(501,115,o),
(541,68,cs),
(569,36,o),
(638,-66,o),
(684,-84,cs),
(700,-90,o),
(723,-97,o),
(732,-100,c)
);
},
{
closed = 1;
nodes = (
(709,-9,o),
(709,-9,o),
(709,-9,cs),
(709,-9,ls)
);
},
{
closed = 1;
nodes = (
(131,604,o),
(130,605,o),
(129,606,cs),
(130,605,o),
(131,603,o),
(132,602,c)
);
},
{
closed = 1;
nodes = (
(146,619,o),
(146,623,o),
(146,628,cs),
(146,623,o),
(146,618,o),
(145,615,cs)
);
}
);
width = 767;
}
);
metricLeft = H;
unicode = 78;
},
{
color = 6;
glyphname = Eng;
layers = (
{
anchors = (
{
name = bottom;
pos = (361,0);
},
{
name = top;
pos = (381,650);
}
);
layerId = "BC735296-CD3A-4FA4-9AA9-EE2D747BC69E";
shapes = (
{
closed = 1;
nodes = (
(526,-207,o),
(535,-206,o),
(545,-201,cs),
(601,-177,o),
(636,-134,o),
(654,-49,cs),
(658,-33,o),
(667,-10,o),
(672,20,cs),
(675,33,o),
(676,52,o),
(676,71,cs),
(676,73,o),
(676,75,o),
(676,78,cs),
(676,82,o),
(676,86,o),
(676,91,cs),
(672,157,o),
(671,222,o),
(669,288,cs),
(669,329,ls),
(669,393,o),
(672,459,o),
(672,526,cs),
(672,567,o),
(667,615,o),
(668,645,c),
(599,649,l),
(597,612,o),
(602,561,o),
(602,526,cs),
(602,461,o),
(599,395,o),
(599,329,cs),
(599,286,ls),
(601,226,o),
(602,165,o),
(605,105,c),
(559,158,o),
(496,222,o),
(465,259,cs),
(422,309,o),
(391,363,o),
(354,417,cs),
(316,475,o),
(277,536,o),
(237,588,cs),
(221,608,o),
(209,623,o),
(200,634,cs),
(193,643,o),
(189,649,o),
(186,653,c),
(76,628,l),
(76,613,o),
(71,591,o),
(71,561,cs),
(71,454,o),
(77,349,o),
(77,244,cs),
(77,161,o),
(83,80,o),
(83,1,c),
(153,1,l),
(153,81,o),
(147,164,o),
(147,244,cs),
(147,351,o),
(141,456,o),
(141,561,cs),
(141,570,o),
(142,578,o),
(143,587,c),
(143,586,o),
(144,586,o),
(144,585,cs),
(157,568,o),
(170,553,o),
(181,538,cs),
(223,485,o),
(259,428,o),
(296,373,cs),
(333,318,o),
(369,258,o),
(411,207,cs),
(447,164,o),
(558,62,o),
(612,6,c),
(609,-6,o),
(604,-19,o),
(601,-34,cs),
(588,-97,o),
(566,-127,o),
(523,-145,c),
(514,-145,ls),
(494,-145,o),
(464,-141,o),
(450,-141,c),
(450,-203,l),
(461,-203,o),
(492,-207,o),
(514,-207,cs)
);
},
{
closed = 1;
nodes = (
(131,604,o),
(130,605,o),
(129,606,cs),
(130,605,o),
(131,603,o),
(132,602,c)
);
},
{
closed = 1;
nodes = (
(146,619,o),
(146,623,o),
(146,628,cs),
(146,623,o),
(146,618,o),
(145,615,cs)
);
}
);
width = 767;
}
);
metricLeft = N;
unicode = 330;
},
{
color = 6;
glyphname = O;
kernLeft = O;
kernRight = O;
layers = (
{
anchors = (
{
name = bottom;
pos = (338,0);
},
{
name = center;
pos = (378,340);
},
{
name = ogonek;
pos = (674,10);
},
{
name = top;
pos = (348,650);
},
{
name = topleft;
pos = (28,680);
},
{
name = topright;
pos = (728,680);
}
);
layerId = "BC735296-CD3A-4FA4-9AA9-EE2D747BC69E";
shapes = (
{
closed = 1;
nodes = (
(345,-9,o),
(424,-2,o),
(449,7,cs),
(544,46,o),
(600,215,o),
(606,306,cs),
(610,360,o),
(606,418,o),
(596,476,c),
(595,478,o),
(596,540,o),
(573,536,c),
(572,548,o),
(554,563,o),
(522,590,cs),
(473,631,o),
(375,657,o),
(318,657,cs),
(313,657,o),
(306,657,o),
(299,656,cs),
(185,645,o),
(87,454,o),
(67,356,cs),
(64,341,o),
(74,323,o),
(75,318,cs),
(83,269,o),
(91,221,o),
(102,173,cs),
(113,128,o),
(118,81,o),
(163,48,cs),
(215,9,o),
(256,-9,o),
(299,-9,cs)
);
},
{
closed = 1;
nodes = (
(271,71,o),
(243,84,o),
(204,112,cs),
(185,126,o),
(185,128,o),
(170,191,cs),
(159,238,o),
(152,284,o),
(144,331,cs),
(142,345,o),
(141,354,o),
(140,360,c),
(168,460,o),
(249,571,o),
(307,577,c),
(318,577,ls),
(360,577,o),
(443,557,o),
(477,529,c),
(527,462,l),
(537,408,o),
(540,360,o),
(536,312,cs),
(530,213,o),
(475,103,o),
(423,82,cs),
(409,76,o),
(336,71,o),
(299,71,cs)
);
}
);
width = 649;
}
);
unicode = 79;
},
{
color = 6;
glyphname = Oslash;
kernLeft = O;
kernRight = O;
layers = (
{
anchors = (
{
name = bottom;
pos = (355,0);
},
{
name = center;
pos = (378,340);
},
{
name = ogonek;
pos = (674,10);
},
{
name = top;
pos = (355,680);
},
{
name = topleft;
pos = (28,680);
},
{
name = topright;
pos = (728,680);
}
);
layerId = "BC735296-CD3A-4FA4-9AA9-EE2D747BC69E";
shapes = (
{
closed = 1;
nodes = (
(160,-56,o),
(178,-15,o),
(195,26,c),
(233,2,o),
(265,-9,o),
(299,-9,cs),
(345,-9,o),
(424,-2,o),
(449,7,cs),
(544,46,o),
(600,215,o),
(606,306,cs),
(610,360,o),
(606,418,o),
(596,476,c),
(595,478,o),
(596,540,o),
(573,536,c),
(572,548,o),
(554,563,o),
(522,590,cs),
(521,591,l),
(540,627,o),
(555,665,o),
(555,702,c),
(501,702,l),
(501,680,o),
(488,651,o),
(471,621,c),
(421,644,o),
(359,657,o),
(318,657,cs),
(313,657,o),
(306,657,o),
(299,656,cs),
(185,645,o),
(87,454,o),
(67,356,cs),
(64,341,o),
(74,323,o),
(75,318,cs),
(83,269,o),
(91,221,o),
(102,173,cs),
(112,134,o),
(117,93,o),
(148,61,c),
(133,24,o),
(117,-11,o),
(91,-46,c),
(135,-89,l)
);
},
{
closed = 1;
nodes = (
(179,152,o),
(176,167,o),
(170,191,cs),
(159,238,o),
(152,284,o),
(144,331,cs),
(142,345,o),
(141,354,o),
(140,360,c),
(168,460,o),
(249,571,o),
(307,577,c),
(318,577,ls),
(346,577,o),
(393,568,o),
(431,554,c),
(423,541,o),
(416,529,o),
(410,517,cs),
(401,500,o),
(398,488,o),
(388,473,cs),
(381,464,o),
(366,449,o),
(350,422,cs),
(328,386,o),
(310,345,o),
(287,304,cs),
(266,267,o),
(230,227,o),
(198,172,cs),
(192,162,o),
(187,152,o),
(182,142,c)
);
},
{
closed = 1;
nodes = (
(276,71,o),
(254,79,o),
(225,97,c),
(232,111,o),
(238,124,o),
(245,136,cs),
(268,176,o),
(305,217,o),
(334,269,cs),
(355,306,o),
(372,346,o),
(396,385,cs),
(403,396,o),
(417,410,o),
(432,432,cs),
(443,448,o),
(449,467,o),
(458,483,cs),
(464,495,o),
(472,508,o),
(481,523,c),
(527,462,l),
(537,408,o),
(540,360,o),
(536,312,cs),
(530,213,o),
(475,103,o),
(423,82,cs),
(409,76,o),
(336,71,o),
(299,71,cs)
);
}
);
width = 649;
}
);
metricLeft = O;
metricRight = O;
unicode = 216;
},
{
color = 6;
glyphname = OE;
kernLeft = O;
layers = (
{
anchors = (
{
name = bottom;
pos = (483,0);
},
{
name = center;
pos = (378,340);
},
{
name = ogonek;
pos = (674,10);
},
{
name = top;
pos = (483,680);
},
{
name = topleft;
pos = (28,680);
},
{
name = topright;
pos = (728,680);
}
);
layerId = "BC735296-CD3A-4FA4-9AA9-EE2D747BC69E";
shapes = (
{
closed = 1;
nodes = (
(332,-9,o),
(381,-5,o),
(416,0,c),
(472,0,o),
(528,-1,o),
(584,-1,cs),
(671,-1,o),
(768,0,o),
(856,5,c),
(852,67,l),
(767,62,o),
(671,61,o),
(584,61,cs),
(561,61,o),
(539,61,o),
(516,61,c),
(568,127,o),
(599,230,o),
(605,298,c),
(641,297,o),
(678,296,o),
(714,296,cs),
(745,296,o),
(772,297,o),
(798,298,c),
(795,370,l),
(772,369,o),
(745,368,o),
(714,368,cs),
(678,368,o),
(643,369,o),
(607,370,c),
(606,404,o),
(602,440,o),
(596,476,c),
(595,478,o),
(596,540,o),
(573,536,c),
(572,545,o),
(563,555,o),
(546,570,c),
(586,573,o),
(625,579,o),
(665,580,cs),
(685,581,o),
(705,581,o),
(726,581,cs),
(767,581,o),
(809,580,o),
(850,580,c),
(850,652,l),
(809,652,o),
(767,653,o),
(726,653,cs),
(702,653,o),
(682,652,o),
(663,652,cs),
(617,650,o),
(572,643,o),
(527,641,cs),
(515,640,o),
(471,635,o),
(438,634,c),
(396,649,o),
(350,657,o),
(318,657,cs),
(313,657,o),
(306,657,o),
(299,656,cs),
(185,645,o),
(87,454,o),
(67,356,cs),
(64,341,o),
(74,323,o),
(75,318,cs),
(83,269,o),
(91,221,o),
(102,173,cs),
(113,128,o),
(118,81,o),
(163,48,cs),
(215,9,o),
(256,-9,o),
(299,-9,cs)
);
},
{
closed = 1;
nodes = (
(271,71,o),
(243,84,o),
(204,112,cs),
(185,126,o),
(185,128,o),
(170,191,cs),
(159,238,o),
(152,284,o),
(144,331,cs),
(142,345,o),
(141,354,o),
(140,360,c),
(168,460,o),
(249,571,o),
(307,577,c),
(318,577,ls),
(360,577,o),
(443,557,o),
(477,529,c),
(527,462,l),
(537,408,o),
(540,360,o),
(536,312,cs),
(530,213,o),
(475,103,o),
(423,82,cs),
(409,76,o),
(336,71,o),
(299,71,cs)
);
}
);
width = 917;
}
);
metricLeft = O;
unicode = 338;
},
{
color = 6;
glyphname = P;
kernRight = P;
layers = (
{
anchors = (
{
name = bottom;
pos = (296,0);
},
{
name = top;
pos = (296,680);
}
);
layerId = "BC735296-CD3A-4FA4-9AA9-EE2D747BC69E";
shapes = (
{
closed = 1;
nodes = (
(162,7,l),
(157,40,o),
(155,75,o),
(155,126,cs),
(155,200,ls),
(155,230,o),
(155,253,o),
(154,274,cs),
(148,361,o),
(148,449,o),
(141,537,cs),
(140,548,o),
(141,559,o),
(142,568,c),
(161,572,o),
(187,577,o),
(216,576,cs),
(231,575,o),
(246,585,o),
(260,585,cs),
(361,585,o),
(412,561,o),
(443,519,cs),
(456,502,o),
(466,470,o),
(466,425,cs),
(466,380,o),
(424,322,o),
(387,311,cs),
(355,301,o),
(259,302,o),
(218,302,c),
(227,232,l),
(267,232,o),
(364,231,o),
(408,245,cs),
(472,264,o),
(536,346,o),
(536,425,cs),
(536,484,o),
(520,540,o),
(499,568,cs),
(449,634,o),
(384,657,o),
(260,657,cs),
(245,657,o),
(229,649,o),
(211,648,cs),
(76,640,l),
(71,531,l),
(78,444,o),
(79,357,o),
(84,269,cs),
(85,249,o),
(85,228,o),
(85,200,cs),
(85,126,ls),
(85,83,o),
(86,38,o),
(92,-5,c)
);
}
);
width = 580;
}
);
unicode = 80;
},
{
color = 6;
glyphname = Thorn;
layers = (
{
layerId = "BC735296-CD3A-4FA4-9AA9-EE2D747BC69E";
shapes = (
{
closed = 1;
nodes = (
(122,-26,o),
(122,-24,o),
(122,-22,c),
(115,-13,l),
(117,8,o),
(119,23,o),
(119,41,c),
(125,101,o),
(120,165,o),
(116,230,cs),
(112,331,o),
(114,407,o),
(123,482,cs),
(123,486,o),
(124,491,o),
(125,496,c),
(131,478,l),
(136,479,o),
(145,480,o),
(151,480,cs),
(190,480,o),
(233,466,o),
(265,458,cs),
(352,440,o),
(416,417,o),
(431,400,c),
(453,385,o),
(467,363,o),
(475,324,cs),
(477,316,o),
(481,301,o),
(484,286,cs),
(485,278,o),
(486,276,o),
(487,270,c),
(478,222,o),
(417,211,o),
(356,175,c),
(333,165,o),
(297,161,o),
(223,157,cs),
(219,157,o),
(189,156,o),
(172,156,cs),
(151,156,o),
(153,158,o),
(172,143,c),
(145,91,l),
(154,82,o),
(158,84,o),
(173,84,cs),
(197,84,o),
(235,85,o),
(232,85,cs),
(273,87,o),
(340,91,o),
(381,115,c),
(457,153,o),
(526,182,o),
(536,257,c),
(539,263,o),
(539,278,o),
(536,298,cs),
(533,311,o),
(530,326,o),
(527,339,cs),
(516,387,o),
(494,432,o),
(467,459,c),
(429,488,o),
(368,509,o),
(275,530,cs),
(234,538,o),
(188,552,o),
(150,552,cs),
(146,552,o),
(142,552,o),
(139,552,c),
(148,592,o),
(156,637,o),
(149,681,c),
(82,675,l),
(91,625,o),
(67,563,o),
(59,493,c),
(45,412,o),
(45,321,o),
(50,229,cs),
(52,169,o),
(57,110,o),
(55,48,c),
(53,42,o),
(51,28,o),
(49,3,c),
(47,-1,o),
(46,-10,o),
(45,-17,c),
(123,-29,l)
);
}
);
width = 605;
}
);
unicode = 222;
},
{
color = 6;
glyphname = Q;
kernLeft = O;
kernRight = O;
layers = (
{
anchors = (
{
name = bottom;
pos = (362,0);
},
{
name = top;
pos = (362,680);
}
);
layerId = "BC735296-CD3A-4FA4-9AA9-EE2D747BC69E";
shapes = (
{
closed = 1;
nodes = (
(406,-5,o),
(477,31,o),
(515,91,cs),
(541,132,o),
(592,219,o),
(592,299,cs),
(592,336,o),
(591,371,o),
(589,398,cs),
(588,415,o),
(579,441,o),
(579,452,cs),
(579,481,o),
(548,537,o),
(543,549,c),
(509,520,l),
(531,569,l),
(507,581,o),
(500,599,o),
(470,617,cs),
(451,629,o),
(427,648,o),
(401,654,cs),
(392,657,o),
(379,658,o),
(362,658,cs),
(319,658,o),
(255,652,o),
(236,645,cs),
(180,627,o),
(123,555,o),
(91,466,cs),
(75,423,o),
(67,368,o),
(67,307,cs),
(67,259,o),
(83,212,o),
(94,177,cs),
(109,129,o),
(134,88,o),
(166,56,cs),
(205,17,o),
(262,-5,o),
(324,-5,cs)
);
},
{
closed = 1;
nodes = (
(1123,-277,ls),
(1152,-275,o),
(1206,-272,o),
(1244,-254,cs),
(1252,-250,o),
(1269,-242,o),
(1265,-243,c),
(1252,-174,l),
(1236,-176,o),
(1225,-186,o),
(1217,-189,c),
(1203,-197,o),
(1175,-202,o),
(1121,-206,c),
(1092,-206,ls),
(1006,-206,o),
(894,-213,o),
(824,-194,cs),
(807,-189,o),
(789,-182,o),
(773,-179,cs),
(715,-167,o),
(658,-156,o),
(606,-136,c),
(605,-136,l),
(556,-118,o),
(511,-109,o),
(461,-90,c),
(462,-90,l),
(438,-81,o),
(414,-73,o),
(396,-65,cs),
(368,-52,o),
(333,-29,o),
(300,-22,c),
(288,-21,o),
(282,-20,o),
(275,-20,cs),
(194,-20,o),
(130,-68,o),
(130,-132,cs),
(130,-141,o),
(132,-152,o),
(134,-160,cs),
(140,-183,o),
(153,-200,o),
(162,-214,c),
(219,-167,l),
(204,-146,o),
(202,-142,o),
(202,-137,c),
(200,-131,o),
(200,-134,o),
(200,-132,cs),
(200,-119,o),
(227,-90,o),
(265,-90,cs),
(268,-90,o),
(271,-90,o),
(289,-101,c),
(313,-107,o),
(340,-116,o),
(366,-128,c),
(367,-129,l),
(394,-141,o),
(417,-148,o),
(435,-155,c),
(436,-156,l),
(484,-174,o),
(530,-184,o),
(582,-202,c),
(581,-202,l),
(641,-225,o),
(703,-237,o),
(760,-248,cs),
(776,-252,o),
(791,-258,o),
(807,-263,cs),
(885,-283,o),
(1001,-277,o),
(1092,-277,cs)
);
},
{
closed = 1;
nodes = (
(280,75,o),
(238,90,o),
(215,113,cs),
(188,139,o),
(172,165,o),
(161,201,cs),
(148,240,o),
(137,274,o),
(137,307,cs),
(137,359,o),
(143,402,o),
(156,439,cs),
(180,504,o),
(222,557,o),
(258,570,cs),
(268,573,o),
(330,578,o),
(362,578,cs),
(372,578,o),
(382,578,o),
(383,577,c),
(400,573,o),
(414,561,o),
(434,549,cs),
(444,543,o),
(468,518,o),
(490,503,c),
(486,500,l),
(495,483,o),
(509,456,o),
(509,452,cs),
(509,427,o),
(519,398,o),
(519,393,cs),
(521,367,o),
(522,334,o),
(522,299,cs),
(522,258,o),
(501,206,o),
(456,134,cs),
(434,99,o),
(382,75,o),
(324,75,cs)
);
}
);
width = 673;
}
);
unicode = 81;
},
{
color = 6;
glyphname = R;
kernLeft = I;
kernRight = R;
layers = (
{
anchors = (
{
name = bottom;
pos = (322,0);
},
{
name = top;
pos = (292,650);
}
);
layerId = "BC735296-CD3A-4FA4-9AA9-EE2D747BC69E";
shapes = (
{
closed = 1;
nodes = (
(673,-101,o),
(693,-98,o),
(710,-92,c),
(687,-26,l),
(679,-29,o),
(666,-31,o),
(653,-31,cs),
(634,-31,o),
(618,-27,o),
(610,-22,cs),
(596,-13,o),
(560,44,o),
(546,62,cs),
(508,110,o),
(437,207,o),
(399,253,cs),
(396,256,o),
(392,263,o),
(387,269,c),
(420,285,o),
(454,304,o),
(482,327,cs),
(516,355,o),
(547,433,o),
(547,487,cs),
(547,506,o),
(544,525,o),
(537,537,cs),
(515,578,o),
(487,607,o),
(451,624,cs),
(433,633,o),
(413,632,o),
(403,633,cs),
(348,639,o),
(299,642,o),
(250,642,cs),
(226,642,o),
(203,642,o),
(179,640,cs),
(143,638,o),
(109,633,o),
(74,626,c),
(-6,588,l),
(-6,534,o),
(21,534,o),
(86,548,cs),
(97,550,o),
(107,552,o),
(117,553,c),
(116,547,o),
(115,540,o),
(115,534,cs),
(114,507,o),
(113,479,o),
(113,448,cs),
(113,367,o),
(117,286,o),
(117,206,cs),
(114,8,l),
(153,-13,l),
(176,-13,o),
(184,6,o),
(184,42,cs),
(184,102,o),
(187,144,o),
(187,206,cs),
(187,211,o),
(187,216,o),
(187,221,c),
(246,221,l),
(246,177,o),
(267,214,o),
(329,242,cs),
(332,244,o),
(336,245,o),
(339,247,c),
(326,227,l),
(331,223,o),
(341,220,o),
(345,212,cs),
(382,147,o),
(451,64,o),
(485,22,cs),
(500,4,o),
(542,-59,o),
(571,-79,cs),
(593,-93,o),
(622,-101,o),
(653,-101,cs)
);
},
{
closed = 1;
nodes = (
(186,318,o),
(183,384,o),
(183,448,cs),
(183,476,o),
(184,503,o),
(185,531,cs),
(185,539,o),
(187,549,o),
(189,560,c),
(209,562,o),
(230,562,o),
(250,562,cs),
(296,562,o),
(343,560,o),
(395,554,cs),
(404,553,o),
(425,550,o),
(421,552,cs),
(447,540,o),
(461,526,o),
(475,500,cs),
(477,496,o),
(477,495,o),
(477,487,cs),
(477,454,o),
(457,405,o),
(438,389,cs),
(403,360,o),
(351,339,o),
(299,315,cs),
(239,287,o),
(203,273,o),
(187,253,c)
);
}
);
width = 633;
}
);
unicode = 82;
},
{
color = 6;
glyphname = S;
layers = (
{
anchors = (
{
name = bottom;
pos = (271,0);
},
{
name = top;
pos = (281,650);
}
);
layerId = "BC735296-CD3A-4FA4-9AA9-EE2D747BC69E";
shapes = (
{
closed = 1;
nodes = (
(374,-13,o),
(404,-2,o),
(447,33,cs),
(478,59,o),
(505,118,o),
(505,164,cs),
(505,197,o),
(493,266,o),
(409,330,cs),
(304,411,o),
(226,391,o),
(168,487,cs),
(155,508,o),
(154,512,o),
(154,518,cs),
(154,543,o),
(155,545,o),
(195,560,cs),
(231,573,o),
(269,580,o),
(305,580,cs),
(353,580,o),
(391,568,o),
(432,542,c),
(464,609,l),
(409,645,o),
(362,660,o),
(305,660,cs),
(263,660,o),
(220,651,o),
(174,635,cs),
(118,614,o),
(94,579,o),
(94,518,cs),
(94,495,o),
(102,470,o),
(116,446,cs),
(196,315,o),
(303,321,o),
(373,267,cs),
(450,208,o),
(445,189,o),
(445,164,cs),
(445,142,o),
(429,111,o),
(409,95,cs),
(385,75,o),
(360,67,o),
(316,67,cs),
(256,67,o),
(226,74,o),
(210,79,cs),
(167,95,o),
(135,133,o),
(100,163,c),
(94,167,o),
(83,189,o),
(74,192,c),
(55,116,l),
(61,101,l),
(98,70,o),
(141,22,o),
(190,4,cs),
(223,-8,o),
(263,-13,o),
(316,-13,cs)
);
}
);
width = 545;
}
);
unicode = 83;
},
{
color = 6;
glyphname = Scedilla;
layers = (
{
anchors = (
{
name = bottom;
pos = (271,-220);
},
{
name = top;
pos = (281,650);
}
);
layerId = "BC735296-CD3A-4FA4-9AA9-EE2D747BC69E";
shapes = (
{
closed = 1;
nodes = (
(302,-223,o),
(365,-202,o),
(377,-160,cs),
(380,-149,o),
(382,-134,o),
(382,-122,cs),
(382,-74,o),
(362,-45,o),
(303,-45,cs),
(300,-45,o),
(297,-45,o),
(295,-46,c),
(296,-43,ls),
(299,-37,o),
(302,-25,o),
(306,-13,c),
(316,-13,ls),
(374,-13,o),
(404,-2,o),
(447,33,cs),
(478,59,o),
(505,118,o),
(505,164,cs),
(505,197,o),
(493,266,o),
(409,330,cs),
(304,411,o),
(226,391,o),
(168,487,cs),
(155,508,o),
(154,512,o),
(154,518,cs),
(154,543,o),
(155,545,o),
(195,560,cs),
(231,573,o),
(269,580,o),
(305,580,cs),
(353,580,o),
(391,568,o),
(432,542,c),
(464,609,l),
(409,645,o),
(362,660,o),
(305,660,cs),
(263,660,o),
(220,651,o),
(174,635,cs),
(118,614,o),
(94,579,o),
(94,518,cs),
(94,495,o),
(102,470,o),
(116,446,cs),
(196,315,o),
(303,321,o),
(373,267,cs),
(450,208,o),
(445,189,o),
(445,164,cs),
(445,142,o),
(429,111,o),
(409,95,cs),
(385,75,o),
(360,67,o),
(316,67,cs),
(256,67,o),
(226,74,o),
(210,79,cs),
(167,95,o),
(135,133,o),
(100,163,c),
(94,167,o),
(83,189,o),
(74,192,c),
(55,116,l),
(61,101,l),
(98,70,o),
(141,22,o),
(190,4,cs),
(206,-2,o),
(223,-6,o),
(243,-9,c),
(241,-13,o),
(238,-20,o),
(235,-28,cs),
(217,-69,o),
(245,-116,o),
(278,-107,cs),
(284,-106,o),
(294,-105,o),
(303,-105,cs),
(314,-105,o),
(328,-113,o),
(328,-122,cs),
(328,-126,o),
(328,-137,o),
(325,-148,c),
(325,-147,o),
(220,-164,o),
(221,-164,cs),
(209,-164,o),
(203,-163,o),
(208,-165,c),
(203,-164,o),
(197,-162,o),
(196,-162,c),
(146,-182,l),
(155,-204,o),
(169,-209,o),
(186,-217,cs),
(195,-221,o),
(206,-223,o),
(221,-223,cs)
);
}
);
width = 545;
}
);
metricLeft = S;
metricRight = S;
unicode = 350;
},
{
color = 6;
glyphname = T;
kernLeft = T;
kernRight = T;
layers = (
{
anchors = (
{
name = bottom;
pos = (267,0);
},
{
name = center;
pos = (275,340);
},
{
name = top;
pos = (295,650);
}
);
layerId = "BC735296-CD3A-4FA4-9AA9-EE2D747BC69E";
shapes = (
{
closed = 1;
nodes = (
(311,0,l),
(311,132,o),
(312,284,o),
(316,415,cs),
(318,464,o),
(325,515,o),
(328,569,c),
(386,572,o),
(449,573,o),
(517,573,c),
(517,653,l),
(417,653,o),
(329,650,o),
(248,643,cs),
(175,638,o),
(103,626,o),
(33,626,c),
(33,546,l),
(107,546,o),
(180,558,o),
(254,564,cs),
(258,564,l),
(255,516,o),
(248,469,o),
(246,418,cs),
(242,286,o),
(241,133,o),
(241,0,c)
);
}
);
width = 550;
}
);
unicode = 84;
},
{
color = 6;
glyphname = Tcedilla;
kernLeft = T;
kernRight = T;
layers = (
{
anchors = (
{
name = bottom;
pos = (267,-220);
},
{
name = center;
pos = (275,340);
},
{
name = top;
pos = (295,650);
}
);
layerId = "BC735296-CD3A-4FA4-9AA9-EE2D747BC69E";
shapes = (
{
closed = 1;
nodes = (
(298,-223,o),
(360,-202,o),
(373,-160,cs),
(376,-149,o),
(378,-134,o),
(378,-122,cs),
(378,-74,o),
(358,-45,o),
(298,-45,cs),
(296,-45,o),
(293,-45,o),
(290,-46,c),
(292,-43,ls),
(296,-34,o),
(301,-16,o),
(305,0,c),
(311,0,l),
(311,132,o),
(312,284,o),
(316,415,cs),
(318,464,o),
(325,514,o),
(328,568,c),
(387,571,o),
(449,573,o),
(517,573,c),
(517,653,l),
(417,653,o),
(329,650,o),
(248,643,cs),
(175,638,o),
(103,626,o),
(33,626,c),
(33,546,l),
(107,546,o),
(180,558,o),
(254,564,cs),
(258,564,l),
(255,516,o),
(248,468,o),
(246,418,cs),
(242,286,o),
(241,133,o),
(241,0,c),
(243,0,l),
(242,-2,o),
(237,-12,o),
(230,-28,cs),
(213,-69,o),
(241,-116,o),
(273,-107,cs),
(279,-106,o),
(290,-105,o),
(298,-105,cs),
(309,-105,o),
(324,-113,o),
(324,-122,cs),
(324,-126,o),
(324,-137,o),
(321,-148,c),
(320,-147,o),
(261,-157,o),
(216,-164,c),
(205,-164,o),
(199,-163,o),
(203,-165,c),
(201,-164,o),
(196,-163,o),
(192,-162,c),
(142,-182,l),
(151,-204,o),
(165,-209,o),
(181,-217,cs),
(191,-221,o),
(201,-223,o),
(216,-223,cs)
);
}
);
width = 550;
}
);
metricLeft = T;
metricRight = T;
unicode = 354;
},
{
color = 6;
glyphname = U;
layers = (
{
anchors = (
{
name = bottom;
pos = (309,0);
},
{
name = ogonek;
pos = (433,10);
},
{
name = top;
pos = (281,630);
},
{
name = topright;
pos = (627,680);
}
);
layerId = "BC735296-CD3A-4FA4-9AA9-EE2D747BC69E";
shapes = (
{
closed = 1;
nodes = (
(332,-7,o),
(343,-7,o),
(354,-6,cs),
(387,-5,o),
(430,16,o),
(470,47,cs),
(487,61,o),
(500,85,o),
(508,102,cs),
(531,148,o),
(534,188,o),
(534,239,cs),
(534,294,ls),
(534,409,o),
(533,539,o),
(518,655,c),
(448,645,l),
(463,533,o),
(464,409,o),
(464,294,cs),
(464,239,ls),
(464,188,o),
(461,169,o),
(445,137,cs),
(437,120,o),
(432,117,o),
(427,110,cs),
(400,79,o),
(370,65,o),
(351,64,cs),
(341,63,o),
(330,63,o),
(321,63,cs),
(236,63,o),
(186,94,o),
(164,136,cs),
(148,165,o),
(143,194,o),
(143,247,cs),
(143,300,ls),
(144,321,o),
(144,343,o),
(144,366,cs),
(144.005,454.993,o),
(141,561,o),
(141,649,c),
(71,649,l),
(71,561,o),
(74,454,o),
(74,366,cs),
(74,344,o),
(74,323,o),
(73,302,cs),
(73,247,ls),
(73,199,o),
(77,145,o),
(102,99,cs),
(140,26,o),
(210,-7,o),
(321,-7,cs)
);
}
);
width = 622;
}
);
metricLeft = H;
metricRight = H;
unicode = 85;
},
{
color = 6;
glyphname = Uogonek;
layers = (
{
anchors = (
{
name = bottom;
pos = (309,0);
},
{
name = ogonek;
pos = (433,10);
},
{
name = top;
pos = (281,630);
},
{
name = topright;
pos = (627,680);
}
);
layerId = "BC735296-CD3A-4FA4-9AA9-EE2D747BC69E";
shapes = (
{
closed = 1;
nodes = (
(436,-216,o),
(453,-197,o),
(471,-184,c),
(439,-126,l),
(421,-139,o),
(415,-147,o),
(405,-151,cs),
(398,-154,o),
(385,-149,o),
(375,-142,cs),
(363,-134,o),
(350,-123,o),
(344,-117,c),
(343,-111,o),
(342,-106,o),
(342,-100,cs),
(342,-60,o),
(360,-18,o),
(387,0,c),
(413,9,o),
(442,25,o),
(470,47,cs),
(487,61,o),
(500,85,o),
(508,102,cs),
(531,148,o),
(534,188,o),
(534,239,cs),
(534,294,ls),
(534,409,o),
(533,539,o),
(518,655,c),
(448,645,l),
(463,533,o),
(464,409,o),
(464,294,cs),
(464,239,ls),
(464,188,o),
(461,169,o),
(445,137,cs),
(437,120,o),
(432,117,o),
(427,110,cs),
(400,79,o),
(370,65,o),
(351,64,cs),
(341,63,o),
(330,63,o),
(321,63,cs),
(236,63,o),
(186,94,o),
(164,136,cs),
(148,165,o),
(143,194,o),
(143,247,cs),
(143,300,ls),
(144,321,o),
(144,343,o),
(144,366,cs),
(144.005,454.993,o),
(141,561,o),
(141,649,c),
(71,649,l),
(71,561,o),
(74,454,o),
(74,366,cs),
(74,344,o),
(74,323,o),
(73,302,cs),
(73,247,ls),
(73,199,o),
(77,145,o),
(102,99,cs),
(139,28,o),
(207,-5,o),
(314,-7,c),
(298,-32,o),
(288,-63,o),
(288,-100,cs),
(288,-110,o),
(289,-121,o),
(290,-130,cs),
(296,-158,o),
(314,-181,o),
(345,-202,cs),
(372,-220,o),
(393,-228,o),
(415,-222,cs)
);
}
);
width = 622;
}
);
metricLeft = U;
metricRight = U;
unicode = 370;
},
{
color = 6;
glyphname = V;
kernLeft = V;
kernRight = V;
layers = (
{
anchors = (
{
name = bottom;
pos = (343,0);
},
{
name = top;
pos = (343,680);
}
);
layerId = "BC735296-CD3A-4FA4-9AA9-EE2D747BC69E";
shapes = (
{
closed = 1;
nodes = (
(324,17,l),
(333,14,l),
(336,24,l),
(343,28,l),
(342,30,o),
(341,32,o),
(340,35,c),
(361,98,o),
(382,165,o),
(403,229,cs),
(415,266,o),
(420,304,o),
(434,338,cs),
(471,423,o),
(523,516,o),
(558,612,cs),
(560,619,o),
(568,634,o),
(568,646,c),
(498,646,l),
(498,667,o),
(501,665,o),
(492,640,cs),
(463,559,o),
(412,467,o),
(370,370,cs),
(353,329,o),
(347,287,o),
(336,254,cs),
(324,216,o),
(311,178,o),
(299,138,c),
(288,161,o),
(278,181,o),
(271,199,cs),
(264,219,o),
(261,241,o),
(253,267,cs),
(222,370,o),
(195,464,o),
(175,564,cs),
(173,578,o),
(163,643,o),
(163,646,c),
(93,646,l),
(93,634,o),
(105,559,o),
(107,549,cs),
(127,443,o),
(155,345,o),
(186,243,cs),
(193,220,o),
(197,196,o),
(205,172,cs),
(218,134,o),
(237,102,o),
(252,69,cs),
(263,43,o),
(268,17,o),
(280,-7,c)
);
}
);
width = 566;
}
);
unicode = 86;
},
{
color = 6;
glyphname = W;
kernLeft = V;
kernRight = V;
layers = (
{
anchors = (
{
name = bottom;
pos = (414,0);
},
{
name = top;
pos = (464,650);
}
);
layerId = "BC735296-CD3A-4FA4-9AA9-EE2D747BC69E";
shapes = (
{
closed = 1;
nodes = (
(663,-46,o),
(681,-29,o),
(701,16,cs),
(720,60,o),
(735,108,o),
(748,155,cs),
(785,282,o),
(819,413,o),
(854,540,cs),
(863,572,o),
(871,602,o),
(881,637,c),
(814,659,l),
(805,626,o),
(796,596,o),
(787,561,cs),
(751,434,o),
(718,304,o),
(681,177,cs),
(671,142,o),
(663,116,o),
(655,92,c),
(647,114,o),
(637,143,o),
(624,181,cs),
(567,353,o),
(519,486,o),
(502,659,c),
(433,651,l),
(438,597,o),
(446,546,o),
(456,497,c),
(409,394,o),
(381,290,o),
(336,187,cs),
(327,166,o),
(316,145,o),
(305,122,c),
(299,147,o),
(291,171,o),
(285,193,cs),
(253,302,o),
(221,410,o),
(200,511,cs),
(188,566,o),
(174,615,o),
(160,666,c),
(93,646,l),
(107,592,o),
(120,545,o),
(131,495,cs),
(154,387,o),
(186,280,o),
(216,177,cs),
(233,122,o),
(248,69,o),
(252,22,c),
(251,13,o),
(251,-4,o),
(256,-14,c),
(324,-4,l),
(324,-2,o),
(325,0,o),
(326,2,cs),
(332,15,o),
(337,25,o),
(343,37,cs),
(361,74,o),
(381,112,o),
(400,155,cs),
(433,231,o),
(457,306,o),
(485,381,c),
(506,307,o),
(531,234,o),
(557,156,cs),
(594,45,o),
(615,-8,o),
(635,-24,cs)
);
},
{
closed = 1;
nodes = (
(257,20,o),
(257,20,o),
(258,21,cs),
(257,19,ls)
);
}
);
width = 920;
}
);
metricLeft = V;
unicode = 87;
},
{
color = 6;
glyphname = X;
layers = (
{
anchors = (
{
name = bottom;
pos = (308,0);
},
{
name = top;
pos = (308,680);
}
);
layerId = "BC735296-CD3A-4FA4-9AA9-EE2D747BC69E";
shapes = (
{
closed = 1;
nodes = (
(141,-1,o),
(156,34,o),
(170,58,cs),
(198,104,o),
(228,153,o),
(262,198,cs),
(280,222,o),
(298,246,o),
(317,270,c),
(333,249,o),
(347,227,o),
(362,209,cs),
(407,153,o),
(450,99,o),
(490,44,cs),
(506,21,o),
(523,2,o),
(532,-15,c),
(594,21,l),
(579,52,o),
(559,74,o),
(546,91,cs),
(503,151,o),
(458,207,o),
(416,259,cs),
(399,281,o),
(385,302,o),
(370,321,cs),
(368,324,o),
(365,327,o),
(363,331,c),
(403,383,o),
(443,439,o),
(479,499,cs),
(497,529,o),
(546,566,o),
(567,627,c),
(500,653,l),
(488,618,o),
(447,586,o),
(419,540,cs),
(388,488,o),
(352,438,o),
(314,388,c),
(308,394,o),
(303,401,o),
(299,407,cs),
(263,461,o),
(236,518,o),
(205,573,cs),
(183,613,o),
(157,640,o),
(145,664,c),
(83,627,l),
(102,589,o),
(129,562,o),
(144,534,cs),
(176,477,o),
(205,416,o),
(241,363,cs),
(250,350,o),
(259,338,o),
(268,327,c),
(247,301,o),
(226,274,o),
(206,246,cs),
(172,201,o),
(140,149,o),
(110,99,cs),
(96,74,o),
(85,50,o),
(68,33,c),
(117,-24,l)
);
}
);
width = 616;
}
);
unicode = 88;
},
{
color = 6;
glyphname = Y;
layers = (
{
anchors = (
{
name = bottom;
pos = (307,0);
},
{
name = top;
pos = (307,630);
},
{
name = topleft;
pos = (24,680);
}
);
layerId = "BC735296-CD3A-4FA4-9AA9-EE2D747BC69E";
shapes = (
{
closed = 1;
nodes = (
(358,-1,l),
(358,64,o),
(350,126,o),
(348,187,cs),
(347,199,o),
(352,218,o),
(353,244,c),
(372,274,o),
(390,307,o),
(409,340,cs),
(429,373,o),
(456,407,o),
(479,452,cs),
(512,514,o),
(514,564,o),
(551,603,c),
(501,658,l),
(455,611,o),
(442,536,o),
(417,489,cs),
(400,455,o),
(373,420,o),
(349,381,cs),
(340,365,o),
(330,348,o),
(320,331,c),
(310,348,o),
(298,369,o),
(283,393,cs),
(249,448,o),
(214,497,o),
(188,545,cs),
(171,578,o),
(155,636,o),
(118,674,c),
(68,618,l),
(96,589,o),
(104,550,o),
(126,507,cs),
(157,449,o),
(192,401,o),
(223,351,cs),
(225,347,o),
(257,297,o),
(280,260,c),
(306,260,l),
(327,244,l),
(283,238,l),
(283,222,o),
(277,210,o),
(278,184,cs),
(280,121,o),
(288,60,o),
(288,-1,c)
);
}
);
width = 546;
}
);
unicode = 89;
},
{
color = 6;
glyphname = Z;
layers = (
{
anchors = (
{
name = bottom;
pos = (421,0);
},
{
name = top;
pos = (361.01,650);
}
);
layerId = "BC735296-CD3A-4FA4-9AA9-EE2D747BC69E";
shapes = (
{
closed = 1;
nodes = (
(1186,-340,o),
(1246,-304,o),
(1261,-247,c),
(1260,-246,l),
(1263,-236,o),
(1265,-221,o),
(1262,-205,cs),
(1259,-188,o),
(1251,-172,o),
(1249,-165,c),
(1183,-184,l),
(1187,-198,o),
(1192,-207,o),
(1196,-215,c),
(1196,-216,o),
(1195,-216,o),
(1196,-222,cs),
(1199,-245,o),
(1151,-273,o),
(1113,-273,cs),
(1006,-273,o),
(895,-217,o),
(791,-167,cs),
(751,-148,o),
(713,-129,o),
(684,-104,cs),
(643,-70,o),
(592,-44,o),
(538,-9,cs),
(469,35,o),
(399,77,o),
(323,93,cs),
(288,101,o),
(261,102,o),
(238,102,cs),
(193,102,o),
(158,96,o),
(124,84,c),
(129,88,o),
(132,90,o),
(131,90,c),
(234,176,o),
(311,280,o),
(396,384,cs),
(441,439,o),
(507,478,o),
(546,553,cs),
(549,558,o),
(551,563,o),
(553,568,c),
(564,570,o),
(573,573,o),
(582,573,cs),
(615,573,o),
(658,571,o),
(645,648,c),
(644,650,o),
(646,652,o),
(642,666,c),
(618,676,l),
(617,676,o),
(618,677,o),
(616,677,c),
(604,695,l),
(586.005,695,o),
(580,684,o),
(561,673,cs),
(547,665,o),
(535,655,o),
(525,645,c),
(524,645,o),
(523,645,o),
(522,645,cs),
(521,645,ls),
(507,646,o),
(495,636,o),
(484,636,cs),
(450,636,o),
(421,636,o),
(396,640,cs),
(354,649,o),
(297,656,o),
(251,656,cs),
(220.992,656,o),
(199,652,o),
(184,644,cs),
(129,616,o),
(95,586,o),
(100,512,cs),
(100,507,o),
(99,491,o),
(103,472,cs),
(106,455,o),
(120,450,o),
(130,440,c),
(161,486,l),
(171,478,o),
(173,470,o),
(171,484,cs),
(170,490,o),
(169,501,o),
(167,513,cs),
(163,551,o),
(176,569,o),
(208,582,cs),
(219,587,o),
(235,586,o),
(252,586,cs),
(298,586,o),
(350,576,o),
(386,570,cs),
(419,564,o),
(449,565,o),
(475,566,c),
(442,520,o),
(384,480,o),
(346,434,cs),
(264,332,o),
(185,227,o),
(85,142,cs),
(61,122,o),
(-26,62,o),
(-14,-7,c),
(18,15,l),
(28,-34,l),
(42,-34,o),
(98,0,o),
(109,6,cs),
(152,34,o),
(191,35,o),
(240,35,cs),
(265,35,o),
(288,32,o),
(311,26,cs),
(382,8,o),
(438,-31,o),
(501,-71,cs),
(557,-107,o),
(606,-132,o),
(640,-161,cs),
(678,-193,o),
(723,-212,o),
(762,-232,cs),
(866,-286,o),
(999,-340,o),
(1115,-340,cs)
);
},
{
closed = 1;
nodes = (
(610,677,l),
(610,677,o),
(611,677,o),
(611,677,c),
(610,676,l)
);
}
);
width = 639;
}
);
unicode = 90;
},
{
color = 6;
glyphname = Q.ss01;
kernLeft = O;
kernRight = O;
layers = (
{
anchors = (
{
name = bottom;
pos = (361,0);
},
{
name = top;
pos = (361,680);
}
);
layerId = "BC735296-CD3A-4FA4-9AA9-EE2D747BC69E";
shapes = (
{
closed = 1;
nodes = (
(878,-267,o),
(941,-267,o),
(1002,-267,cs),
(1038,-267,ls),
(1073,-267,o),
(1096,-265,o),
(1119,-259,cs),
(1154,-250,o),
(1199,-224,o),
(1224,-199,c),
(1237,-179,l),
(1186,-149,l),
(1173,-162,o),
(1132,-183,o),
(1106,-189,cs),
(1090,-193,o),
(1069,-195,o),
(1038,-195,cs),
(1026,-195,o),
(1014,-195,o),
(1002,-195,cs),
(816,-195,ls),
(701,-195,o),
(589,-172,o),
(503,-130,cs),
(456,-107,o),
(413,-73,o),
(367,-46,c),
(374,-42,o),
(382,-37,o),
(392,-29,cs),
(403,-19,o),
(423,-2,o),
(437,21,cs),
(446,35,o),
(456,54,o),
(447,46,cs),
(489,88,o),
(538,178,o),
(555,246,cs),
(562,275,o),
(566,315,o),
(566,355,cs),
(566,435,o),
(550,514,o),
(524,556,cs),
(482,626,o),
(429,658,o),
(353,658,cs),
(322,658,o),
(287,653,o),
(237,640,cs),
(192,629,o),
(99,519,o),
(83,458,cs),
(81,450,o),
(80,438,o),
(80,427,cs),
(80,414,o),
(82,397,o),
(85,379,cs),
(95,316,o),
(148,278,o),
(221,278,cs),
(239,278,o),
(255,280,o),
(272,285,cs),
(293,291,o),
(360,301,o),
(360,366,c),
(306,366,l),
(306,372,o),
(270,348,o),
(257,344,cs),
(248,341,o),
(234,340,o),
(221,340,cs),
(176,340,o),
(142,368,o),
(138,391,cs),
(136,403,o),
(134,416,o),
(134,427,cs),
(134,434,o),
(134,435,o),
(135,439,cs),
(145,474,o),
(222,563,o),
(250,570,cs),
(293,581,o),
(325,586,o),
(353,586,cs),
(411,586,o),
(451,564,o),
(478,519,cs),
(500,483,o),
(512,425,o),
(512,355,cs),
(512,320,o),
(509,289,o),
(502,263,cs),
(489,208,o),
(447,135,o),
(408,96,cs),
(400,88,o),
(392,60,o),
(392,59,c),
(388,53,o),
(379,45,o),
(357,26,cs),
(354,23,o),
(340,18,o),
(322,4,cs),
(316,-1,o),
(309,-7,o),
(303,-13,c),
(299,-12,o),
(296,-11,o),
(293,-10,cs),
(277,-4,o),
(258,-1,o),
(237,-1,cs),
(165,-1,o),
(109,-26,o),
(86,-74,cs),
(83,-80,o),
(81,-94,o),
(81,-106,cs),
(81,-162,o),
(106,-198,o),
(151,-198,cs),
(162,-198,o),
(175,-196,o),
(192,-191,cs),
(227,-181,o),
(273,-133,o),
(312,-93,c),
(370,-122,o),
(420,-165,o),
(479,-194,cs),
(575,-241,o),
(694,-267,o),
(816,-267,cs)
);
},
{
closed = 1;
nodes = (
(135,-126,o),
(135,-126,o),
(135,-106,cs),
(135,-106,o),
(135,-105,o),
(135,-105,cs),
(135,-105,ls),
(141,-91,o),
(191,-73,o),
(237,-73,cs),
(239,-73,o),
(241,-73,o),
(243,-73,c),
(219,-96,o),
(196,-117,o),
(177,-122,cs),
(168,-124,o),
(158,-126,o),
(151,-126,cs)
);
}
);
width = 655;
}
);
},
{
color = 6;
glyphname = a;
kernLeft = a;
kernRight = a;
layers = (
{
anchors = (
{
name = bottom;
pos = (68,-10);
},
{
name = center;
pos = (153,253);
},
{
name = ogonek;
pos = (370,0);
},
{
name = top;
pos = (242,510);
},
{
name = topright;
pos = (451,505);
}
);
layerId = "BC735296-CD3A-4FA4-9AA9-EE2D747BC69E";
shapes = (
{
closed = 1;
nodes = (
(326,-24,o),
(340,-24,o),
(356,-11,cs),
(387,15,o),
(413,55,o),
(438,90,cs),
(448,102,o),
(452,116,o),
(462,126,cs),
(466,130,o),
(470,141,o),
(470,147,c),
(450,147,l),
(427,183,l),
(424,183,l),
(421,180,o),
(396,139,o),
(395,138,cs),
(366,98,o),
(355,83,o),
(343,70,c),
(346,148,o),
(369,247,o),
(382,315,cs),
(389,352,o),
(392,388,o),
(401,424,cs),
(404,436,o),
(407,454,o),
(409,469,c),
(409,469,l),
(411,484,o),
(409,499,o),
(409,500,cs),
(409,508,o),
(395,503,o),
(327,502,cs),
(325,502,l),
(325,493,o),
(318,475,o),
(306,452,c),
(270,478,o),
(219,516,o),
(181,516,cs),
(173,516,o),
(166,515,o),
(158,511,cs),
(89,476,o),
(42,326,o),
(32,255,cs),
(26,213,o),
(27,169,o),
(27,128,cs),
(27,107,o),
(52,-13,o),
(75,-21,cs),
(85,-24,o),
(100,-9,o),
(126,28,cs),
(142,52,o),
(163,76,o),
(183,105,cs),
(216,155,o),
(240,210,o),
(270,264,cs),
(280,282,o),
(298,310,o),
(315,341,c),
(317,340,o),
(318,340,o),
(320,339,c),
(323,339,l),
(330,368,l),
(332,372,o),
(335,376,o),
(337,381,c),
(334,364,o),
(332,347,o),
(329,330,cs),
(316,263,o),
(287,141,o),
(287,49,cs),
(287,27,o),
(286,0,o),
(296,-19,cs),
(301,-30,o),
(310,-31,o),
(324,-24,c)
);
},
{
closed = 1;
nodes = (
(93,55,l),
(93,55,l),
(93,55,l)
);
},
{
closed = 1;
nodes = (
(87,103,o),
(82,120,o),
(80,128,c),
(81,128,l),
(81,170,o),
(80,206,o),
(86,243,cs),
(95,301,o),
(128,432,o),
(179,462,c),
(177,456,o),
(177,436,o),
(181,436,cs),
(207,436,o),
(239,407,o),
(267,380,c),
(251,352,o),
(234,324,o),
(223,304,cs),
(194,253,o),
(176,207,o),
(138,151,cs),
(129,138,o),
(112,118,o),
(90,87,c)
);
}
);
width = 507;
}
);
unicode = 97;
},
{
color = 6;
glyphname = aogonek;
kernLeft = a;
layers = (
{
anchors = (
{
name = bottom;
pos = (68,-10);
},
{
name = center;
pos = (153,253);
},
{
name = ogonek;
pos = (370,0);
},
{
name = top;
pos = (242,510);
},
{
name = topright;
pos = (451,505);
}
);
layerId = "BC735296-CD3A-4FA4-9AA9-EE2D747BC69E";
shapes = (
{
closed = 1;
nodes = (
(373,-226,o),
(390,-207,o),
(408,-194,c),
(376,-136,l),
(357,-149,o),
(352,-157,o),
(342,-161,cs),
(335,-163,o),
(322,-159,o),
(312,-152,cs),
(300,-144,o),
(286,-132,o),
(280,-126,c),
(279,-121,o),
(279,-116,o),
(279,-110,cs),
(279,-80,o),
(289,-49,o),
(305,-28,c),
(309,-30,o),
(316,-28,o),
(324,-24,c),
(326,-24,o),
(340,-24,o),
(356,-11,cs),
(387,15,o),
(413,55,o),
(438,90,cs),
(448,102,o),
(452,116,o),
(462,126,cs),
(466,130,o),
(470,141,o),
(470,147,c),
(450,147,l),
(427,183,l),
(424,183,l),
(421,180,o),
(396,139,o),
(395,138,cs),
(366,98,o),
(355,83,o),
(342,70,c),
(346,148,o),
(369,247,o),
(382,315,cs),
(389,352,o),
(392,388,o),
(401,424,cs),
(404,435,o),
(406,454,o),
(409,469,cs),
(411,484,o),
(409,499,o),
(409,500,cs),
(409,508,o),
(395,503,o),
(327,502,cs),
(325,502,l),
(325,493,o),
(317,475,o),
(306,452,c),
(270,478,o),
(219,516,o),
(181,516,cs),
(173,516,o),
(166,515,o),
(158,511,cs),
(89,476,o),
(42,326,o),
(32,255,cs),
(26,213,o),
(27,169,o),
(27,128,cs),
(27,107,o),
(52,-13,o),
(75,-21,cs),
(85,-24,o),
(100,-9,o),
(126,28,cs),
(142,52,o),
(163,76,o),
(183,105,cs),
(216,155,o),
(240,210,o),
(270,264,cs),
(281,282,o),
(298,310,o),
(315,341,c),
(317,340,o),
(318,339,o),
(320,339,cs),
(323,339,l),
(329,366,l),
(332,371,o),
(334,376,o),
(337,380,c),
(334,364,o),
(332,347,o),
(329,330,cs),
(316,263,o),
(287,141,o),
(287,49,cs),
(287,21,l),
(250,-3,o),
(225,-50,o),
(225,-110,cs),
(225,-119,o),
(226,-131,o),
(227,-139,cs),
(232,-167,o),
(251,-191,o),
(282,-212,cs),
(309,-229,o),
(330,-237,o),
(352,-232,cs)
);
},
{
closed = 1;
nodes = (
(87,103,o),
(83,120,o),
(80,128,c),
(81,128,l),
(81,170,o),
(80,206,o),
(86,243,cs),
(94,301,o),
(127,432,o),
(179,462,c),
(177,456,o),
(177,436,o),
(181,436,cs),
(207,436,o),
(239,407,o),
(267,380,c),
(251,352,o),
(235,324,o),
(223,304,cs),
(194,253,o),
(176,207,o),
(138,151,cs),
(129,137,o),
(112,118,o),
(90,87,c)
);
}
);
width = 507;
}
);
metricLeft = a;
metricRight = a;
unicode = 261;
},
{
color = 6;
glyphname = ae;
kernLeft = a;
layers = (
{
anchors = (
{
name = bottom;
pos = (419,0);
},
{
name = top;
pos = (419,500);
}
);
layerId = "BC735296-CD3A-4FA4-9AA9-EE2D747BC69E";
shapes = (
{
closed = 1;
nodes = (
(472,-4,o),
(502,11,o),
(539,41,cs),
(549,50,o),
(576,74,o),
(588,95,c),
(544,135,l),
(546,137,o),
(530,122,o),
(507,103,cs),
(486,85,o),
(465,76,o),
(446,76,cs),
(418,76,o),
(405,101,o),
(384,164,cs),
(380,174,o),
(377,185,o),
(374,196,c),
(390,202,o),
(408,209,o),
(432,218,cs),
(509,246,o),
(616,350,o),
(616,452,cs),
(616,459,o),
(615,468,o),
(614,476,cs),
(609,505,o),
(572,519,o),
(520,519,cs),
(514,519,o),
(509,519,o),
(503,518,cs),
(480,514,o),
(443,487,o),
(421,459,cs),
(394,424,o),
(373,388,o),
(354,346,cs),
(349,334,o),
(345,320,o),
(342,306,c),
(336,326,o),
(329,346,o),
(323,366,c),
(336,390,o),
(350,421,o),
(350,445,c),
(300,445,l),
(300,443,o),
(298,439,o),
(296,433,c),
(279,460,ls),
(269,474,o),
(265,480,o),
(266,478,c),
(221,512,l),
(158,495,o),
(56,379,o),
(45,330,cs),
(38,301,o),
(33,260,o),
(29,227,cs),
(23,190,o),
(23,148,o),
(23,112,cs),
(23,110,o),
(16,81,o),
(16,57,cs),
(16,-1,o),
(46,-31,o),
(87,0,cs),
(121,25,o),
(180,138,o),
(206,182,cs),
(233,228,o),
(252,245,o),
(287,305,c),
(291,290,o),
(296,276,o),
(300,261,c),
(295,261,o),
(291,261,o),
(286,261,c),
(286,181,l),
(299,181,o),
(311,182,o),
(322,183,c),
(326,168,o),
(331,153,o),
(336,138,cs),
(368,47,o),
(401,-4,o),
(446,-4,cs)
);
},
{
closed = 1;
nodes = (
(57,64,o),
(57,64,o),
(57,64,cs),
(57,64,ls)
);
},
{
closed = 1;
nodes = (
(70,86,o),
(73,102,o),
(73,112,cs),
(73,148,o),
(73,182,o),
(78,216,cs),
(83,247,o),
(87,282,o),
(94,312,cs),
(102,347,o),
(179,415,o),
(225,432,c),
(232,423,o),
(236,416,o),
(239,412,cs),
(252,399,l),
(255,391,o),
(259,383,o),
(262,376,c),
(259,371,o),
(256,367,o),
(255,365,cs),
(245,348,o),
(202,289,o),
(163,223,cs),
(143,189,o),
(102,109,o),
(68,74,c)
);
},
{
closed = 1;
nodes = (
(233,434,l),
(232,434,l)
);
},
{
closed = 1;
nodes = (
(392,294,o),
(396,304,o),
(400,314,cs),
(413,344,o),
(430,371,o),
(460,409,cs),
(465,415,o),
(489,435,o),
(513,439,c),
(520,439,ls),
(543,439,o),
(556,436,o),
(563,434,c),
(550,384,o),
(485,319,o),
(415,293,cs),
(406,289,o),
(397,286,o),
(389,283,c)
);
}
);
width = 641;
}
);
unicode = 230;
},
{
color = 6;
glyphname = b;
kernRight = o;
layers = (
{
layerId = "BC735296-CD3A-4FA4-9AA9-EE2D747BC69E";
shapes = (
{
closed = 1;
nodes = (
(348,-28,o),
(462,193,o),
(484,297,cs),
(490,324,o),
(499,359,o),
(499,393,cs),
(499,415,o),
(495,436,o),
(487,451,cs),
(459,504,o),
(409,514,o),
(367,531,cs),
(352,537,o),
(351,527,o),
(312,475,cs),
(264,411,o),
(224,339,o),
(184,268,cs),
(177,255,o),
(170,242,o),
(164,229,c),
(185,331,o),
(188,365,o),
(214,490,cs),
(228,559,o),
(236,603,o),
(239,618,c),
(240,629,l),
(234,689,l),
(233,689,l),
(181,709,l),
(149,709,o),
(94,707,o),
(84,707,cs),
(82,707,l),
(82,626,l),
(84,626,ls),
(103,626,o),
(146,628,o),
(185,629,c),
(160,506,ls),
(132,370,o),
(132,343,o),
(102,206,cs),
(92,158,o),
(93,111,o),
(80,70,cs),
(77,61,o),
(74,53,o),
(73,49,c),
(80,39,ls),
(82,37,o),
(86,34,o),
(87,33,c),
(86,33,l),
(87,16,l),
(89,16,l),
(101,10,o),
(115,9,o),
(123,6,cs),
(155,-7,o),
(191,-28,o),
(230,-28,cs)
);
},
{
closed = 1;
nodes = (
(199,53,o),
(169,70,o),
(144,80,cs),
(143,81,o),
(141,81,o),
(140,82,c),
(141,84,o),
(141,86,o),
(141,88,c),
(159,94,o),
(179,117,o),
(195,157,cs),
(203,175,o),
(213,196,o),
(231,228,cs),
(264,287,o),
(323,377,o),
(373,446,c),
(410,432,o),
(433,424,o),
(439,413,cs),
(442,408,o),
(444,405,o),
(445,403,c),
(445,401,o),
(445,397,o),
(445,393,cs),
(445,373,o),
(438,348,o),
(431,314,cs),
(413,228,o),
(322,53,o),
(230,53,cs)
);
}
);
width = 507;
}
);
unicode = 98;
},
{
color = 6;
glyphname = c;
kernLeft = o;
layers = (
{
anchors = (
{
name = bottom;
pos = (139,-10);
},
{
name = center;
pos = (139,253);
},
{
name = ogonek;
pos = (226,10);
},
{
name = top;
pos = (215,500);
},
{
name = topright;
pos = (405,505);
}
);
layerId = "BC735296-CD3A-4FA4-9AA9-EE2D747BC69E";
shapes = (
{
closed = 1;
nodes = (
(206,-20,o),
(237,-5,o),
(271,26,cs),
(288,43,o),
(311,59,o),
(329,85,c),
(288,132,l),
(285,132,l),
(280,126,o),
(264,114,o),
(234,86,cs),
(234,86,ls),
(216,69,o),
(195,61,o),
(175,61,cs),
(163,61,o),
(151,63,o),
(143,67,cs),
(126,78,o),
(115,73,o),
(111,69,c),
(107,116,l),
(99,151,o),
(91,176,o),
(88,192,c),
(88,203,o),
(87,213,o),
(87,223,cs),
(87,279,o),
(99,329,o),
(126,382,cs),
(147,422,o),
(183,448,o),
(218,448,cs),
(232,448,o),
(248,444,o),
(257,437,cs),
(276,425,o),
(283,419,o),
(289,412,c),
(285,402,o),
(280,384,o),
(280,361,c),
(334,361,l),
(334,373,o),
(346,392,o),
(346,416,cs),
(346,424,o),
(345,433,o),
(341,442,cs),
(328,468,o),
(312,487,o),
(289,503,cs),
(265,520,o),
(242,528,o),
(218,528,cs),
(166,528,o),
(114,487,o),
(78,419,cs),
(50,366,o),
(32,292,o),
(32,223,cs),
(32,210,o),
(33,197,o),
(34,179,c),
(39,150,o),
(48,121,o),
(54,97,cs),
(56,89,o),
(54,57,o),
(64,42,cs),
(72,27,o),
(82,19,o),
(108,2,cs),
(131,-12,o),
(152,-20,o),
(175,-20,cs)
);
}
);
width = 383;
}
);
unicode = 99;
},
{
color = 6;
glyphname = ccedilla;
kernLeft = o;
layers = (
{
anchors = (
{
name = bottom;
pos = (139,-230);
},
{
name = center;
pos = (139,253);
},
{
name = ogonek;
pos = (226,10);
},
{
name = top;
pos = (215,500);
},
{
name = topright;
pos = (405,505);
}
);
layerId = "BC735296-CD3A-4FA4-9AA9-EE2D747BC69E";
shapes = (
{
closed = 1;
nodes = (
(169,-233,o),
(232,-212,o),
(244,-170,cs),
(247,-158,o),
(250,-144,o),
(250,-132,cs),
(250,-84,o),
(229,-55,o),
(170,-55,cs),
(167,-55,o),
(165,-55,o),
(162,-56,c),
(163,-53,l),
(167,-46,o),
(170,-33,o),
(174,-20,c),
(175,-20,ls),
(206,-20,o),
(237,-5,o),
(271,26,cs),
(288,43,o),
(311,59,o),
(329,85,c),
(288,132,l),
(285,132,l),
(280,126,o),
(264,114,o),
(234,86,cs),
(216,69,o),
(195,61,o),
(175,61,cs),
(163,61,o),
(151,63,o),
(143,67,cs),
(126,78,o),
(116,73,o),
(111,69,c),
(107,116,l),
(99,151,o),
(91,176,o),
(88,192,c),
(88,203,o),
(87,213,o),
(87,223,cs),
(87,279,o),
(99,329,o),
(126,382,cs),
(147,422,o),
(183,448,o),
(218,448,cs),
(232,448,o),
(248,444,o),
(257,437,cs),
(276,425,o),
(283,419,o),
(289,412,c),
(285,402,o),
(280,384,o),
(280,361,c),
(334,361,l),
(334,373,o),
(346,392,o),
(346,416,cs),
(346,424,o),
(345,433,o),
(341,442,cs),
(328,468,o),
(312,487,o),
(289,503,cs),
(265,520,o),
(242,528,o),
(218,528,cs),
(166,528,o),
(114,487,o),
(78,419,cs),
(50,366,o),
(32,292,o),
(32,223,cs),
(32,210,o),
(33,197,o),
(34,179,c),
(39,150,o),
(48,121,o),
(54,97,cs),
(56,89,o),
(54,57,o),
(64,42,cs),
(72,27,o),
(82,19,o),
(108,2,cs),
(111,0,o),
(114,-2,o),
(117,-3,c),
(116,-5,o),
(115,-8,o),
(114,-10,cs),
(113,-12,o),
(109,-22,o),
(102,-38,cs),
(84,-79,o),
(112,-126,o),
(145,-117,cs),
(151,-116,o),
(162,-115,o),
(170,-115,cs),
(181,-115,o),
(196,-123,o),
(196,-132,cs),
(196,-136,o),
(195,-147,o),
(192,-157,c),
(147,-164,o),
(87,-174,o),
(88,-174,cs),
(77,-174,o),
(71,-173,o),
(75,-175,c),
(73,-174,o),
(64,-172,o),
(64,-171,c),
(14,-192,l),
(23,-214,o),
(36,-219,o),
(53,-227,cs),
(63,-231,o),
(73,-233,o),
(88,-233,cs)
);
}
);
width = 383;
}
);
unicode = 231;
},
{
color = 6;
glyphname = d;
kernLeft = o;
kernRight = d;
layers = (
{
anchors = (
{
name = bottom;
pos = (153,-10);
},
{
name = center;
pos = (156,253);
},
{
name = ogonek;
pos = (341,0);
},
{
name = top;
pos = (149,515);
},
{
name = topright;
pos = (454,505);
}
);
layerId = "BC735296-CD3A-4FA4-9AA9-EE2D747BC69E";
shapes = (
{
closed = 1;
nodes = (
(168,-29,l),
(169,-29,l),
(224,23,o),
(259,118,o),
(292,182,cs),
(293,186,o),
(310,212,o),
(324,238,c),
(320,207,o),
(316,176,o),
(313,142,cs),
(312,132,o),
(306,97,o),
(306,64,cs),
(306,10,o),
(322,-18,o),
(349,-15,cs),
(356,-15,o),
(454,106,o),
(486,140,c),
(451,186,l),
(448,186,l),
(437,176,o),
(392,126,o),
(362,90,c),
(363,101,o),
(364,114,o),
(367,125,cs),
(400,302,o),
(402,415,o),
(443,548,cs),
(472,643,o),
(489,682,o),
(436,695,cs),
(437,695,l),
(428,715,l),
(426,715,l),
(425,715,ls),
(395,715,o),
(360,721,o),
(329,715,cs),
(265,703,o),
(314,659,o),
(308,651,c),
(308,624,o),
(328,635,o),
(329,635,cs),
(410,635,l),
(401,609,o),
(392,577,o),
(390,568,cs),
(363,467,o),
(345,382,o),
(331,291,c),
(294,291,l),
(294,309,o),
(276,285,o),
(247,225,cs),
(218,169,o),
(198,115,o),
(165,67,c),
(143,107,o),
(119,152,o),
(108,176,cs),
(96,201,o),
(91,222,o),
(91,254,cs),
(91,286,o),
(96,310,o),
(112,345,cs),
(117,355,o),
(129,367,o),
(152,398,cs),
(171,426,o),
(177,434,o),
(192,446,c),
(226,445,o),
(307,394,o),
(337,394,cs),
(339,394,l),
(339,475,l),
(337,475,ls),
(316,475,o),
(232,526,o),
(192,526,cs),
(183,526,o),
(178,525,o),
(174,521,c),
(155,508,o),
(139,489,o),
(114,454,c),
(114,454,l),
(97,431,o),
(77,411,o),
(63,379,cs),
(46,342,o),
(36,296,o),
(36,254,cs),
(36,207,o),
(47,161,o),
(66,126,c),
(66,126,l),
(86,86,o),
(105,51,o),
(126,13,cs),
(131,3,o),
(147,-29,o),
(166,-29,cs)
);
}
);
width = 524;
}
);
unicode = 100;
},
{
color = 6;
glyphname = eth;
layers = (
{
layerId = "BC735296-CD3A-4FA4-9AA9-EE2D747BC69E";
shapes = (
{
closed = 1;
nodes = (
(314,-10,o),
(367,71,o),
(434,166,cs),
(478,230,o),
(492,331,o),
(492,420,cs),
(492,499,o),
(476,562,o),
(447,612,c),
(467,623,o),
(489,635,o),
(511,648,c),
(483,716,l),
(457,700,o),
(429,686,o),
(400,672,c),
(366,705,o),
(324,731,o),
(276,752,c),
(255,678,l),
(282,666,o),
(306,651,o),
(327,633,c),
(304,619,o),
(282,605,o),
(260,587,c),
(294,524,l),
(319,544,o),
(347,560,o),
(379,577,c),
(417,524,o),
(438,465,o),
(438,420,cs),
(438,342,o),
(420,268,o),
(386,203,cs),
(361,156,o),
(283,70,o),
(258,68,cs),
(229,65,o),
(199,68,o),
(175,80,cs),
(90,121,o),
(99,126,o),
(96,221,cs),
(96,237,o),
(95,254,o),
(95,270,cs),
(95,314,o),
(99,342,o),
(110,367,cs),
(126,403,o),
(186,426,o),
(215,426,cs),
(226,426,o),
(340,374,o),
(370,347,c),
(406,406,l),
(377,433,o),
(318,465,o),
(293,479,cs),
(267,495,o),
(250,496,o),
(225,496,cs),
(155,496,o),
(92,470,o),
(61,399,cs),
(48,370,o),
(41,324,o),
(41,270,cs),
(41,252,o),
(42,233,o),
(42,219,cs),
(45,123,o),
(38,64,o),
(151,8,cs),
(191,-12,o),
(230,-18,o),
(258,-15,cs)
);
}
);
width = 525;
}
);
unicode = 240;
},
{
color = 3;
glyphname = dcaron;
kernLeft = o;
layers = (
{
layerId = "BC735296-CD3A-4FA4-9AA9-EE2D747BC69E";
shapes = (
{
closed = 1;
nodes = (
(552,512,o),
(557,533,o),
(560,536,cs),
(569,548,o),
(576,595,o),
(578,603,cs),
(582,617,o),
(590,628,o),
(603,665,cs),
(613,692,o),
(622,711,o),
(620,776,c),
(568,781,l),
(569,746,o),
(566,734,o),
(551,694,cs),
(543,672,o),
(529,646,o),
(526,629,cs),
(523,614,o),
(522,593,o),
(514,581,cs),
(509,575,o),
(488,545,o),
(499,549,c),
(500,550,o),
(533,505,o),
(535,506,cs)
);
},
{
ref = d;
}
);
width = 523;
}
);
unicode = 271;
},
{
color = 6;
glyphname = e;
kernLeft = o;
kernRight = o;
layers = (
{
anchors = (
{
name = bottom;
pos = (246,-10);
},
{
name = ogonek;
pos = (304,5);
},
{
name = top;
pos = (211,515);
}
);
layerId = "BC735296-CD3A-4FA4-9AA9-EE2D747BC69E";
shapes = (
{
closed = 1;
nodes = (
(252,-16,o),
(268,-12,o),
(278,0,c),
(277,0,l),
(351,86,l),
(309,137,l),
(245,65,l),
(243,65,o),
(237,65,o),
(228,65,cs),
(207,65,o),
(184,69,o),
(177,70,c),
(169,76,ls),
(142,96,o),
(114,125,o),
(115,131,c),
(108,146,o),
(106,158,o),
(106,183,c),
(116,187,o),
(123,190,o),
(126,192,cs),
(209,237,o),
(279,283,o),
(340,354,cs),
(347,361,o),
(362,373,o),
(369,391,cs),
(375,405,o),
(370,421,o),
(351,442,cs),
(321,478,o),
(274,530,o),
(230,530,cs),
(220,530,o),
(210,529,o),
(199,527,cs),
(177,521,o),
(165,517,o),
(155,508,cs),
(112,469,o),
(69,350,o),
(56,245,c),
(40,239,o),
(24.008,234,o),
(20,234,cs),
(18,234,l),
(18,154,l),
(20,154,ls),
(25,154,o),
(38,158,o),
(53,163,c),
(55,131,o),
(61,102,o),
(72,82,c),
(74,81,l),
(89,56,o),
(123,19,o),
(147,2,cs),
(161,-8,o),
(196,-16,o),
(228,-16,cs)
);
},
{
closed = 1;
nodes = (
(126,349,o),
(153,434,o),
(185,466,c),
(184,458,o),
(190,444,o),
(207,448,c),
(209,449,o),
(223,450,o),
(230,450,cs),
(253,450,o),
(282,427,o),
(299,407,c),
(298,405,ls),
(231,324,o),
(178,300,o),
(113,270,c)
);
}
);
width = 405;
}
);
unicode = 101;
},
{
color = 6;
glyphname = eogonek;
kernLeft = o;
kernRight = o;
layers = (
{
anchors = (
{
name = bottom;
pos = (246,-10);
},
{
name = ogonek;
pos = (304,5);
},
{
name = top;
pos = (278,500);
}
);
layerId = "BC735296-CD3A-4FA4-9AA9-EE2D747BC69E";
shapes = (
{
closed = 1;
nodes = (
(308,-221,o),
(324,-202,o),
(342,-189,c),
(311,-131,l),
(292,-144,o),
(286,-153,o),
(277,-156,cs),
(270,-159,o),
(257,-154,o),
(247,-147,cs),
(235,-139,o),
(221,-128,o),
(215,-122,c),
(214,-116,o),
(214,-111,o),
(214,-105,cs),
(214,-71,o),
(226,-36,o),
(246,-15,c),
(260,-13,o),
(271,-8,o),
(278,0,c),
(277,0,l),
(351,86,l),
(309,137,l),
(246,65,l),
(228,65,ls),
(207,65,o),
(184,69,o),
(177,70,c),
(169,76,ls),
(142,96,o),
(114,125,o),
(115,131,c),
(108,146,o),
(106,159,o),
(106,183,c),
(116,187,o),
(124,191,o),
(126,192,cs),
(209,237,o),
(279,283,o),
(340,354,cs),
(347,361,o),
(362,373,o),
(369,391,cs),
(375,405,o),
(370,421,o),
(351,442,cs),
(321,478,o),
(274,530,o),
(230,530,cs),
(220,530,o),
(210,529,o),
(199,527,cs),
(177,521,o),
(165,517,o),
(155,508,cs),
(112,469,o),
(69,350,o),
(56,246,c),
(39,240,o),
(24,234,o),
(20,234,cs),
(18,234,l),
(18,154,l),
(20,154,ls),
(25,154,o),
(38,157,o),
(52,162,c),
(55,130,o),
(61,102,o),
(72,82,c),
(74,81,l),
(89,56,o),
(123,19,o),
(147,2,cs),
(155,-3,o),
(169,-8,o),
(185,-12,c),
(169,-36,o),
(160,-68,o),
(160,-105,cs),
(160,-115,o),
(160,-126,o),
(162,-135,cs),
(167,-163,o),
(186,-186,o),
(217,-207,cs),
(243,-225,o),
(264,-233,o),
(286,-227,cs)
);
},
{
closed = 1;
nodes = (
(125,349,o),
(152,434,o),
(185,465,c),
(185,458,o),
(191,444,o),
(207,448,c),
(209,449,o),
(223,450,o),
(230,450,cs),
(254,450,o),
(282,427,o),
(299,407,c),
(299,406,o),
(298,406,o),
(298,405,c),
(231,324,o),
(178,300,o),
(113,269,c)
);
}
);
width = 405;
}
);
metricLeft = e;
unicode = 281;
},
{
color = 6;
glyphname = f;
kernRight = f;
layers = (
{
anchors = (
{
name = bottom;
pos = (213,2);
},
{
name = top;
pos = (213,507);
}
);
layerId = "BC735296-CD3A-4FA4-9AA9-EE2D747BC69E";
shapes = (
{
closed = 1;
nodes = (
(96,-210,o),
(104,-99,o),
(115,-56,cs),
(130,-2,o),
(141,53,o),
(149,110,cs),
(164,207,o),
(169,268,o),
(186,364,cs),
(190,387,o),
(196,411,o),
(202,436,c),
(268,438,o),
(333,439,o),
(398,439,cs),
(400,439,l),
(400,509,l),
(398,509,ls),
(339,509,o),
(280,508,o),
(220,507,c),
(225,524,o),
(229,541,o),
(233,559,cs),
(237,573,o),
(249,600,o),
(255,636,c),
(259,634,o),
(263,633,o),
(266,632,cs),
(328,605,o),
(396,584,o),
(464,584,cs),
(466,584,l),
(466,664,l),
(464,664,ls),
(403,664,o),
(342,683,o),
(287,706,cs),
(271,713,o),
(263,716,o),
(234,726,cs),
(210,735,o),
(194,737,o),
(191,719,cs),
(190,709,o),
(197,703,o),
(200,701,c),
(204,697,o),
(205,695,o),
(205,686,cs),
(205,679,o),
(204,672,o),
(203,663,cs),
(201,637,o),
(188,610,o),
(181,578,cs),
(175,554,o),
(169,530,o),
(163,507,c),
(134,506,o),
(106,506,o),
(77,506,cs),
(75,506,l),
(75,435,l),
(77,435,ls),
(100,435,o),
(122,435,o),
(145,435,c),
(140,417,o),
(136,397,o),
(133,378,cs),
(115,282,o),
(110,218,o),
(96,122,cs),
(88,68,o),
(77,18,o),
(63,-35,cs),
(45,-101,o),
(51,-130,o),
(22,-130,cs),
(9,-130,o),
(-10,-124,o),
(-37,-111,cs),
(-53,-103,o),
(-67,-95,o),
(-77,-86,c),
(-80,-86,l),
(-113,-147,l),
(-89,-168,o),
(-77,-176,o),
(-60,-184,cs),
(-22,-202,o),
(2,-210,o),
(22,-210,cs)
);
}
);
width = 360;
}
);
unicode = 102;
},
{
color = 6;
glyphname = g;
kernLeft = o;
kernRight = n;
layers = (
{
anchors = (
{
name = bottom;
pos = (135,-210);
},
{
name = center;
pos = (192,255);
},
{
name = ogonek;
pos = (280,12);
},
{
name = top;
pos = (293,510);
},
{
name = topright;
pos = (458,507);
}
);
layerId = "BC735296-CD3A-4FA4-9AA9-EE2D747BC69E";
shapes = (
{
closed = 1;
nodes = (
(93,-215,o),
(128,-207,o),
(158,-203,cs),
(329,-182,o),
(368,-80,o),
(401,-18,cs),
(446,68,o),
(468,221,o),
(480,343,cs),
(481,351,o),
(481,364,o),
(481,375,cs),
(481,426,o),
(473,469,o),
(473,502,cs),
(473,560,o),
(378,554,o),
(378,496,cs),
(378,493,o),
(378,490,o),
(378,487,cs),
(378,483,ls),
(378,462,o),
(377,452,o),
(374,443,c),
(360,461,o),
(329,471,o),
(312,480,cs),
(296,488,o),
(241,519,o),
(209,519,cs),
(202,519,o),
(198,518,o),
(193,515,cs),
(92,459,o),
(65,284,o),
(49,183,cs),
(46,164,o),
(41,122,o),
(41,84,cs),
(41,46,o),
(46,20,o),
(57,9,cs),
(61,5,o),
(66,3,o),
(72,3,cs),
(105,3,o),
(161,77,o),
(165,83,cs),
(190,116,o),
(223,143,o),
(253,175,cs),
(306,232,o),
(352,298,o),
(396,361,cs),
(410,381,o),
(419,398,o),
(425,416,c),
(426,402,o),
(427,389,o),
(427,375,cs),
(427,366,o),
(426,357,o),
(426,350,cs),
(415,241,o),
(400,97,o),
(350,10,cs),
(317,-48,o),
(291,-106,o),
(151,-123,cs),
(125,-127,o),
(91,-134,o),
(61,-134,cs),
(55,-134,o),
(49,-134,o),
(45,-133,cs),
(2,-128,o),
(-32,-103,o),
(-32,-76,c),
(-87,-76,l),
(-87,-148,o),
(-34,-205,o),
(38,-213,cs),
(47,-214,o),
(53,-215,o),
(61,-215,cs)
);
},
{
closed = 1;
nodes = (
(97,124,o),
(99,149,o),
(103,171,cs),
(129,337,o),
(154,405,o),
(214,442,c),
(214,442,o),
(213,441,o),
(210,438,c),
(209,438,ls),
(232,438,o),
(280,412,o),
(287,408,cs),
(326,388,o),
(342,384,o),
(334,394,c),
(373,440,l),
(369,431,o),
(363,424,o),
(352,408,cs),
(314,354,o),
(272,293,o),
(213,231,cs),
(192,208,o),
(163,186,o),
(122,132,cs),
(114,121,o),
(105,111,o),
(96,102,c)
);
},
{
closed = 1;
nodes = (
(217,444,o),
(218,444,o),
(219,445,cs),
(218,444,o),
(217,444,o),
(216,443,cs)
);
}
);
width = 498;
}
);
unicode = 103;
},
{
color = 6;
glyphname = h;
kernLeft = n;
kernRight = n;
layers = (
{
anchors = (
{
name = bottom;
pos = (291,1);
},
{
name = center;
pos = (291,253);
},
{
name = top;
pos = (326,516);
}
);
layerId = "BC735296-CD3A-4FA4-9AA9-EE2D747BC69E";
shapes = (
{
closed = 1;
nodes = (
(365,-23,o),
(373,-15,o),
(394,8,cs),
(415,29,o),
(441,96,o),
(455,119,cs),
(486,169,o),
(498,221,o),
(498,298,cs),
(498,371,o),
(476,440,o),
(442,477,cs),
(431,489,o),
(408,525,o),
(352,534,cs),
(326,538,o),
(269,461,o),
(174,309,c),
(187,368,o),
(197,405,o),
(216,497,cs),
(224,537,o),
(230,578,o),
(239,620,cs),
(248,661,o),
(232,703,o),
(204,706,cs),
(190,708,o),
(177,709,o),
(161,709,cs),
(134,709,o),
(108,706,o),
(84,706,cs),
(82,706,l),
(82,626,l),
(84,626,ls),
(109,626,o),
(136,629,o),
(161,629,cs),
(170,629,o),
(177,629,o),
(184,628,c),
(176,591,o),
(171,553,o),
(163,516,cs),
(140,414,o),
(132,384,o),
(110,277,cs),
(102,239,o),
(96,201,o),
(89,163,c),
(38,65,o),
(20,35,o),
(37,-6,cs),
(68,-84,o),
(108,-69,o),
(123,41,cs),
(125,55,o),
(128,71,o),
(132,94,cs),
(134,106,o),
(137,118,o),
(139,130,c),
(142,136,o),
(145,141,o),
(147,144,cs),
(158,164,o),
(170,185,o),
(184,209,cs),
(239,303,o),
(340,455,o),
(346,455,cs),
(384,455,o),
(397,428,o),
(402,424,cs),
(430,396,o),
(443,354,o),
(443,298,cs),
(443,243,o),
(437,211,o),
(407,159,cs),
(390,128,o),
(373,92,o),
(354,63,c),
(351,60,o),
(348,58,o),
(341,58,cs),
(328,58,o),
(306,76,o),
(296,97,c),
(293,97,l),
(247,62,l),
(272,10,o),
(307,-23,o),
(341,-23,cs)
);
}
);
width = 525;
}
);
unicode = 104;
},
{
color = 6;
glyphname = hbar;
kernRight = n;
layers = (
{
anchors = (
{
name = _center;
pos = (138,560);
},
{
name = bottom;
pos = (291,1);
},
{
name = center;
pos = (291,253);
},
{
name = top;
pos = (326,516);
}
);
layerId = "BC735296-CD3A-4FA4-9AA9-EE2D747BC69E";
shapes = (
{
closed = 1;
nodes = (
(365,-23,o),
(373,-15,o),
(394,8,cs),
(415,29,o),
(441,96,o),
(455,119,cs),
(486,169,o),
(498,221,o),
(498,298,cs),
(498,371,o),
(476,440,o),
(442,477,cs),
(431,489,o),
(408,525,o),
(352,534,cs),
(326,538,o),
(269,461,o),
(174,309,c),
(187,368,o),
(197,405,o),
(216,497,cs),
(217,504,o),
(219,511,o),
(220,518,c),
(222,518,o),
(223,517,o),
(225,517,cs),
(237,515,o),
(247,514,o),
(260,514,cs),
(274,514,o),
(288,515,o),
(301,515,c),
(301,577,l),
(287,577,o),
(273,576,o),
(260,576,cs),
(249,576,o),
(240,577,o),
(234,578,cs),
(233,578,o),
(232,578,o),
(231,579,c),
(233,592,o),
(236,606,o),
(239,620,cs),
(248,661,o),
(232,703,o),
(204,706,cs),
(190,708,o),
(177,709,o),
(161,709,cs),
(134,709,o),
(108,706,o),
(84,706,cs),
(82,706,l),
(82,626,l),
(84,626,ls),
(109,626,o),
(136,629,o),
(161,629,cs),
(170,629,o),
(177,629,o),
(184,628,c),
(182,617,o),
(180,606,o),
(178,595,c),
(172,596,o),
(168,597,o),
(162,597,cs),
(138,597,o),
(114,590,o),
(93,589,cs),
(85,588,o),
(75,588,o),
(63,588,cs),
(36,588,o),
(9,589,o),
(-18,589,c),
(-18,527,l),
(9,527,o),
(36,526,o),
(63,526,cs),
(76,526,o),
(86,526,o),
(96,527,cs),
(119,528,o),
(142,535,o),
(162,535,cs),
(164,535,o),
(165,535,o),
(167,535,c),
(166,528,o),
(164,522,o),
(163,516,cs),
(140,414,o),
(132,384,o),
(110,277,cs),
(102,239,o),
(96,201,o),
(89,163,c),
(38,65,o),
(20,35,o),
(37,-6,cs),
(68,-84,o),
(108,-69,o),
(123,41,cs),
(125,55,o),
(128,71,o),
(132,94,cs),
(134,106,o),
(137,118,o),
(139,130,c),
(142,136,o),
(145,141,o),
(147,144,cs),
(158,164,o),
(170,185,o),
(184,209,cs),
(239,303,o),
(340,455,o),
(346,455,cs),
(384,455,o),
(397,428,o),
(402,424,cs),
(430,396,o),
(443,354,o),
(443,298,cs),
(443,243,o),
(437,211,o),
(407,159,cs),
(390,128,o),
(373,92,o),
(354,63,c),
(351,60,o),
(348,58,o),
(341,58,cs),
(328,58,o),
(306,76,o),
(296,97,c),
(293,97,l),
(247,62,l),
(272,10,o),
(307,-23,o),
(341,-23,cs)
);
}
);
width = 525;
}
);
unicode = 295;
},
{
color = 6;
glyphname = i;
layers = (
{
anchors = (
{
name = bottom;
pos = (110,0);
},
{
name = ogonek;
pos = (123,10);
},
{
name = top;
pos = (137,515);
}
);
layerId = "BC735296-CD3A-4FA4-9AA9-EE2D747BC69E";
shapes = (
{
closed = 1;
nodes = (
(104,13,o),
(135,24,o),
(172,48,c),
(145,116,l),
(129,105,o),
(107,97,o),
(83,85,c),
(87,104,o),
(93,124,o),
(98,144,cs),
(121,251,o),
(125,273,o),
(157,384,cs),
(178,458,o),
(195,499,o),
(179,514,cs),
(166,525,o),
(163,519,o),
(130,506,cs),
(93,491,o),
(77,487,o),
(53,487,c),
(53,406,l),
(72,406,o),
(88,409,o),
(111,417,c),
(110,413,o),
(109,410,o),
(108,406,cs),
(79,303,o),
(74,278,o),
(48,162,cs),
(43,138,o),
(27,93,o),
(27,47,cs),
(27,-21,o),
(61,-18,o),
(86,4,c)
);
},
{
closed = 1;
nodes = (
(171,593,l),
(199,607,o),
(208,620,o),
(236,620,cs),
(238,620,l),
(238,718,l),
(236,718,ls),
(196,718,o),
(171,695,o),
(141,680,c),
(140,680,l),
(168,593,l)
);
}
);
width = 230;
}
);
unicode = 105;
},
{
color = 6;
glyphname = idotless;
layers = (
{
anchors = (
{
name = bottom;
pos = (105,0);
},
{
name = ogonek;
pos = (121,10);
},
{
name = top;
pos = (135,510);
}
);
layerId = "BC735296-CD3A-4FA4-9AA9-EE2D747BC69E";
shapes = (
{
closed = 1;
nodes = (
(102,13,o),
(133,23,o),
(170,47,c),
(144,115,l),
(128,104,o),
(106,96,o),
(82,85,c),
(87,103,o),
(92,122,o),
(97,143,cs),
(120,248,o),
(124,271,o),
(155,380,cs),
(161,402,o),
(167,420,o),
(171,435,c),
(175,437,o),
(174,436,o),
(171,437,c),
(185,482,o),
(187,499,o),
(177,509,cs),
(164,520,o),
(161,514,o),
(129,501,cs),
(91,486,o),
(76,482,o),
(52,482,c),
(52,402,l),
(71.002,402,o),
(87,405,o),
(110,412,c),
(109,409,o),
(108,406,o),
(107,402,cs),
(78,300,o),
(73,275,o),
(48,160,cs),
(42,136,o),
(27,92,o),
(27,46,cs),
(27,-21,o),
(60,-18,o),
(85,4,c)
);
}
);
width = 228;
}
);
unicode = 305;
},
{
color = 6;
glyphname = ij;
layers = (
{
layerId = "BC735296-CD3A-4FA4-9AA9-EE2D747BC69E";
shapes = (
{
closed = 1;
nodes = (
(127,-211,o),
(170,-171,o),
(210,-135,cs),
(224,-123,o),
(234,-95,o),
(241,-84,cs),
(274,-31,o),
(301,25,o),
(327,86,cs),
(334,103,o),
(335,126,o),
(338,136,cs),
(346,162,o),
(356,181,o),
(364,222,cs),
(365,229,o),
(366,243,o),
(366,263,cs),
(366,296,o),
(364,337,o),
(364,348,cs),
(364,381,o),
(365,415,o),
(365,448,cs),
(365,455,o),
(366,472,o),
(366,485,cs),
(366,514,o),
(358,532,o),
(341,532,cs),
(318,532,o),
(300,495,o),
(238,387,cs),
(201,323,o),
(142,172,o),
(77,100,c),
(80,137,o),
(82,176,o),
(86,214,cs),
(92,270,o),
(104,317,o),
(131,383,cs),
(138,402,o),
(145,424,o),
(153,446,cs),
(172,504,o),
(167,515,o),
(141,514,cs),
(102,513,o),
(77,483,o),
(52,483,c),
(52,411,l),
(64,411,o),
(74,413,o),
(83,417,c),
(83,415,o),
(82,412,o),
(81,410,cs),
(53,342,o),
(39,285,o),
(32,221,cs),
(28,182,o),
(26,142,o),
(22,102,cs),
(22,101,o),
(12,82,o),
(12,58,cs),
(12,10,o),
(27,-13,o),
(58,2,cs),
(153,47,o),
(238,272,o),
(284,351,cs),
(291,363,o),
(301,377,o),
(310,392,c),
(310,377,o),
(310,363,o),
(310,348,cs),
(310,335,o),
(312,294,o),
(312,263,cs),
(312,248,o),
(312,239,o),
(311,235,cs),
(306,210,o),
(298,194,o),
(286,157,cs),
(278,130,o),
(284,131,o),
(277,114,cs),
(250,50,o),
(226,3,o),
(195,-45,cs),
(181,-68,o),
(188,-69,o),
(174,-81,cs),
(140,-112,o),
(103,-147,o),
(58,-169,c),
(82,-234,l)
);
},
{
closed = 1;
nodes = (
(145,593,l),
(173,607,o),
(182,620,o),
(210,620,cs),
(212,620,l),
(212,718,l),
(210,718,ls),
(170,718,o),
(146,695,o),
(115,680,c),
(114,680,l),
(142,593,l)
);
},
{
closed = 1;
nodes = (
(395,593,l),
(413,686,l),
(412,686,ls),
(410,686,o),
(369,719,o),
(344,719,cs),
(342,719,l),
(342,621,l),
(344,621,ls),
(358,621,o),
(374,598,o),
(393,593,c)
);
}
);
width = 394;
}
);
unicode = 307;
},
{
color = 6;
glyphname = iogonek;
layers = (
{
anchors = (
{
name = bottom;
pos = (110,0);
},
{
name = ogonek;
pos = (123,10);
},
{
name = top;
pos = (137,515);
}
);
layerId = "BC735296-CD3A-4FA4-9AA9-EE2D747BC69E";
shapes = (
{
closed = 1;
nodes = (
(126,-216,o),
(143,-197,o),
(161,-184,c),
(129,-126,l),
(111,-139,o),
(105,-147,o),
(95,-151,cs),
(88,-154,o),
(75,-149,o),
(65,-142,cs),
(53,-134,o),
(40,-122,o),
(33,-116,c),
(32,-111,o),
(32,-106,o),
(32,-100,cs),
(32,-65,o),
(46,-28,o),
(67,-7,c),
(75,-4,o),
(83,1,o),
(86,4,c),
(89,5,o),
(93,7,o),
(97,9,c),
(98,9,l),
(116,18,o),
(142,28,o),
(172,48,c),
(145,116,l),
(129,105,o),
(107,97,o),
(83,85,c),
(87,104,o),
(93,124,o),
(98,144,cs),
(121,251,o),
(125,273,o),
(157,384,cs),
(178,458,o),
(195,499,o),
(179,514,cs),
(166,525,o),
(163,519,o),
(130,506,cs),
(93,491,o),
(77,487,o),
(53,487,c),
(53,406,l),
(72,406,o),
(88,409,o),
(111,417,c),
(110,413,o),
(109,410,o),
(108,406,cs),
(79,303,o),
(74,278,o),
(48,162,cs),
(43,138,o),
(27,93,o),
(27,47,cs),
(27,37,o),
(28,29,o),
(29,23,c),
(-2,-4,o),
(-22,-46,o),
(-22,-100,cs),
(-22,-110,o),
(-21,-121,o),
(-20,-129,cs),
(-15,-158,o),
(4,-181,o),
(35,-202,cs),
(62,-220,o),
(83,-228,o),
(105,-222,cs)
);
},
{
closed = 1;
nodes = (
(171,593,l),
(199,607,o),
(208,620,o),
(236,620,cs),
(238,620,l),
(238,718,l),
(236,718,ls),
(196,718,o),
(171,695,o),
(141,680,c),
(140,680,l),
(168,593,l)
);
}
);
width = 230;
}
);
unicode = 303;
},
{
color = 6;
glyphname = j;
kernLeft = j;
layers = (
{
layerId = "BC735296-CD3A-4FA4-9AA9-EE2D747BC69E";
shapes = (
{
closed = 1;
nodes = (
(-79,-214,l),
(117,-159,o),
(116,-53,o),
(142,65,cs),
(158,139,o),
(161,148,o),
(180,233,cs),
(191,285,o),
(199,314,o),
(211,383,cs),
(213,404,l),
(217,273,o),
(242,499,o),
(180,518,cs),
(130,532,o),
(67,473,o),
(59,473,cs),
(57,473,l),
(57,392,l),
(59,392,ls),
(78,392,o),
(140,445,o),
(163,440,c),
(163,440,o),
(163,439,o),
(163,436,cs),
(163,431,o),
(163,426,o),
(163,422,c),
(162,416,o),
(160,408,o),
(158,397,cs),
(147,337,o),
(140,308,o),
(127,250,cs),
(109,170,o),
(106,161,o),
(88,83,cs),
(60,-45,o),
(59,-94,o),
(-94,-136,c),
(-95,-136,l),
(-81,-214,l)
);
},
{
closed = 1;
nodes = (
(232,593,l),
(249,686,l),
(248,686,ls),
(247,686,o),
(205,719,o),
(180,719,cs),
(178,719,l),
(178,621,l),
(180,621,ls),
(194,621,o),
(210,598,o),
(229,593,c)
);
}
);
width = 227;
}
);
unicode = 106;
},
{
color = 6;
glyphname = k;
kernRight = k;
layers = (
{
anchors = (
{
name = bottom;
pos = (281,0);
},
{
name = top;
pos = (281,505);
}
);
layerId = "BC735296-CD3A-4FA4-9AA9-EE2D747BC69E";
shapes = (
{
closed = 1;
nodes = (
(86,-6,o),
(90,11,o),
(91,49,cs),
(91,50,o),
(91,51,o),
(91,52,cs),
(111,96,o),
(118,110,o),
(143,148,cs),
(164,182,o),
(184,211,o),
(204,238,c),
(202,232,o),
(201,224,o),
(201,215,cs),
(201,131,o),
(265,178,o),
(278,185,cs),
(280,186,o),
(281,187,o),
(283,188,c),
(288,180,o),
(293,172,o),
(297,168,cs),
(348,110,o),
(400,30,o),
(464,-12,c),
(467,-12,l),
(495,56,l),
(494,56,l),
(428,100,o),
(385,167,o),
(339,221,c),
(340,221,ls),
(408,260,o),
(452,316,o),
(454,371,cs),
(455,381,o),
(456,395,o),
(456,411,cs),
(456,423,o),
(455,438,o),
(453,447,c),
(450,447,l),
(452,458,o),
(446,514,o),
(414,516,cs),
(371,517,o),
(340,496,o),
(287,439,cs),
(226,374,o),
(184,322,o),
(135,250,c),
(140,267,o),
(145,287,o),
(151,310,cs),
(168,374,o),
(171,389,o),
(190,465,cs),
(201,507,o),
(212,556,o),
(222,621,c),
(223,624,o),
(236,644,o),
(236,675,cs),
(236,693,o),
(234,704,o),
(229,707,cs),
(214,719,o),
(204,722,o),
(178,704,cs),
(172,700,o),
(162,696,o),
(151,691,cs),
(129,683,o),
(106,670,o),
(77,660,c),
(75,660,l),
(92,583,l),
(94,583,l),
(117,592,o),
(141,604,o),
(168,615,c),
(158,572,o),
(148,530,o),
(137,485,cs),
(121,418,o),
(117,403,o),
(98,330,cs),
(69,215,o),
(64,210,o),
(40,82,c),
(36,74,o),
(32,65,o),
(28,55,cs),
(0,-7,o),
(38,-61,o),
(76,-19,cs)
);
},
{
closed = 1;
nodes = (
(257,306,o),
(287,341,o),
(327,384,cs),
(365,425,o),
(383,436,o),
(401,428,c),
(400,428,l),
(401,422,o),
(402,419,o),
(402,411,cs),
(402,400,o),
(400,389,o),
(400,374,cs),
(399,349,o),
(358,317,o),
(313,291,cs),
(307,288,o),
(300,283,o),
(292,279,c),
(284,286,o),
(274,290,o),
(265,290,cs),
(250,290,o),
(247,286,o),
(233,274,c),
(234,274,l),
(233,274,o),
(231,273,o),
(230,272,c)
);
}
);
width = 534;
}
);
unicode = 107;
},
{
color = 6;
glyphname = l;
layers = (
{
anchors = (
{
name = bottom;
pos = (108,0);
},
{
name = center;
pos = (154,375);
},
{
name = top;
pos = (183,694);
},
{
name = topright;
pos = (300,505);
}
);
layerId = "BC735296-CD3A-4FA4-9AA9-EE2D747BC69E";
shapes = (
{
closed = 1;
nodes = (
(149,-11,o),
(201,78,o),
(229,88,c),
(231,88,l),
(213,164,l),
(211,164,l),
(135,136,o),
(144,73,o),
(72,70,c),
(72,71,ls),
(78,121,o),
(91,176,o),
(99,235,cs),
(114,343,o),
(135,406,o),
(171,525,cs),
(177,546,o),
(205,633,o),
(202,671,cs),
(198,714,o),
(207,731,o),
(209,734,c),
(207,732,o),
(196,718,o),
(158,702,cs),
(152,699,o),
(143,692,o),
(129,684,cs),
(104,669,o),
(88,662,o),
(77,662,cs),
(75,662,l),
(75,581,l),
(77,581,ls),
(91,581,o),
(107,587,o),
(134,601,c),
(130,587,o),
(125,570,o),
(118,548,cs),
(86,441,o),
(63,373,o),
(45,246,cs),
(38,195,o),
(24,139,o),
(18,79,cs),
(18,73,o),
(17,63,o),
(17,55,cs),
(17,13,o),
(24,-6,o),
(42,-9,cs),
(51,-10,o),
(58,-11,o),
(67,-11,cs)
);
}
);
width = 268;
}
);
unicode = 108;
},
{
color = 3;
glyphname = lcaron;
layers = (
{
anchors = (
{
name = _top;
pos = (283,441);
},
{
name = bottom;
pos = (322,580);
}
);
layerId = "BC735296-CD3A-4FA4-9AA9-EE2D747BC69E";
shapes = (
{
closed = 1;
nodes = (
(266,505,o),
(271,526,o),
(273,529,cs),
(282,542,o),
(289,588,o),
(292,596,cs),
(296,610,o),
(303,622,o),
(316,658,cs),
(326,685,o),
(335,705,o),
(333,769,c),
(281,774,l),
(282,739,o),
(280,727,o),
(265,687,cs),
(257,665,o),
(243,639,o),
(240,622,cs),
(237,607,o),
(236,586,o),
(227,574,cs),
(223,568,o),
(202,538,o),
(213,542,c),
(213,543,o),
(247,498,o),
(248,499,cs)
);
},
{
ref = l;
}
);
width = 268;
}
);
unicode = 318;
},
{
color = 6;
glyphname = m;
kernLeft = n;
kernRight = n;
layers = (
{
anchors = (
{
name = bottom;
pos = (473,0);
},
{
name = top;
pos = (502,505);
}
);
layerId = "BC735296-CD3A-4FA4-9AA9-EE2D747BC69E";
shapes = (
{
closed = 1;
nodes = (
(649,-42,o),
(657,-30,o),
(704,-14,cs),
(754,3,o),
(799,30,o),
(836,67,c),
(801,125,l),
(798,125,l),
(775,101,o),
(734,78,o),
(689,63,c),
(692,79,o),
(696,96,o),
(703,113,cs),
(733,186,o),
(764,266,o),
(774,361,c),
(774,383,o),
(772,405,o),
(768,422,cs),
(744,524,o),
(670,527,o),
(659,517,c),
(644,544,o),
(628,542,o),
(610,513,cs),
(604,504,o),
(593,489,o),
(581,469,cs),
(564,441,o),
(548,406,o),
(529,370,cs),
(521,354,o),
(514,340,o),
(508,327,c),
(508,340,o),
(508,354,o),
(508,368,cs),
(508,376,o),
(509,390,o),
(509,405,cs),
(509,490,o),
(481,539,o),
(432,538,cs),
(420,538,o),
(391,509,o),
(369,474,cs),
(336,421,o),
(310,360,o),
(273,304,c),
(243,251,l),
(233,246,o),
(218,232,o),
(199,207,cs),
(198,205,o),
(193,199,o),
(186,190,c),
(200,233,o),
(215,277,o),
(230,322,c),
(237,335,o),
(244,353,o),
(248,371,c),
(260,364,o),
(245,367,o),
(273,452,cs),
(306,551,o),
(363,513,o),
(271,541,cs),
(259,545,o),
(249,546,o),
(239,546,cs),
(185,546,o),
(132,505,o),
(93,481,c),
(32,438,l),
(29,435,l),
(54,365,l),
(122,412,ls),
(148,429,o),
(182,455,o),
(217,463,c),
(211,445,o),
(206,428,o),
(201,413,cs),
(197,403,o),
(193,390,o),
(187,374,cs),
(156,284,o),
(125,189,o),
(97,89,cs),
(93,73,o),
(91,57,o),
(87,42,cs),
(86,38,o),
(84,34,o),
(83,30,cs),
(83,30,o),
(83,29,o),
(83,27,c),
(83,25,o),
(82,24,o),
(82,23,c),
(84,23,l),
(88,2,o),
(104,-57,o),
(134,-3,cs),
(138,4,o),
(140,11,o),
(141,18,c),
(143,21,ls),
(148,31,o),
(159,44,o),
(176,68,cs),
(186,84,o),
(222,131,o),
(239,153,c),
(251,156,o),
(261,174,o),
(318,259,cs),
(352,310,o),
(377,369,o),
(411,425,c),
(416,428,o),
(430,444,o),
(434,463,c),
(446,443,o),
(455,449,o),
(455,405,cs),
(455,391,o),
(454,379,o),
(454,368,cs),
(454,287,o),
(450,244,o),
(433,140,c),
(427,124,o),
(420,106,o),
(414,87,cs),
(409,74,o),
(405,62,o),
(403,47,cs),
(402,39,o),
(400,29,o),
(400,24,cs),
(400,-70,o),
(428,-30,o),
(451,19,c),
(452,14,o),
(454,20,o),
(457,29,cs),
(458,32,o),
(458,34,o),
(459,37,cs),
(470,62,o),
(479,86,o),
(480,90,cs),
(484,103,o),
(487,116,o),
(490,129,c),
(494,139,o),
(499,150,o),
(504,162,cs),
(531,227,o),
(539,258,o),
(578,333,cs),
(592,360,o),
(607,393,o),
(628,427,cs),
(631,433,o),
(637,442,o),
(646,455,c),
(644,441,o),
(656,424,o),
(716,405,c),
(714,405,l),
(718,390,o),
(723,377,o),
(719,361,cs),
(706,289,o),
(683,221,o),
(650,135,cs),
(641,109,o),
(636,79,o),
(628,48,c),
(625,43,o),
(620,30,o),
(620,15,cs),
(620,5,o),
(624,-10,o),
(628,-16,cs)
);
}
);
width = 885;
}
);
unicode = 109;
},
{
color = 6;
glyphname = n;
kernLeft = n;
kernRight = n;
layers = (
{
anchors = (
{
name = bottom;
pos = (170,0);
},
{
name = top;
pos = (315,515);
}
);
layerId = "BC735296-CD3A-4FA4-9AA9-EE2D747BC69E";
shapes = (
{
closed = 1;
nodes = (
(377,23,o),
(403,29,o),
(406,67,c),
(421,71,o),
(479,171,o),
(479,199,c),
(429,199,l),
(429,227,o),
(367,127,o),
(354,85,c),
(353,87,o),
(353,88,o),
(352,89,c),
(356,105,o),
(361,122,o),
(367,139,cs),
(399,228,o),
(445,286,o),
(445,411,cs),
(445,467,o),
(408,492,o),
(392,507,c),
(372,522,l),
(370,522,ls),
(350,521,o),
(294,445,o),
(283,433,cs),
(228,374,o),
(192,323,o),
(152,255,c),
(166,293,o),
(182,332,o),
(198,372,cs),
(212,408,o),
(213,417,o),
(222,449,c),
(221,449,l),
(229,458,o),
(244,499,o),
(222,521,cs),
(200,544,o),
(189,532,o),
(132,494,cs),
(121,487,o),
(38,402,o),
(36,402,cs),
(34,402,l),
(34,342,l),
(36,342,ls),
(60,342,o),
(141,433,o),
(162,448,cs),
(163,448,l),
(157,430,o),
(150,412,o),
(146,401,cs),
(114,319,o),
(78,228,o),
(48,131,cs),
(42,110,o),
(31,80,o),
(26,49,cs),
(25,45,o),
(24,41,o),
(23,36,cs),
(22,29,o),
(22,21,o),
(23,17,c),
(23,16,o),
(23,16,o),
(23,15,cs),
(23,14,o),
(23,12,o),
(23,11,cs),
(23,-29.004,o),
(72,-27,o),
(77,11,c),
(77,11,l),
(77,16,o),
(77,20,o),
(78,25,c),
(80,29,o),
(83,34,o),
(92,52,cs),
(107,79,o),
(129,112,o),
(152,153,cs),
(205,247,o),
(240,286,o),
(323,379,cs),
(344,404,o),
(361,425,o),
(369,435,c),
(387,419,o),
(391,417,o),
(391,411,cs),
(391,315,o),
(354,276,o),
(316,166,cs),
(307,139,o),
(297,110,o),
(289,77,c),
(287,72,o),
(282,65,o),
(270,43,cs),
(252,11,o),
(278,-28,o),
(306,-14,cs)
);
}
);
width = 508;
}
);
unicode = 110;
},
{
color = 6;
glyphname = eng;
kernLeft = n;
kernRight = n;
layers = (
{
anchors = (
{
name = bottom;
pos = (270,0);
},
{
name = top;
pos = (295,515);
}
);
layerId = "BC735296-CD3A-4FA4-9AA9-EE2D747BC69E";
shapes = (
{
closed = 1;
nodes = (
(158,-222,o),
(228,-186,o),
(257,-157,cs),
(282,-133,o),
(285,-96,o),
(291,-73,cs),
(300,-43,o),
(306,-22,o),
(315,6,c),
(319,6,l),
(322,12,o),
(332,25,o),
(341,52,cs),
(350,78,o),
(356,108,o),
(367,139,cs),
(399,228,o),
(445,286,o),
(445,411,cs),
(445,467,o),
(408,492,o),
(392,507,c),
(372,522,l),
(370,522,ls),
(350,521,o),
(294,445,o),
(283,433,cs),
(228,374,o),
(192,323,o),
(152,255,c),
(166,293,o),
(182,332,o),
(198,372,cs),
(212,408,o),
(213,417,o),
(222,449,c),
(221,449,l),
(229,458,o),
(244,499,o),
(222,521,cs),
(200,544,o),
(189,532,o),
(132,494,cs),
(121,487,o),
(38,402,o),
(36,402,cs),
(34,402,l),
(34,342,l),
(36,342,ls),
(60,342,o),
(141,433,o),
(162,448,cs),
(163,448,l),
(157,430,o),
(150,412,o),
(146,401,cs),
(114,319,o),
(78,228,o),
(48,131,cs),
(42,110,o),
(31,80,o),
(26,49,cs),
(25,45,o),
(24,41,o),
(23,36,cs),
(22,29,o),
(22,21,o),
(23,17,c),
(23,16,o),
(23,16,o),
(23,15,cs),
(23,14,o),
(23,12,o),
(23,11,cs),
(23,-29.004,o),
(72,-27,o),
(77,11,c),
(77,11,l),
(77,16,o),
(77,20,o),
(78,25,c),
(80,29,o),
(83,34,o),
(92,52,cs),
(107,79,o),
(129,112,o),
(152,153,cs),
(205,247,o),
(240,286,o),
(323,379,cs),
(344,404,o),
(361,425,o),
(369,435,c),
(387,419,o),
(391,417,o),
(391,411,cs),
(391,315,o),
(354,276,o),
(316,166,cs),
(308,142,o),
(299,117,o),
(292,89,cs),
(292,89,ls),
(290,84,o),
(277,70,o),
(268,40,cs),
(256,3,o),
(249,-19,o),
(240,-53,cs),
(228,-95,o),
(235,-90,o),
(219,-106,cs),
(212,-113,o),
(154,-150,o),
(128,-150,c),
(128,-222,l)
);
},
{
closed = 1;
nodes = (
(318,15,ls),
(318,12,o),
(317,10,o),
(316,8,cs)
);
}
);
width = 485;
}
);
metricLeft = n;
unicode = 331;
},
{
color = 6;
glyphname = o;
kernLeft = o;
kernRight = o;
layers = (
{
anchors = (
{
name = bottom;
pos = (167,-10);
},
{
name = center;
pos = (166,253);
},
{
name = ogonek;
pos = (254,10);
},
{
name = top;
pos = (247,515);
},
{
name = topright;
pos = (433,505);
}
);
layerId = "BC735296-CD3A-4FA4-9AA9-EE2D747BC69E";
shapes = (
{
closed = 1;
nodes = (
(208,-22,o),
(211,-25,o),
(228,-10,cs),
(294,48,o),
(377,216,o),
(320,144,c),
(333,196,o),
(339,260,o),
(343,292,cs),
(348,335,o),
(354,379,o),
(357,425,cs),
(358,444,o),
(362,457,o),
(362,475,cs),
(362,499,o),
(355,512,o),
(339,512,cs),
(338,512,l),
(319,491,l),
(320,511,l),
(318,511,ls),
(251,511,o),
(204,505,o),
(161,489,cs),
(126,476,o),
(123,473,o),
(141,465,c),
(75,395,o),
(60,299,o),
(35,221,cs),
(28,199,o),
(11,143,o),
(8,93,cs),
(5,49,o),
(17,26,o),
(41,11,cs),
(62,-2,o),
(94,-11,o),
(116,-21,c),
(117,-21,o),
(156,-22,o),
(183,-22,cs)
);
},
{
closed = 1;
nodes = (
(163,59,o),
(123,60,o),
(122,60,cs),
(90,60,o),
(73,64,o),
(70,64,c),
(62,70,o),
(60,76,o),
(62,93,cs),
(66,131,o),
(79,174,o),
(86,202,cs),
(110,282,o),
(123,353,o),
(178,412,c),
(177,412,l),
(175,413,l),
(206,425,o),
(245,430,o),
(303,430,c),
(303,428,o),
(303,427,o),
(303,425,cs),
(301,383,o),
(294,339,o),
(290,295,cs),
(280,190,o),
(269,152,o),
(253,126,cs),
(244,113,o),
(218,94,o),
(196,59,c),
(194,59,o),
(192,59,o),
(190,59,cs)
);
}
);
width = 381;
}
);
unicode = 111;
},
{
color = 6;
glyphname = oslash;
kernLeft = o;
kernRight = o;
layers = (
{
anchors = (
{
name = bottom;
pos = (187,-10);
},
{
name = center;
pos = (186,253);
},
{
name = ogonek;
pos = (274,10);
},
{
name = top;
pos = (309,500);
},
{
name = topright;
pos = (453,505);
}
);
layerId = "BC735296-CD3A-4FA4-9AA9-EE2D747BC69E";
shapes = (
{
closed = 1;
nodes = (
(42,-96,o),
(67,-50,o),
(91,-3,c),
(107,-10,o),
(123,-15,o),
(136,-21,c),
(137,-21,o),
(176,-22,o),
(203,-22,cs),
(228,-22,o),
(231,-25,o),
(248,-10,cs),
(314,48,o),
(397,216,o),
(340,144,c),
(353,196,o),
(359,260,o),
(363,292,cs),
(368,331,o),
(373,371,o),
(376,413,c),
(409,459,o),
(450,517,o),
(462,517,c),
(472,579,l),
(448,579,o),
(411,541,o),
(378,500,c),
(374,508,o),
(368.009,512,o),
(359,512,cs),
(358,512,l),
(339,491,l),
(340,511,l),
(338,511,ls),
(271,511,o),
(224,505,o),
(181,489,cs),
(146,476,o),
(143,473,o),
(161,465,c),
(95,395,o),
(80,299,o),
(55,221,cs),
(48,199,o),
(31,143,o),
(28,93,cs),
(25,55,o),
(34,33,o),
(51,18,c),
(30,-23,o),
(7,-64,o),
(-24,-100,c),
(7,-137,l)
);
},
{
closed = 1;
nodes = (
(183,59,o),
(143,60,o),
(142,60,cs),
(135,60,o),
(129,60,o),
(124,60,c),
(140,91,o),
(157,123,o),
(178,153,cs),
(215,208,o),
(267,268,o),
(313,328,c),
(312,317,o),
(311,306,o),
(310,295,cs),
(300,190,o),
(289,152,o),
(273,126,cs),
(264,113,o),
(238,94,o),
(216,59,c),
(214,59,o),
(212,59,o),
(210,59,cs)
);
},
{
closed = 1;
nodes = (
(81,83,o),
(81,88,o),
(82,93,cs),
(86,131,o),
(99,174,o),
(106,202,cs),
(130,282,o),
(143,353,o),
(198,412,c),
(197,412,l),
(195,413,l),
(226,425,o),
(265,430,o),
(323,430,c),
(323,427,l),
(318,420,o),
(313,413,o),
(309,408,cs),
(263,347,o),
(197,271,o),
(144,193,cs),
(120,157,o),
(100,119,o),
(81,80,c)
);
}
);
width = 448;
}
);
unicode = 248;
},
{
color = 6;
glyphname = p;
layers = (
{
anchors = (
{
name = bottom;
pos = (329,-8);
},
{
name = top;
pos = (325,517);
}
);
layerId = "BC735296-CD3A-4FA4-9AA9-EE2D747BC69E";
shapes = (
{
closed = 1;
nodes = (
(103,-232,l),
(103,-153,o),
(115,-82,o),
(128,-6,c),
(178,-2,o),
(210,7,o),
(238,24,cs),
(273,45,o),
(343,170,o),
(368,253,cs),
(385,311,o),
(402,387,o),
(402,461,cs),
(402,512,o),
(399,526,o),
(382,531,cs),
(374,533,o),
(369,534,o),
(362,534,cs),
(328,534,o),
(285,508,o),
(259,495,c),
(261,498,o),
(262,500,o),
(263,503,cs),
(267,511,o),
(306,582,o),
(315,616,c),
(313,616,l),
(265,638,l),
(262,638,l),
(261,632,o),
(248,618,o),
(214,537,cs),
(203,511,o),
(191,483,o),
(180,454,c),
(148,436,o),
(114,416,o),
(81,392,cs),
(64,380,o),
(42,356,o),
(24,356,cs),
(22,356,l),
(22,275,l),
(24,275,ls),
(56,275,o),
(90,320,o),
(112,337,c),
(145,352,l),
(141,342,o),
(138,333,o),
(135,323,cs),
(113,257,o),
(102,183,o),
(92,113,cs),
(90,99,o),
(88,86,o),
(86,72,c),
(75,72,o),
(63,72,o),
(51,72,cs),
(20,72,l),
(18,72,l),
(18,-9,l),
(20,-9,l),
(51,-9,ls),
(58,-9,o),
(65,-9,o),
(72,-9,c),
(60,-79,o),
(49,-151,o),
(49,-232,c)
);
},
{
closed = 1;
nodes = (
(143,85,o),
(145,93,o),
(146,102,cs),
(155,168,o),
(165,233,o),
(186,298,cs),
(195,327,o),
(205,356,o),
(215,385,c),
(348,446,l),
(346,395,o),
(334,338,o),
(316,277,cs),
(303,235,o),
(243,114,o),
(209,92,cs),
(197,85,o),
(174,79,o),
(142,76,c)
);
}
);
width = 403;
}
);
unicode = 112;
},
{
color = 6;
glyphname = thorn;
layers = (
{
anchors = (
{
name = bottom;
pos = (282,0);
},
{
name = top;
pos = (282,500);
}
);
layerId = "BC735296-CD3A-4FA4-9AA9-EE2D747BC69E";
shapes = (
{
closed = 1;
nodes = (
(103,-232,l),
(103,-153,o),
(115,-82,o),
(128,-6,c),
(178,-2,o),
(210,7,o),
(238,24,cs),
(273,45,o),
(343,170,o),
(368,253,cs),
(385,311,o),
(402,387,o),
(402,461,cs),
(402,512,o),
(399,526,o),
(382,531,cs),
(374,533,o),
(369,534,o),
(362,534,cs),
(328,534,o),
(285,508,o),
(259,495,c),
(261,498,o),
(262,500,o),
(263,503,cs),
(267,511,o),
(336,692,o),
(345,726,c),
(343,726,l),
(295,748,l),
(292,748,l),
(291,742,o),
(278,728,o),
(214,537,cs),
(205,511,o),
(194,484,o),
(184,456,c),
(150,437,o),
(115,417,o),
(81,392,cs),
(64,380,o),
(42,356,o),
(24,356,cs),
(22,356,l),
(22,275,l),
(24,275,ls),
(56,275,o),
(90,320,o),
(112,337,c),
(145,352,l),
(141,342,o),
(138,333,o),
(135,323,cs),
(113,257,o),
(102,183,o),
(92,113,cs),
(90,99,o),
(88,86,o),
(86,72,c),
(75,72,o),
(63,72,o),
(51,72,cs),
(20,72,l),
(18,72,l),
(18,-9,l),
(20,-9,l),
(51,-9,ls),
(58,-9,o),
(65,-9,o),
(72,-9,c),
(60,-79,o),
(49,-151,o),
(49,-232,c)
);
},
{
closed = 1;
nodes = (
(143,85,o),
(145,93,o),
(146,102,cs),
(155,168,o),
(165,233,o),
(186,298,cs),
(195,327,o),
(205,356,o),
(215,385,c),
(348,446,l),
(346,395,o),
(334,338,o),
(316,277,cs),
(303,235,o),
(243,114,o),
(209,92,cs),
(197,85,o),
(174,79,o),
(142,76,c)
);
}
);
width = 403;
}
);
metricLeft = p;
metricRight = p;
unicode = 254;
},
{
color = 6;
glyphname = q;
kernLeft = o;
layers = (
{
anchors = (
{
name = bottom;
pos = (155,-8);
},
{
name = top;
pos = (151,517);
}
);
layerId = "BC735296-CD3A-4FA4-9AA9-EE2D747BC69E";
shapes = (
{
closed = 1;
nodes = (
(318,-203,l),
(318,-142,l),
(316,-142,ls),
(301.998,-142,o),
(288,-141,o),
(273,-140,c),
(283,-117,o),
(290,-91,o),
(297,-66,cs),
(323,33,o),
(327,138,o),
(368,243,cs),
(380,274,o),
(394,309,o),
(410,349,cs),
(414,359,o),
(417,369,o),
(422,381,c),
(422,381,o),
(423,382,o),
(423,382,c),
(422,382,l),
(423,383,o),
(423,385,o),
(424,386,cs),
(450,441,o),
(418,474,o),
(384,438,cs),
(369,424,o),
(352,379,o),
(342,363,cs),
(277,252,o),
(247,185,o),
(139,110,cs),
(129,104,o),
(88,82,o),
(64,69,c),
(65,99,o),
(69,135,o),
(70,144,cs),
(84,287,o),
(132,363,o),
(208,430,cs),
(226,446,o),
(233,449,o),
(243,449,cs),
(254,449,o),
(260,446,o),
(349,392,c),
(352,392,l),
(374,445,l),
(371,467,l),
(369,467,l),
(355,472,o),
(336,482,o),
(323,491,cs),
(275,523,o),
(261,530,o),
(243,530,cs),
(222,530,o),
(205,520,o),
(172,491,cs),
(86,414,o),
(36,308,o),
(17,158,cs),
(16,149,o),
(10,93,o),
(10,56,cs),
(10,14,o),
(17,-10,o),
(33,-15,cs),
(57,-23,o),
(114,6,o),
(168,42,cs),
(218,75,o),
(254,110,o),
(283,148,c),
(270,84,o),
(262,19,o),
(244,-45,cs),
(236,-76,o),
(229,-95,o),
(220,-112,c),
(216,-115,o),
(207,-125,o),
(202,-135,c),
(204,-137,l),
(171,-137,ls),
(97,-137,o),
(115,-113,o),
(124,-198,c),
(171,-198,l),
(214,-198,ls),
(248,-198,o),
(281,-203,o),
(316,-203,cs)
);
}
);
width = 457;
}
);
unicode = 113;
},
{
color = 6;
glyphname = r;
kernLeft = n;
layers = (
{
anchors = (
{
name = bottom;
pos = (120,0);
},
{
name = top;
pos = (274,505);
}
);
layerId = "BC735296-CD3A-4FA4-9AA9-EE2D747BC69E";
shapes = (
{
closed = 1;
nodes = (
(48,-37,ls),
(65,-37,o),
(78,-8,o),
(78,18,c),
(79,17,l),
(80,22,o),
(82,28,o),
(84,36,c),
(137,104,l),
(171,160,o),
(223,213,o),
(269,285,cs),
(326,374,o),
(348,407,o),
(366,413,c),
(417,411,l),
(431,488,l),
(429,488,l),
(407,495,o),
(398,497,o),
(386,497,cs),
(374,497,o),
(364,494,o),
(348,489,cs),
(314,477,o),
(241,357,o),
(223,329,cs),
(197,288,o),
(161,247,o),
(126,199,c),
(135,224,o),
(145,251,o),
(154,284,cs),
(163,316,o),
(171,349,o),
(184,384,cs),
(192,407,o),
(201,428,o),
(213,451,c),
(221,446,o),
(247,457,o),
(221,493,cs),
(204,516,o),
(201,527,o),
(176,515,cs),
(159,507,o),
(143,495,o),
(120,475,cs),
(71,431,o),
(49,412,o),
(36,406,c),
(35,406,l),
(58,334,l),
(60,334,l),
(67,337,o),
(85,352,o),
(124,386,c),
(116,360,o),
(109,333,o),
(101,306,cs),
(92,273,o),
(76,236,o),
(65,188,cs),
(58,155,o),
(46,117,o),
(35,74,cs),
(33,65,o),
(-10,24,o),
(-10,-8,cs),
(-10,-11,o),
(-9,-14,o),
(-8,-17,c),
(-7,-17,l),
(47,-37,l)
);
}
);
width = 403;
}
);
unicode = 114;
},
{
color = 6;
glyphname = s;
layers = (
{
anchors = (
{
name = bottom;
pos = (77,-10);
},
{
name = top;
pos = (249,510);
}
);
layerId = "BC735296-CD3A-4FA4-9AA9-EE2D747BC69E";
shapes = (
{
closed = 1;
nodes = (
(128,-20,o),
(135,-19,o),
(145,-16,cs),
(176,-7,o),
(196,51,o),
(205,73,cs),
(214,95,o),
(218,130,o),
(216,163,cs),
(213,219,o),
(198,283,o),
(196,331,cs),
(194,361,o),
(196,374,o),
(205,390,cs),
(235,443,o),
(225,437,o),
(263,437,cs),
(283,437,o),
(273,424,o),
(291,418,c),
(290,418,l),
(311,388,l),
(313,388,ls),
(330,388,o),
(340,404,o),
(339,432,cs),
(338,470,o),
(294,518,o),
(259,518,cs),
(179,518,o),
(171,459,o),
(156,432,cs),
(145,411,o),
(139,373,o),
(141,331,cs),
(144,274,o),
(157,212,o),
(161,163,cs),
(163,137,o),
(161,125,o),
(153,109,cs),
(135,71,o),
(137,66,o),
(124,61,c),
(123,61,o),
(120,61,o),
(117,61,c),
(44,96,l),
(-9,96,l),
(-6,37,o),
(58,-20,o),
(120,-20,cs)
);
}
);
width = 327;
}
);
unicode = 115;
},
{
color = 6;
glyphname = scedilla;
layers = (
{
anchors = (
{
name = bottom;
pos = (77,-230);
},
{
name = top;
pos = (249,510);
}
);
layerId = "BC735296-CD3A-4FA4-9AA9-EE2D747BC69E";
shapes = (
{
closed = 1;
nodes = (
(108,-233,o),
(170,-212,o),
(183,-170,cs),
(186,-158,o),
(188,-144,o),
(188,-132,cs),
(188,-84,o),
(168,-55,o),
(109,-55,cs),
(106,-55,o),
(103,-55,o),
(101,-56,c),
(102,-53,ls),
(105,-46,o),
(109,-33,o),
(112,-20,c),
(120,-20,ls),
(128,-20,o),
(135,-19,o),
(145,-16,cs),
(176,-7,o),
(196,51,o),
(205,73,cs),
(214,95,o),
(218,130,o),
(216,163,cs),
(213,219,o),
(198,283,o),
(196,331,cs),
(194,361,o),
(196,374,o),
(205,390,cs),
(235,443,o),
(225,437,o),
(263,437,cs),
(283,437,o),
(273,424,o),
(291,418,c),
(290,418,l),
(311,388,l),
(313,388,ls),
(330,388,o),
(340,404,o),
(339,432,cs),
(338,470,o),
(294,518,o),
(259,518,cs),
(179,518,o),
(171,459,o),
(156,432,cs),
(145,411,o),
(139,373,o),
(141,331,cs),
(144,274,o),
(157,212,o),
(161,163,cs),
(163,137,o),
(161,125,o),
(153,109,cs),
(134,71,o),
(137,66,o),
(125,61,c),
(117,61,l),
(44,96,l),
(-9,96,l),
(-7,58,o),
(20,20,o),
(57,-1,c),
(55,-4,o),
(54,-7,o),
(53,-10,cs),
(52,-12,o),
(47,-22,o),
(40,-38,cs),
(23,-79,o),
(51,-126,o),
(83,-117,c),
(90,-116,o),
(100,-115,o),
(109,-115,cs),
(119,-115,o),
(134,-123,o),
(134,-132,cs),
(134,-136,o),
(134,-147,o),
(131,-157,c),
(130,-157,o),
(26,-174,o),
(27,-174,cs),
(15,-174,o),
(9,-173,o),
(14,-175,c),
(9,-174,o),
(3,-172,o),
(2,-171,c),
(-48,-192,l),
(-39,-214,o),
(-25,-219,o),
(-9,-227,cs),
(1,-231,o),
(11,-233,o),
(27,-233,cs)
);
}
);
width = 327;
}
);
unicode = 351;
},
{
color = 6;
glyphname = germandbls;
layers = (
{
anchors = (
{
name = bottom;
pos = (207,0);
},
{
name = top;
pos = (207,500);
}
);
layerId = "BC735296-CD3A-4FA4-9AA9-EE2D747BC69E";
shapes = (
{
closed = 1;
nodes = (
(50,-201,o),
(65,-161,o),
(90,-82,cs),
(131,47,o),
(142,191,o),
(158,322,cs),
(167,388,o),
(171,447,o),
(192,507,c),
(235,605,l),
(271,605,o),
(278,604,o),
(281,604,c),
(327,594,o),
(336,585,o),
(336,529,c),
(322,506,ls),
(319,502,o),
(246,471,o),
(246,383,cs),
(246,376,o),
(247,363,o),
(248,359,cs),
(267,270,o),
(321,224,o),
(327,203,c),
(338,140,l),
(338,132,o),
(339,129,o),
(339,126,c),
(339,129,o),
(337,128,o),
(332,119,cs),
(330,115,o),
(273,92,o),
(259,92,cs),
(257,92,o),
(258,91,o),
(258,90,c),
(248,94,o),
(241,95,o),
(238,94,c),
(237,97,o),
(236,101,o),
(234,106,c),
(224,110,l),
(180,125,l),
(177,121,o),
(174,115,o),
(174,110,cs),
(174,100,o),
(182,93,o),
(186,80,cs),
(197,50,o),
(209,28,o),
(241,16,c),
(246,13,o),
(252,12,o),
(259,12,cs),
(298,12,o),
(359,48,o),
(376,82,cs),
(386,100,o),
(389,111,o),
(389,126,cs),
(389,132,o),
(388,139,o),
(388,147,cs),
(388,146,o),
(401,126,o),
(375,224,cs),
(359,283,o),
(308,321,o),
(297,376,cs),
(296,379,o),
(296,381,o),
(296,383,cs),
(296,411,o),
(337,425,o),
(362,456,cs),
(378,477,o),
(386,505,o),
(386,539,cs),
(386,618,o),
(352,669,o),
(291,682,cs),
(282,684,o),
(274,685,o),
(265,685,cs),
(190,685,o),
(169,604,o),
(145,533,cs),
(123,469,o),
(117,399,o),
(109,332,cs),
(92,202,o),
(82,68,o),
(42,-58,cs),
(37,-74,o),
(25,-127,o),
(12,-131,cs),
(-6,-137,o),
(-45,-112,o),
(-48,-96,c),
(-97,-111,l),
(-84,-177,o),
(-26,-224,o),
(27,-208,cs)
);
}
);
width = 425;
}
);
unicode = 223;
},
{
color = 6;
glyphname = t;
kernLeft = t;
kernRight = t;
layers = (
{
anchors = (
{
name = bottom;
pos = (57,0);
},
{
name = center;
pos = (161,253);
},
{
name = top;
pos = (156,634);
},
{
name = topright;
pos = (346,505);
}
);
layerId = "BC735296-CD3A-4FA4-9AA9-EE2D747BC69E";
shapes = (
{
closed = 1;
nodes = (
(117,-11,o),
(218,75,o),
(218,116,c),
(168,116,l),
(168,129,o),
(114,84,o),
(82,73,c),
(82,73,ls),
(82,141,o),
(117,275,o),
(150,350,cs),
(153,356,o),
(159,371,o),
(168,391,c),
(220,391,o),
(272,390,o),
(318,390,cs),
(320,390,l),
(320,451,l),
(318,451,ls),
(280,451,o),
(237,451,o),
(194,452,c),
(218,509,o),
(242,572,o),
(242,594,c),
(183,594,l),
(182,593,o),
(150,514,o),
(125,453,c),
(100,453,o),
(76,453,o),
(54,453,cs),
(52,453,l),
(52,392,l),
(54,392,ls),
(69,392,o),
(84,392,o),
(99,392,c),
(97,387,o),
(96,384,o),
(95,382,cs),
(68,321,o),
(28,165,o),
(28,73,cs),
(28,59,o),
(29,45,o),
(31,34,cs),
(37,3,o),
(50,-11,o),
(70,-11,cs)
);
}
);
width = 322;
}
);
unicode = 116;
},
{
color = 6;
glyphname = tbar;
layers = (
{
anchors = (
{
name = bottom;
pos = (57,0);
},
{
name = center;
pos = (161,253);
},
{
name = top;
pos = (156,634);
},
{
name = topright;
pos = (346,505);
}
);
layerId = "BC735296-CD3A-4FA4-9AA9-EE2D747BC69E";
shapes = (
{
closed = 1;
nodes = (
(117,-11,o),
(218,75,o),
(218,116,c),
(168,116,l),
(168,129,o),
(114,84,o),
(82,73,c),
(82,73,ls),
(82,123,o),
(101,207,o),
(123,278,c),
(168,278,o),
(212,276,o),
(258,275,c),
(248,338,l),
(211,342,o),
(178,342,o),
(146,341,c),
(147,344,o),
(149,347,o),
(150,350,cs),
(153,356,o),
(159,371,o),
(168,391,c),
(220,391,o),
(272,390,o),
(318,390,cs),
(320,390,l),
(320,451,l),
(318,451,ls),
(280,451,o),
(237,451,o),
(194,452,c),
(218,509,o),
(242,572,o),
(242,594,c),
(183,594,l),
(182,593,o),
(150,514,o),
(125,453,c),
(100,453,o),
(76,453,o),
(54,453,cs),
(52,453,l),
(52,392,l),
(54,392,ls),
(69,392,o),
(84,392,o),
(99,392,c),
(97,387,o),
(96,384,o),
(95,382,cs),
(90,370,o),
(84,355,o),
(78,337,c),
(60,336,o),
(42,335,o),
(22,335,c),
(22,273,l),
(35,275,o),
(48,276,o),
(61,277,c),
(43,209,o),
(28,129,o),
(28,73,cs),
(28,59,o),
(29,45,o),
(31,34,cs),
(37,3,o),
(50,-11,o),
(70,-11,cs)
);
}
);
width = 340;
}
);
unicode = 359;
},
{
color = 3;
glyphname = tcaron;
layers = (
{
layerId = "BC735296-CD3A-4FA4-9AA9-EE2D747BC69E";
shapes = (
{
closed = 1;
nodes = (
(320,475,o),
(439,578,o),
(439,634,c),
(385,634,l),
(385,628,o),
(278,545,o),
(267,545,c),
(267,475,l)
);
},
{
ref = t;
}
);
width = 322;
}
);
unicode = 357;
},
{
color = 6;
glyphname = tcedilla;
layers = (
{
anchors = (
{
name = bottom;
pos = (57,-220);
},
{
name = center;
pos = (161,253);
},
{
name = top;
pos = (156,634);
},
{
name = topright;
pos = (346,505);
}
);
layerId = "BC735296-CD3A-4FA4-9AA9-EE2D747BC69E";
shapes = (
{
closed = 1;
nodes = (
(88,-223,o),
(150,-202,o),
(163,-160,cs),
(166,-148,o),
(168,-134,o),
(168,-122,cs),
(168,-74,o),
(148,-45,o),
(89,-45,cs),
(86,-45,o),
(83,-45,o),
(81,-46,c),
(82,-43,ls),
(86,-35,o),
(90,-20,o),
(93,-6,c),
(144,13,o),
(218,81,o),
(218,116,c),
(168,116,l),
(168,129,o),
(114,84,o),
(82,72,c),
(82,73,ls),
(82,141,o),
(117,275,o),
(150,350,cs),
(152,356,o),
(159,371,o),
(168,391,c),
(220,391,o),
(272,390,o),
(318,390,cs),
(320,390,l),
(320,451,l),
(318,451,l),
(194,451,l),
(217,508,o),
(242,572,o),
(242,594,c),
(183,594,l),
(183,592,o),
(150,514,o),
(125,452,c),
(100,452,o),
(77,453,o),
(54,453,cs),
(52,453,l),
(52,392,l),
(54,392,l),
(100,392,l),
(98,387,o),
(96,384,o),
(95,382,cs),
(68,321,o),
(28,165,o),
(28,73,cs),
(28,59,o),
(29,45,o),
(31,34,cs),
(33,25,o),
(35,18,o),
(38,11,c),
(36,8,o),
(35,4,o),
(33,0,cs),
(32,-2,o),
(27,-12,o),
(20,-28,cs),
(3,-69,o),
(31,-116,o),
(64,-107,cs),
(70,-106,o),
(80,-105,o),
(89,-105,cs),
(100,-105,o),
(114,-113,o),
(114,-122,cs),
(114,-126,o),
(114,-137,o),
(111,-147,c),
(110,-147,o),
(6,-164,o),
(7,-164,cs),
(-5,-164,o),
(-11,-163,o),
(-6,-165,c),
(-11,-164,o),
(-17,-162,o),
(-18,-161,c),
(-68,-182,l),
(-59,-204,o),
(-45,-209,o),
(-28,-217,cs),
(-19,-221,o),
(-9,-223,o),
(7,-223,cs)
);
}
);
width = 322;
}
);
unicode = 355;
},
{
color = 6;
glyphname = u;
kernLeft = n;
kernRight = n;
layers = (
{
anchors = (
{
name = bottom;
pos = (305,0);
},
{
name = ogonek;
pos = (403,0);
},
{
name = top;
pos = (335,505);
},
{
name = topright;
pos = (573,505);
}
);
layerId = "BC735296-CD3A-4FA4-9AA9-EE2D747BC69E";
shapes = (
{
closed = 1;
nodes = (
(310,-32,o),
(352,-16,o),
(395,9,c),
(479,67,o),
(531,140,o),
(550,227,c),
(548,227,l),
(498,244,l),
(495,244,l),
(483,179,o),
(441,129,o),
(367,78,c),
(366,78,l),
(366,75,o),
(363,73,o),
(359,71,c),
(359,83,o),
(357,97,o),
(353,104,c),
(370,183,o),
(395,249,o),
(429,326,c),
(467,398,o),
(495,450,o),
(498,474,cs),
(501,502,o),
(487,530,o),
(470,530,cs),
(435,530,o),
(437,496,o),
(438,473,cs),
(438,473,l),
(437,473,l),
(435,469,o),
(434,466,o),
(432,462,cs),
(422,445,o),
(409,420,o),
(393,388,cs),
(388,379,o),
(383,371,o),
(378,362,cs),
(300,231,o),
(233,152,o),
(162,107,cs),
(159,105,o),
(122,85,o),
(90,76,c),
(94,91,o),
(99,107,o),
(103,125,cs),
(106,137,o),
(256,492,o),
(256,497,c),
(220,538,l),
(217,538,l),
(200,523,o),
(169,502,o),
(134,470,cs),
(133,469,ls),
(38,384,o),
(27,388,o),
(27,346,c),
(29,346,l),
(67,355,l),
(68,340,o),
(107,368,o),
(161,420,c),
(160,417,o),
(159,415,o),
(158,413,cs),
(126,319,o),
(78,253,o),
(51,145,cs),
(44,115,o),
(33,83,o),
(21,42,c),
(21,35,l),
(21,9,l),
(22,9,l),
(44,-6,o),
(45,-10,o),
(63,-10,c),
(183,35,l),
(227,60,o),
(270,105,o),
(310,155,c),
(305,137,o),
(301,119,o),
(297,101,c),
(293,94,o),
(277,-2,o),
(304,-19,c)
);
}
);
width = 574;
}
);
unicode = 117;
},
{
color = 6;
glyphname = uogonek;
kernLeft = n;
kernRight = n;
layers = (
{
anchors = (
{
name = bottom;
pos = (305,0);
},
{
name = ogonek;
pos = (403,0);
},
{
name = top;
pos = (335,505);
},
{
name = topright;
pos = (573,505);
}
);
layerId = "BC735296-CD3A-4FA4-9AA9-EE2D747BC69E";
shapes = (
{
closed = 1;
nodes = (
(406,-226,o),
(423,-207,o),
(441,-194,c),
(409,-136,l),
(391,-149,o),
(385,-157,o),
(375,-161,cs),
(368,-164,o),
(355,-159,o),
(345,-152,cs),
(333,-144,o),
(320,-133,o),
(314,-127,c),
(313,-121,o),
(312,-116,o),
(312,-110,cs),
(312,-72,o),
(328,-32,o),
(352,-13,c),
(360,-10,o),
(368,-6,o),
(376,-1,c),
(378,-1,l),
(378,-1,l),
(384,3,o),
(389,6,o),
(395,9,c),
(479,67,o),
(531,140,o),
(550,227,c),
(548,227,l),
(498,244,l),
(495,244,l),
(483,179,o),
(441,129,o),
(367,78,c),
(366,78,l),
(366,75,o),
(363,73,o),
(359,71,c),
(359,83,o),
(356,97,o),
(353,104,c),
(370,183,o),
(395,249,o),
(429,326,cs),
(432,332,o),
(434,337,o),
(437,343,cs),
(444,354,o),
(451,367,o),
(459,382,cs),
(481,425,o),
(496,457,o),
(498,474,cs),
(501,502,o),
(487,530,o),
(470,530,cs),
(435,530,o),
(437,497,o),
(438,473,c),
(437,473,l),
(436,471,o),
(435,468,o),
(434,466,cs),
(425,450,o),
(412,425,o),
(396,393,cs),
(390,382,o),
(384,372,o),
(378,362,cs),
(300,231,o),
(233,152,o),
(162,107,cs),
(159,105,o),
(122,85,o),
(90,76,c),
(95,91,o),
(99,107,o),
(103,125,cs),
(106,137,o),
(256,492,o),
(256,497,c),
(220,538,l),
(217,538,l),
(200,523,o),
(169,502,o),
(134,470,cs),
(133,469,ls),
(38,384,o),
(27,388,o),
(27,346,c),
(29,346,l),
(67,355,l),
(68,340,o),
(107,369,o),
(162,422,c),
(160,418,o),
(159,415,o),
(158,413,cs),
(126,319,o),
(78,253,o),
(51,145,cs),
(44,115,o),
(33,83,o),
(21,42,c),
(21,35,l),
(21,9,l),
(22,9,l),
(44,-6,o),
(45,-10,o),
(63,-10,c),
(183,35,l),
(227,60,o),
(270,105,o),
(309,155,c),
(297,101,l),
(294,95,o),
(283,29,o),
(294,-3,c),
(272,-29,o),
(258,-66,o),
(258,-110,cs),
(258,-120,o),
(259,-131,o),
(260,-140,cs),
(266,-168,o),
(284,-191,o),
(315,-212,cs),
(342,-230,o),
(363,-238,o),
(385,-232,cs)
);
}
);
width = 574;
}
);
metricLeft = u;
metricRight = u;
unicode = 371;
},
{
color = 6;
glyphname = v;
kernLeft = v;
kernRight = v;
layers = (
{
anchors = (
{
name = bottom;
pos = (316,0);
},
{
name = top;
pos = (316,505);
}
);
layerId = "BC735296-CD3A-4FA4-9AA9-EE2D747BC69E";
shapes = (
{
closed = 1;
nodes = (
(223,-15,o),
(306,45,o),
(329,60,c),
(328,60,l),
(328,61,l),
(329,61,l),
(372,92,o),
(404,135,o),
(441,210,cs),
(466,263,o),
(477,301,o),
(477,337,cs),
(477,370,o),
(468,408,o),
(449,452,c),
(448,452,l),
(442,466,o),
(434,493,o),
(422,507,cs),
(403,530,o),
(391,528,o),
(397,523,c),
(361,465,l),
(376,444,o),
(384,451,o),
(385,459,c),
(393,446,o),
(389,439,o),
(399,418,c),
(399,418,l),
(417,378,o),
(423,357,o),
(423,337,cs),
(423,316,o),
(416,295,o),
(392,245,cs),
(363,188,o),
(340,158,o),
(299,128,c),
(298,128,l),
(291,123,o),
(269,108,o),
(245,93,c),
(251,108,o),
(256,124,o),
(262,140,cs),
(278,180,o),
(287,232,o),
(287,278,cs),
(287,332,o),
(275,387,o),
(253,428,cs),
(220,488,o),
(206,522,o),
(141,522,cs),
(127,522,o),
(114,521,o),
(100,516,c),
(80,512,o),
(70,509,o),
(61,503,cs),
(3,464,o),
(7,375,o),
(7,324,c),
(61,324,l),
(61,393,o),
(63,409,o),
(82,431,c),
(86,431,o),
(93,433,o),
(109,437,cs),
(110,437,l),
(113,440,o),
(126,441,o),
(141,441,cs),
(183,441,o),
(188,419,o),
(205,389,cs),
(225,352,o),
(233,319,o),
(233,278,cs),
(233,241,o),
(226,207,o),
(212,169,cs),
(203,146,o),
(194,118,o),
(182,91,cs),
(180,87,o),
(174,79,o),
(165,64,c),
(160,63,o),
(148,50,o),
(148,27,cs),
(148,0,o),
(161,-15,o),
(183,-15,cs)
);
}
);
width = 493;
}
);
unicode = 118;
},
{
color = 6;
glyphname = w;
kernLeft = v;
kernRight = v;
layers = (
{
anchors = (
{
name = bottom;
pos = (468,0);
},
{
name = top;
pos = (396,505);
}
);
layerId = "BC735296-CD3A-4FA4-9AA9-EE2D747BC69E";
shapes = (
{
closed = 1;
nodes = (
(499,10,ls),
(529,29,o),
(562,60,o),
(605,112,cs),
(615,124,o),
(631,143,o),
(647,171,cs),
(667,208,o),
(712,337,o),
(712,410,cs),
(712,423,o),
(711,439,o),
(708,447,cs),
(692,491,o),
(660,535,o),
(624,558,c),
(622,558,l),
(594,490,l),
(595,490,l),
(624,471,o),
(647,445,o),
(656,420,cs),
(661,406,o),
(658,363,o),
(658,410,cs),
(658,361,o),
(625,253,o),
(599,210,cs),
(592,200,o),
(583,187,o),
(562,163,cs),
(540,136,o),
(518,114,o),
(495,96,c),
(515,157,o),
(524,226,o),
(524,272,cs),
(524,293,o),
(523,315,o),
(521,336,cs),
(516,380,o),
(499,420,o),
(461,476,cs),
(450,492,o),
(439,501,o),
(434,504,c),
(435,504,l),
(404,556,o),
(376,550,o),
(376,490,cs),
(376,473,o),
(384,453,o),
(389,444,c),
(390,442,o),
(390,440,o),
(390,434,cs),
(390,424,o),
(389,411,o),
(389,399,cs),
(388,310,o),
(367,262,o),
(328,209,cs),
(316,193,o),
(305,170,o),
(287,152,c),
(290,171,o),
(292,187,o),
(294,199,cs),
(298,217,o),
(299,241,o),
(299,264,cs),
(299,364,o),
(269,451,o),
(222,492,cs),
(193,517,o),
(169,528,o),
(140,528,cs),
(69,528,o),
(4,444,o),
(4,352,c),
(58,352,l),
(58,403,o),
(98,447,o),
(140,447,cs),
(156,447,o),
(173,441,o),
(186,430,cs),
(225,397,o),
(245,343,o),
(245,264,cs),
(245,244,o),
(243,229,o),
(241,213,cs),
(238,191,o),
(229,165,o),
(210,128,cs),
(200,109,o),
(190,66,o),
(180,59,c),
(181,59,l),
(146,12,o),
(164,-40,o),
(212,-8,cs),
(234,8,o),
(259,33,o),
(266,48,c),
(270,51,o),
(280,57,o),
(296,71,cs),
(321,93,o),
(346,127,o),
(372,161,cs),
(417,219,o),
(441,296,o),
(443,389,c),
(456,367,o),
(464,348,o),
(466,328,cs),
(468,308,o),
(469,290,o),
(469,272,cs),
(469,231,o),
(460,175,o),
(441,114,cs),
(434,94,o),
(408,61,o),
(400,16,cs),
(392,-29,o),
(416,-41,o),
(457,-16,cs)
);
}
);
width = 717;
}
);
unicode = 119;
},
{
color = 6;
glyphname = x;
layers = (
{
anchors = (
{
name = bottom;
pos = (314,0);
},
{
name = top;
pos = (314,505);
}
);
layerId = "BC735296-CD3A-4FA4-9AA9-EE2D747BC69E";
shapes = (
{
closed = 1;
nodes = (
(468,-18,o),
(520,60,o),
(520,136,cs),
(520,152,o),
(518,169,o),
(514,177,c),
(511,177,l),
(464,149,l),
(466,140,o),
(466,137,o),
(465,136,c),
(465,101,o),
(441,63,o),
(417,63,cs),
(409,63,o),
(408,63,o),
(405,65,c),
(381,95,o),
(373,126,o),
(360,160,cs),
(347,192,o),
(336,224,o),
(325,256,c),
(355,293,o),
(405,341,o),
(507,430,cs),
(509,432,o),
(513,433,o),
(515,434,c),
(518,434,ls),
(543,434,o),
(533,382,o),
(576,382,cs),
(578,382,l),
(578,463,l),
(576,463,ls),
(582,463,o),
(560,515,o),
(518,515,cs),
(509,515,o),
(502,513,o),
(491,507,cs),
(464,494,o),
(438,464,o),
(414,440,cs),
(382,412,o),
(339,374,o),
(301,329,c),
(289,366,o),
(278,402,o),
(265,437,cs),
(257,460,o),
(246,507,o),
(226,522,c),
(218,532,o),
(214,534,o),
(202,534,cs),
(163,534,o),
(102,450,o),
(91,437,cs),
(90,436,o),
(44,399,o),
(44,361,c),
(95,361,l),
(95,339,o),
(112,363,o),
(133,384,cs),
(136,387,o),
(178,446,o),
(198,453,c),
(205,442,o),
(207,430,o),
(213,411,cs),
(228,364,o),
(243,318,o),
(258,273,c),
(236,240,o),
(214,201,o),
(186,167,cs),
(170,146,o),
(157,129,o),
(138,112,cs),
(129,105,o),
(116,91,o),
(99,78,c),
(98,78,l),
(95,71,o),
(95,72,o),
(86,72,cs),
(60,72,o),
(58,73,o),
(58,102,cs),
(58,127,o),
(63,156,o),
(63,180,c),
(9,180,l),
(9,164,o),
(4,134,o),
(4,102,cs),
(4,31,o),
(34,-9,o),
(86,-9,cs),
(101,-9,o),
(110,-5,o),
(124,7,c),
(137,14,o),
(152,33,o),
(175,54,cs),
(188,65,o),
(203,83,o),
(220,105,cs),
(243,131,o),
(263,163,o),
(284,197,c),
(292,174,o),
(301,152,o),
(310,130,cs),
(324,96,o),
(337,48,o),
(360,19,cs),
(378,-7,o),
(394,-18,o),
(417,-18,cs)
);
}
);
width = 578;
}
);
unicode = 120;
},
{
color = 6;
glyphname = y;
kernLeft = v;
kernRight = v;
layers = (
{
anchors = (
{
name = bottom;
pos = (253,3);
},
{
name = top;
pos = (263,508);
}
);
layerId = "BC735296-CD3A-4FA4-9AA9-EE2D747BC69E";
shapes = (
{
closed = 1;
nodes = (
(-183,-347,ls),
(-83,-347,o),
(17,-316,o),
(68,-273,c),
(68,-273,ls),
(96,-250,o),
(131,-218,o),
(164,-179,cs),
(178,-162,o),
(190,-136,o),
(205,-118,cs),
(215,-105,o),
(230,-90,o),
(246,-71,c),
(265,-82,o),
(286,-75,o),
(289,-50,c),
(292,-39,o),
(292,-24,o),
(291,-10,c),
(337,58,o),
(398,168,o),
(419,239,cs),
(439,310,o),
(463,438,o),
(463,516,c),
(461,516,l),
(420,497,l),
(391,507,l),
(389,507,l),
(389,438,o),
(387,332,o),
(367,261,cs),
(358,231,o),
(335,183,o),
(307,133,c),
(308,143,l),
(308,265,o),
(271,393,o),
(213,468,cs),
(179,513,o),
(148,535,o),
(116,535,cs),
(57,535,o),
(12,459,o),
(12,364,c),
(67,364,l),
(67,428,o),
(80,464,o),
(106,464,cs),
(122,464,o),
(151,444,o),
(170,419,cs),
(224,349,o),
(253,251,o),
(253,143,cs),
(253,104,o),
(249,74,o),
(240,40,cs),
(235,20,l),
(231,14,o),
(227,8,o),
(223,3,cs),
(210,-14,o),
(187,-36,o),
(162,-67,cs),
(143,-92,o),
(143,-102,o),
(122,-127,cs),
(105,-148,o),
(79,-172,o),
(33,-211,c),
(34,-211,l),
(34,-212,l),
(32,-212,l),
(1,-240,o),
(-106,-266,o),
(-183,-266,cs),
(-203,-266,ls),
(-225,-264,o),
(-261,-251,o),
(-259,-246,c),
(-299,-193,l),
(-301,-193,l),
(-338,-201,o),
(-333,-274,o),
(-294,-306,c),
(-272,-330,o),
(-241,-344,o),
(-203,-347,cs)
);
}
);
width = 456;
}
);
unicode = 121;
},
{
color = 6;
glyphname = z;
layers = (
{
anchors = (
{
name = bottom;
pos = (247,5);
},
{
name = top;
pos = (307,509);
}
);
layerId = "BC735296-CD3A-4FA4-9AA9-EE2D747BC69E";
shapes = (
{
closed = 1;
nodes = (
(513,-456,o),
(519,-456,o),
(529,-455,cs),
(542,-453,o),
(570,-432,o),
(590,-409,c),
(552,-356,l),
(549,-356,l),
(545,-361,o),
(529,-372,o),
(523,-374,cs),
(519,-375,o),
(512,-375,o),
(497,-375,cs),
(439,-375,o),
(376,-354,o),
(358,-327,cs),
(317,-266,o),
(298,-196,o),
(293,-90,cs),
(292,-81,o),
(296,-51,o),
(296,-25,cs),
(296,-8,o),
(294,10,o),
(290,18,c),
(290,18,l),
(278,43,o),
(270,67,o),
(260,88,c),
(256,103,o),
(249,125,o),
(245,130,cs),
(243,133,o),
(242,135,o),
(240,137,c),
(260,153,o),
(281,170,o),
(303,192,cs),
(348,238,o),
(388,283,o),
(422,329,c),
(432,327,o),
(440,326,o),
(446,326,cs),
(450,326,o),
(456,327,o),
(464,330,cs),
(499,341,o),
(554,439,o),
(554,487,cs),
(554,538,o),
(547,566,o),
(525,570,cs),
(496,574,o),
(457,497,o),
(445,476,cs),
(433,456,o),
(421,435,o),
(406,415,c),
(345,436,o),
(256,490,o),
(237,507,cs),
(209,531,o),
(186,552,o),
(159,564,cs),
(150,567,o),
(143,569,o),
(139,569,cs),
(111,569,o),
(99,539,o),
(85,517,c),
(85,517,l),
(62,482,o),
(49,448,o),
(49,418,cs),
(49,371,o),
(64,363,o),
(64,345,c),
(118,345,l),
(118,390,o),
(103,399,o),
(103,418,cs),
(103,428,o),
(110,442,o),
(131,473,cs),
(136,480,o),
(139,485,o),
(142,487,c),
(143,487,o),
(144,487,o),
(146,486,c),
(171,473,o),
(186,459,o),
(202,445,cs),
(237,414,o),
(302,377,o),
(359,352,c),
(332,320,o),
(301,286,o),
(265,249,cs),
(240,225,o),
(207,202,o),
(166,168,c),
(167,168,l),
(167,167,l),
(165,167,l),
(155,158,o),
(144,148,o),
(133,138,c),
(105,123,o),
(73,101,o),
(40,75,c),
(39,75,l),
(7,48,o),
(-15,14,o),
(-16,-12,c),
(14,-49,l),
(15,-49,ls),
(26,-49,o),
(31,-45,o),
(44,-32,c),
(52,-26,o),
(67,-15,o),
(98,11,cs),
(118,27,o),
(136,46,o),
(156,65,c),
(171,72,o),
(186,77,o),
(198,77,cs),
(200,77,o),
(201,77,o),
(203,77,c),
(206,71,o),
(211,59,o),
(215,52,c),
(211,52,l),
(223,28,o),
(231,3,o),
(241,-18,c),
(243,-18,l),
(242,-20,o),
(242,-22,o),
(242,-25,cs),
(242,-45,o),
(237,-80,o),
(239,-97,c),
(244,-213,o),
(269,-306,o),
(313,-372,cs),
(350,-427,o),
(413,-456,o),
(497,-456,cs)
);
}
);
width = 515;
}
);
unicode = 122;
},
{
color = 6;
glyphname = a_x;
layers = (
{
anchors = (
{
name = caret_1;
pos = (367,0);
}
);
layerId = "BC735296-CD3A-4FA4-9AA9-EE2D747BC69E";
shapes = (
{
closed = 1;
nodes = (
(52,-246,o),
(100,-241,o),
(137,-237,cs),
(289,-223,o),
(359,-192,o),
(506,-79,cs),
(533,-59,o),
(577,-39,o),
(617,17,cs),
(656,71,o),
(690,133,o),
(724,195,c),
(726,166,o),
(731,59,o),
(764,23,cs),
(786,-1,o),
(813,-13,o),
(846,-13,cs),
(896,-13,o),
(951,14,o),
(990,37,cs),
(1009,48,o),
(1022,69,o),
(1038,86,cs),
(1067,119,o),
(1082,149,o),
(1073,167,c),
(1025,131,l),
(997,140,l),
(978,118,o),
(989,121,o),
(963,106,cs),
(922,82,o),
(878,67,o),
(846,67,cs),
(827,67,o),
(808,72,o),
(804,77,cs),
(786,96,o),
(781,138,o),
(777,205,cs),
(776,233,o),
(773,258,o),
(770,280,c),
(779,296,o),
(788,311,o),
(797,326,cs),
(840,398,o),
(878,422,o),
(967,433,c),
(968,434,o),
(971,434,o),
(974,434,cs),
(994,434,o),
(992,436,o),
(995,430,c),
(1050,408,l),
(1063,413,o),
(1060,431,o),
(1043,465,cs),
(1028,498,o),
(1005,514,o),
(974,514,cs),
(969,514,o),
(966,514,o),
(960,513,cs),
(860,500,o),
(810,466,o),
(752,371,c),
(738,421,o),
(719,460,o),
(695,499,cs),
(666,547,o),
(640,538,o),
(600,485,cs),
(579,458,o),
(557,419,o),
(534,372,cs),
(488,274,o),
(437,199,o),
(367,112,cs),
(363,107,o),
(356,100,o),
(347,94,c),
(347,100,o),
(346,106,o),
(346,113,cs),
(346,216,o),
(368,361,o),
(428,451,c),
(405,474,l),
(405,474,o),
(405,475,o),
(405,476,c),
(402,476,l),
(383,495,l),
(379,489,o),
(375,483,o),
(371,476,c),
(351,476,l),
(351,462,o),
(344,438,o),
(332,412,c),
(294,450,o),
(244,479,o),
(192,494,cs),
(179,498,o),
(166,500,o),
(158,503,cs),
(137,510,o),
(137,515,o),
(129,502,cs),
(65,389,o),
(30,271,o),
(29,143,cs),
(28,115,o),
(26,85,o),
(26,55,cs),
(26,38,o),
(27,22,o),
(29,8,cs),
(31,-9,o),
(38,-19,o),
(48,-15,cs),
(69,-7,o),
(88,19,o),
(105,35,cs),
(135,61,o),
(173,84,o),
(204,123,cs),
(236,163,o),
(266,198,o),
(301,242,c),
(295,195,o),
(292,151,o),
(292,113,cs),
(292,53,o),
(293,7,o),
(299,2,cs),
(304,-3,o),
(309,-5,o),
(315,-5,cs),
(344,-5,o),
(396,45,o),
(410,62,cs),
(477,146,o),
(535,237,o),
(583,337,cs),
(601,375,o),
(620,406,o),
(643,436,cs),
(649,445,o),
(654,446,o),
(656,446,c),
(686,394,o),
(700,348,o),
(710,296,c),
(667,218,o),
(626,137,o),
(573,63,cs),
(553,35,o),
(506,9,o),
(474,-16,cs),
(355,-106,o),
(289,-142,o),
(132,-158,cs),
(94,-162,o),
(50,-166,o),
(6,-166,cs),
(-79,-166,o),
(-141,-147,o),
(-178,-111,c),
(-216,-167,l),
(-159,-224,o),
(-97,-246,o),
(6,-246,cs)
);
},
{
closed = 1;
nodes = (
(82,117,o),
(83,129,o),
(83,142,cs),
(84,243,o),
(106,329,o),
(154,422,c),
(166,419,o),
(174,418,o),
(177,417,cs),
(225,403,o),
(272,378,o),
(297,353,c),
(322,390,l),
(306,357,o),
(285,323,o),
(263,296,cs),
(232,259,o),
(202,223,o),
(162,173,cs),
(148,156,o),
(119,137,o),
(81,105,c)
);
},
{
closed = 1;
nodes = (
(649,458,ls),
(649,458,o),
(650,457,o),
(650,457,cs)
);
}
);
width = 1112;
}
);
},
{
color = 6;
glyphname = c_t;
layers = (
{
anchors = (
{
name = caret_1;
pos = (299,0);
}
);
layerId = "BC735296-CD3A-4FA4-9AA9-EE2D747BC69E";
shapes = (
{
closed = 1;
nodes = (
(411,-14,o),
(463,18,o),
(512,62,c),
(515,66,o),
(526,75,o),
(544,92,cs),
(565,112,o),
(575,131,o),
(575,155,c),
(536,132,l),
(527,132,o),
(521,143,o),
(521,155,cs),
(521,169,o),
(527,170,o),
(507,150,cs),
(500,143,o),
(489,134,o),
(475,121,cs),
(467,114,o),
(414,70,o),
(386,66,c),
(389,99,o),
(401,164,o),
(405,181,cs),
(423,256,o),
(452,321,o),
(484,388,c),
(508,388,o),
(531,388,o),
(561,388,cs),
(607,388,ls),
(620,388,o),
(635,389,o),
(646,389,c),
(647,423,l),
(653,420,o),
(657,418,o),
(660,418,c),
(649,448,l),
(634,449,o),
(620,448,o),
(607,448,cs),
(582,448,o),
(587,448,o),
(561,448,cs),
(514,448,l),
(529,481,o),
(545,514,o),
(560,550,cs),
(564,560,o),
(568,570,o),
(572,581,c),
(665,624,l),
(696,646,o),
(690,720,o),
(657,729,cs),
(645,733,o),
(637,734,o),
(629,734,cs),
(577,734,o),
(550,688,o),
(533,644,c),
(525,642,o),
(516,639,o),
(507,636,cs),
(453,618,o),
(404,611,o),
(350,613,cs),
(320,614,o),
(296,621,o),
(274,621,cs),
(241,621,o),
(220,603,o),
(204,560,cs),
(201,553,o),
(200,541,o),
(200,532,cs),
(200,525,o),
(201,519,o),
(202,513,c),
(166,497,o),
(136,472,o),
(112,441,cs),
(57,367,o),
(26,274,o),
(26,190,cs),
(26,159,o),
(30,128,o),
(38,99,cs),
(42,81,o),
(46,62,o),
(52,47,cs),
(58,29,o),
(67,20,o),
(67,18,cs),
(69,-3,l),
(87,-20,o),
(199,9,o),
(243,34,cs),
(248,37,o),
(288,65,o),
(280,65,c),
(280,145,l),
(267,145,o),
(228,110,o),
(216,103,cs),
(164,74,o),
(123,73,o),
(107,70,c),
(103,75,o),
(101,77,o),
(102,75,cs),
(96,90,o),
(94,105,o),
(90,119,cs),
(83,146,o),
(80,166,o),
(80,190,cs),
(80,257,o),
(103,323,o),
(155,393,c),
(241,438,l),
(249,428,o),
(257,420,o),
(262,413,cs),
(267,407,o),
(272,402,o),
(276,397,c),
(276,395,o),
(276,394,o),
(276,393,cs),
(276,394,o),
(276,395,o),
(276,396,c),
(281,390,o),
(285,385,o),
(288,382,cs),
(290,380,o),
(304,342,o),
(323,362,cs),
(327,367,o),
(330,380,o),
(330,393,cs),
(330,403,o),
(329,416,o),
(327,428,c),
(332,429,l),
(330,432,o),
(327,435,o),
(325,438,c),
(323,450,o),
(321,460,o),
(321,464,cs),
(318,502,l),
(309,513,o),
(299,520,o),
(281,529,cs),
(276,531,o),
(273,532,o),
(270,532,cs),
(264,532,o),
(259,531,o),
(254,530,c),
(254,531,o),
(254,531,o),
(254,532,c),
(255,532,l),
(260,545,o),
(255,541,o),
(274,541,cs),
(292,541,o),
(316,534,o),
(349,533,cs),
(400,531,o),
(445,537,o),
(498,551,c),
(482,517,o),
(465,483,o),
(448,448,c),
(413,448,l),
(428,404,l),
(398,343,o),
(371,277,o),
(353,199,cs),
(349,183,o),
(332,93,o),
(332,56,cs),
(332,37,o),
(338,14,o),
(344,7,cs),
(360,-9,o),
(365,-14,o),
(383,-14,cs)
);
}
);
width = 658;
}
);
},
{
color = 6;
glyphname = f_f;
layers = (
{
anchors = (
{
name = caret_1;
pos = (263,0);
}
);
layerId = "BC735296-CD3A-4FA4-9AA9-EE2D747BC69E";
shapes = (
{
closed = 1;
nodes = (
(338,-217,o),
(366,-184,o),
(384,-124,cs),
(409,-37,o),
(404,62,o),
(415,141,cs),
(420,172,o),
(422,185,o),
(429,228,cs),
(436,277,o),
(453,342,o),
(471,407,c),
(511,410,o),
(556,414,o),
(592,416,c),
(588,491,l),
(560,489,o),
(525,486,o),
(491,484,c),
(495,498,o),
(499,513,o),
(505,531,cs),
(516,566,o),
(540,608,o),
(566,662,c),
(568,663,o),
(572,663,o),
(577,663,cs),
(614,663,o),
(671,655,o),
(675,654,c),
(688,653,o),
(688,644,o),
(709,644,c),
(709,734,l),
(702,734,o),
(691,743,o),
(680,744,cs),
(671,744,o),
(615,753,o),
(577,753,cs),
(547,753,o),
(538,750,o),
(530,729,cs),
(509,680,o),
(475,624,o),
(454,558,cs),
(446,533,o),
(440,507,o),
(434,480,c),
(432,480,o),
(430,480,o),
(428,480,cs),
(403,479,o),
(376,479,o),
(346,479,cs),
(296,479,o),
(246,480,o),
(196,481,c),
(206,573,o),
(209,587,o),
(228,634,c),
(222,612,o),
(224,609,o),
(236,609,cs),
(277,609,o),
(335,581,o),
(344,576,c),
(373,600,l),
(427,600,l),
(427,630,o),
(373,652,o),
(372,652,c),
(332,678,o),
(270,699,o),
(236,699,cs),
(208,699,o),
(193,689,o),
(181,665,cs),
(153,613,o),
(147,541,o),
(140,483,c),
(122,483,o),
(103,483,o),
(85,483,c),
(86,408,l),
(101,408,o),
(117,408,o),
(132,408,c),
(122,320,o),
(115,240,o),
(100,147,cs),
(91,92,o),
(87,45,o),
(70,-5,cs),
(64,-24,o),
(23,-128,o),
(3,-137,c),
(4,-136,o),
(2,-136,o),
(-1,-136,cs),
(-20,-136,o),
(-79,-91,o),
(-79,-84,c),
(-133,-84,l),
(-133,-145,o),
(-61,-216,o),
(-1,-216,cs),
(9,-216,o),
(10,-215,o),
(24,-210,cs),
(45,-200,o),
(96,-108,o),
(121,-35,cs),
(139,19,o),
(144,79,o),
(153,132,cs),
(169,229,o),
(177,313,o),
(187,407,c),
(240,406,o),
(294,404,o),
(347,404,cs),
(371,404,o),
(393,404,o),
(415,405,c),
(400,354,o),
(384,301,o),
(375,242,cs),
(370,206,o),
(367,184,o),
(361,143,cs),
(350,60,o),
(354,-23,o),
(332,-99,cs),
(326,-119,o),
(316,-137,o),
(297,-137,cs),
(282,-137,o),
(263,-120,o),
(246,-109,cs),
(220,-91,o),
(215,-77,o),
(215,-97,c),
(161,-97,l),
(161,-138,o),
(176,-156,o),
(216,-183,cs),
(252,-208,o),
(271,-217,o),
(297,-217,cs)
);
}
);
width = 626;
}
);
},
{
color = 6;
glyphname = f_f_i;
layers = (
{
anchors = (
{
name = caret_1;
pos = (292,0);
},
{
name = caret_2;
pos = (584,0);
}
);
layerId = "BC735296-CD3A-4FA4-9AA9-EE2D747BC69E";
shapes = (
{
closed = 1;
nodes = (
(26,-209,o),
(35,-206,o),
(58,-193,cs),
(87,-177,o),
(83,-181,o),
(101,-154,cs),
(131,-111,o),
(140,-35,o),
(148,5,cs),
(153,30,o),
(164,62,o),
(173,105,cs),
(197,210,o),
(203,296,o),
(209,398,c),
(244,397,o),
(280,397,o),
(319,397,cs),
(352,397,o),
(386,397,o),
(419,398,c),
(402,272,o),
(400,140,o),
(385,36,cs),
(378,-11,o),
(375,-72,o),
(352,-108,cs),
(343,-123,o),
(333,-129,o),
(317,-129,cs),
(300,-129,o),
(281,-120,o),
(259,-111,cs),
(239,-102,o),
(230,-97,o),
(218,-85,c),
(182,-138,l),
(210,-166,o),
(219,-174,o),
(240,-183,cs),
(273,-197,o),
(297,-208,o),
(319,-208,cs),
(352,-208,o),
(372,-190,o),
(400,-145,cs),
(430,-97,o),
(432,-22,o),
(438,23,cs),
(456,146,o),
(455,277,o),
(475,399,c),
(527,400,o),
(580,402,o),
(632,404,cs),
(669,405,o),
(708,398,o),
(746,394,c),
(723,378,l),
(711,342,o),
(683,290,o),
(667,224,cs),
(658,187,o),
(655,142,o),
(653,105,cs),
(652,97,o),
(648,54,o),
(648,29,cs),
(648,-4,o),
(658,-36,o),
(673,-43,cs),
(720,-62,o),
(792,23,o),
(817,44,c),
(782,113,l),
(772,104,o),
(724,53,o),
(702,42,c),
(703,62,o),
(706,88,o),
(707,99,cs),
(709,134,o),
(711,168,o),
(719,202,cs),
(730,245,o),
(755,294,o),
(774,349,cs),
(778,362,o),
(785,376,o),
(791,391,c),
(792,391,ls),
(792,391,o),
(791,391,o),
(791,391,c),
(805,425,o),
(818,459,o),
(806,472,cs),
(799,479,o),
(799,481,o),
(792,481,cs),
(739,481,o),
(684,475,o),
(630,474,cs),
(583,472,o),
(536,471,o),
(488,469,c),
(499,513,o),
(513,555,o),
(533,594,c),
(593,684,l),
(744,653,l),
(790,571,l),
(855,604,o),
(853,650,o),
(824,690,cs),
(806,713,o),
(766,731,o),
(710,745,cs),
(684,751,o),
(663,754,o),
(643,754,cs),
(574,754,o),
(527,718,o),
(485,635,cs),
(478,622,o),
(472,608,o),
(466,594,c),
(441,617,o),
(420,637,o),
(390,652,cs),
(368,662,o),
(346,674,o),
(329,680,cs),
(305,688,o),
(283,687,o),
(262,687,cs),
(197,687,o),
(185,672,o),
(171,590,cs),
(164,550,o),
(162,509,o),
(160,470,c),
(138,471,o),
(117,472,o),
(96,473,c),
(93,404,l),
(113,403,o),
(134,401,o),
(155,400,c),
(148,303,o),
(143,226,o),
(121,125,cs),
(114,95,o),
(103,62,o),
(95,24,cs),
(85,-24,o),
(82,-75,o),
(57,-113,cs),
(58,-111,o),
(43,-118,o),
(33,-124,cs),
(27,-127,o),
(16,-129,o),
(7,-129,cs),
(-22,-129,o),
(-54,-97,o),
(-67,-68,c),
(-116,-106,l),
(-86,-171,o),
(-42,-209,o),
(7,-209,cs)
);
},
{
closed = 1;
nodes = (
(282,467,o),
(247,467,o),
(214,468,c),
(216,505,o),
(218,539,o),
(224,575,cs),
(237,656,o),
(231,597,o),
(262,597,cs),
(312,594,l),
(338,586,o),
(356,576,o),
(367,570,cs),
(400,555,o),
(389,559,o),
(428,524,c),
(454,560,l),
(445,531,o),
(437,500,o),
(431,468,c),
(394,467,o),
(356,467,o),
(319,467,cs)
);
}
);
width = 876;
}
);
},
{
color = 6;
glyphname = f_m;
layers = (
{
anchors = (
{
name = caret_1;
pos = (314,0);
}
);
layerId = "BC735296-CD3A-4FA4-9AA9-EE2D747BC69E";
shapes = (
{
closed = 1;
nodes = (
(12,-253,o),
(21,-250,o),
(39,-243,cs),
(46,-240,o),
(104,-140,o),
(124,-98,cs),
(132,-83,o),
(138,-59,o),
(146,-36,cs),
(175,49,o),
(171,153,o),
(175,232,cs),
(179,300,o),
(185,370,o),
(192,441,c),
(212,443,o),
(232.995,444,o),
(253,444,cs),
(289,444,o),
(321,440,o),
(357,440,cs),
(368,440,o),
(377,440,o),
(388,441,cs),
(393,441,o),
(462,444,o),
(513,445,c),
(508,429,o),
(502,408,o),
(496,385,cs),
(477,307,o),
(465,225,o),
(445,142,cs),
(441,127,o),
(439,112,o),
(435,96,c),
(424,82,o),
(416,64,o),
(415,38,cs),
(414,2,o),
(464,-32,o),
(479,2,cs),
(480,4,o),
(481,6,o),
(480,9,c),
(485,32,o),
(509,58,o),
(542,110,cs),
(595,188,o),
(658,275,o),
(728,375,cs),
(736,387,o),
(747,401,o),
(765,422,c),
(770,417,o),
(775,410,o),
(775,404,cs),
(781,364,o),
(783,326,o),
(783,282,cs),
(783,225,o),
(779,166,o),
(770,97,cs),
(764,53,o),
(710,17,o),
(750,34,c),
(749,30,o),
(748,25,o),
(748,20,cs),
(748,3,o),
(757,-14,o),
(771,-26,cs),
(773,-28,o),
(780,-44,o),
(796,-36,cs),
(804,-32,o),
(810,-7,o),
(817,35,c),
(866,132,o),
(917,245,o),
(965,350,cs),
(983,388,o),
(996,407,o),
(1004,417,c),
(1013,408,o),
(1016,396,o),
(1017,375,cs),
(1017,355,o),
(1018,339,o),
(1018,325,cs),
(1018,288,o),
(1016,261,o),
(1011,229,cs),
(1003,173,o),
(996,153,o),
(996,78,cs),
(996,67,o),
(997,55,o),
(998,46,cs),
(1000,8,o),
(1017,-21,o),
(1045,-21,cs),
(1060,-21,o),
(1075,-13,o),
(1108,9,cs),
(1134,26,o),
(1157,44,o),
(1196,79,cs),
(1202,85,o),
(1228,122,o),
(1245,148,c),
(1207,212,ls),
(1207,212,o),
(1160,146,o),
(1159,146,c),
(1132,121,o),
(1113,106,o),
(1079,84,cs),
(1067,76,o),
(1057,72,o),
(1051,70,c),
(1051,72,o),
(1050,75,o),
(1050,78,cs),
(1050,139,o),
(1058,179,o),
(1065,217,cs),
(1070,251,o),
(1072,289,o),
(1072,325,cs),
(1072,342,o),
(1071,359,o),
(1071,379,cs),
(1068,445,o),
(1034,506,o),
(992,517,cs),
(974,521,o),
(975,516,o),
(916,388,cs),
(889,329,o),
(863,271,o),
(836,213,c),
(837,237,o),
(837,260,o),
(837,282,cs),
(837,328,o),
(834,375,o),
(829,416,cs),
(821,474,o),
(799,533,o),
(779,537,cs),
(765,539,o),
(750,512,o),
(741,501,cs),
(720,476,o),
(702,452,o),
(683,426,cs),
(629,348,o),
(570,267,o),
(511,179,c),
(524,240,o),
(534,301,o),
(549,364,cs),
(555,389,o),
(562,412,o),
(569,435,cs),
(585,488,o),
(602,492,o),
(570,503,cs),
(564,505,o),
(557,505,o),
(540,505,cs),
(492,505,o),
(393,501,o),
(384,501,cs),
(376,500,o),
(366,500,o),
(357,500,cs),
(322,500,o),
(289,504,o),
(253,504,cs),
(235,504,o),
(216,503,o),
(197,501,c),
(198,512,o),
(199,522,o),
(199,533,cs),
(201,555,o),
(200,593,o),
(203,618,c),
(206,618,o),
(210,618,o),
(216,618,cs),
(228,618,o),
(240,617,o),
(246,617,cs),
(292,618,o),
(320,605,o),
(357,589,cs),
(384,579,o),
(404,574,o),
(395,583,c),
(433,647,l),
(411,669,o),
(392,667,o),
(377,673,cs),
(329,692,o),
(296,708,o),
(245,707,cs),
(240,707,o),
(229,708,o),
(216,708,cs),
(184,708,o),
(173,704,o),
(162,686,cs),
(145,660,o),
(147,564,o),
(145,540,cs),
(144,525,o),
(143,511,o),
(142,496,c),
(119,493,o),
(95,490,o),
(71,488,c),
(76,429,l),
(96,431,o),
(116,433,o),
(137,435,c),
(131,370,o),
(125,303,o),
(121,236,cs),
(117,154,o),
(120,68,o),
(95,-7,cs),
(89,-24,o),
(85,-40,o),
(76,-59,cs),
(74,-63,o),
(43,-118,o),
(19,-159,c),
(18,-160,o),
(9,-163,o),
(5,-163,cs),
(-48,-163,o),
(-51,-123,o),
(-91,-99,c),
(-118,-176,l),
(-103,-185,o),
(-54,-253,o),
(5,-253,cs)
);
},
{
closed = 1;
nodes = (
(978,429,ls),
(979,429,o),
(979,429,o),
(980,429,cs)
);
}
);
width = 1281;
}
);
},
{
color = 6;
glyphname = f_n;
layers = (
{
anchors = (
{
name = caret_1;
pos = (233,0);
}
);
layerId = "BC735296-CD3A-4FA4-9AA9-EE2D747BC69E";
shapes = (
{
closed = 1;
nodes = (
(101,-80,o),
(117,218,o),
(146,366,c),
(169,451,l),
(206,450,o),
(241,442,o),
(280,442,cs),
(334,442,o),
(370,444,o),
(424,447,cs),
(452,448,o),
(498,451,o),
(516,455,c),
(510,436,o),
(499,403,o),
(491,381,c),
(467,408,l),
(467,371,o),
(468,341,o),
(469,318,c),
(463,298,o),
(459,279,o),
(454,262,c),
(436,236,o),
(414,207,o),
(382,170,cs),
(355,139,o),
(342,108,o),
(342,71,cs),
(342,17,o),
(383,-55,o),
(419,-43,cs),
(458,-31,o),
(474,83,o),
(478,103,cs),
(486,146,o),
(492,177,o),
(499,211,c),
(538,266,o),
(572,319,o),
(621,373,cs),
(637,390,o),
(666,415,o),
(690,455,cs),
(692,458,o),
(693,460,o),
(695,462,c),
(696,460,o),
(696,458,o),
(700,453,cs),
(726,420,o),
(737,388,o),
(737,347,cs),
(737,292,o),
(716,234,o),
(700,170,cs),
(695,151,o),
(690,130,o),
(684,106,cs),
(681,96,o),
(679,86,o),
(677,78,c),
(667,75,o),
(644,63,o),
(623,34,c),
(664,22,l),
(665,-21,l),
(667,-18,o),
(696,-7,o),
(709,1,cs),
(778,44,o),
(821,93,o),
(839,147,c),
(788,175,l),
(783,162,o),
(770,145,o),
(746,124,c),
(748,132,o),
(750,140,o),
(752,148,cs),
(765,198,o),
(791,271,o),
(791,347,cs),
(791,408,o),
(772,470,o),
(743,508,c),
(739,512,o),
(721,546,o),
(707,551,cs),
(695,555,o),
(700,555,o),
(691,555,cs),
(658,555,o),
(644,501,o),
(644,502,c),
(634,485,o),
(605,474,o),
(569,428,cs),
(567,425,l),
(568,430,o),
(570,435,o),
(572,441,cs),
(580,467,o),
(574,482,o),
(562,494,cs),
(528,528,o),
(526,512,o),
(421,507,cs),
(369,504,o),
(333,502,o),
(280,502,cs),
(248,502,o),
(217,508,o),
(184,510,c),
(215,626,l),
(216,626,o),
(225,627,o),
(262,627,cs),
(291,627,o),
(337,619,o),
(351,616,cs),
(385,606,o),
(416,594,o),
(455,575,c),
(479,656,l),
(365,703,l),
(335,710,o),
(288,717,o),
(262,717,cs),
(243,717,o),
(242,717,o),
(224,709,cs),
(160,679,o),
(129,590,o),
(112,508,c),
(99,506,o),
(85,505,o),
(72,505,c),
(72,445,l),
(81.995,445,o),
(92,446,o),
(102,446,c),
(98,416,o),
(95,390,o),
(92,371,cs),
(57,131,o),
(31,-57,o),
(-42,-144,c),
(-39,-115,l),
(-38,-115,o),
(-53,-102,o),
(-53,-103,c),
(-97,-46,l),
(-97,-136,l),
(-104,-134,l),
(-98,-149,o),
(-88,-166,o),
(-78,-177,cs),
(-61,-195,o),
(-11,-214,o),
(-1,-201,cs)
);
},
{
closed = 1;
nodes = (
(402,51,o),
(396,57,o),
(396,71,cs),
(396,81,o),
(408,95,o),
(422,111,cs),
(424,113,l),
(421,96,o),
(415,62,o),
(408,48,c)
);
},
{
closed = 1;
nodes = (
(691,465,o),
(690,465,o),
(690,465,c),
(690,465,o),
(691,465,o),
(691,465,cs),
(691,465,ls)
);
}
);
width = 876;
}
);
},
{
color = 6;
glyphname = f_o;
layers = (
{
anchors = (
{
name = caret_1;
pos = (258,0);
}
);
layerId = "BC735296-CD3A-4FA4-9AA9-EE2D747BC69E";
shapes = (
{
closed = 1;
nodes = (
(33,-214,o),
(37,-210,o),
(58,-192,cs),
(90,-164,o),
(114,-119,o),
(123,-33,cs),
(130,32,o),
(146,100,o),
(162,177,cs),
(179,260,o),
(188,357,o),
(204,444,c),
(354,444,ls),
(392,444,o),
(429,441,o),
(466,438,c),
(459,423,o),
(453,406,o),
(443,382,cs),
(416,310,o),
(362,192,o),
(362,102,cs),
(362,78,o),
(365,54,o),
(370,35,cs),
(379,5,o),
(395,-7,o),
(428,-7,cs),
(442,-7,o),
(456,-5,o),
(465,-5,cs),
(567,-5,o),
(593,9,o),
(634,94,cs),
(650,128,o),
(672,192,o),
(682,233,cs),
(690,268,o),
(705,320,o),
(705,366,cs),
(705,388,o),
(701,408,o),
(692,430,cs),
(669,487,o),
(646,507,o),
(601,507,cs),
(582,507,o),
(560,505,o),
(534,505,cs),
(475,505,o),
(415,509,o),
(354,509,cs),
(214,509,l),
(220,544,o),
(226,585,o),
(234,613,c),
(240,610,o),
(258,616,o),
(288,617,cs),
(302,617,o),
(318,618,o),
(334,618,cs),
(367,618,o),
(399,612,o),
(409,606,c),
(438,681,l),
(408,701,o),
(379,708,o),
(334,708,cs),
(318,708,o),
(302,707,o),
(287,707,cs),
(229,705,o),
(213,708,o),
(199,687,cs),
(182,661,o),
(168,566,o),
(159,509,c),
(153,510,o),
(146,510,o),
(138,510,cs),
(107,510,o),
(102,510,o),
(91,499,c),
(130,441,l),
(138,445,l),
(142,445,o),
(145,445,o),
(148,445,c),
(134,364,o),
(125,275,o),
(109,195,cs),
(95,126,o),
(78,53,o),
(70,-23,cs),
(63,-88,o),
(51,-120,o),
(23,-144,cs),
(24,-143,o),
(20,-144,o),
(13,-144,cs),
(-5,-144,o),
(-59,-118,o),
(-61,-110,c),
(-112,-138,l),
(-95,-169,o),
(-37,-214,o),
(13,-214,cs)
);
},
{
closed = 1;
nodes = (
(417,77,o),
(416,85,o),
(416,102,cs),
(416,165,o),
(455,263,o),
(493,345,cs),
(527,422,o),
(494,404,o),
(525,426,c),
(517,435,l),
(523,435,o),
(529,435,o),
(534,435,cs),
(561,435,o),
(583,437,o),
(601,437,cs),
(634,437,o),
(632,420,o),
(641,397,cs),
(651,374,o),
(651,375,o),
(651,366,cs),
(651,340,o),
(644,311,o),
(629,253,cs),
(613,191,o),
(600,164,o),
(585,133,cs),
(565,90,o),
(553,85,o),
(465,85,cs),
(454,85,o),
(441,83,o),
(428,83,cs),
(422,83,o),
(426,81,o),
(422,59,c)
);
}
);
width = 718;
}
);
},
{
color = 6;
glyphname = f_r;
layers = (
{
anchors = (
{
name = caret_1;
pos = (236,0);
}
);
layerId = "BC735296-CD3A-4FA4-9AA9-EE2D747BC69E";
shapes = (
{
closed = 1;
nodes = (
(26,-227,o),
(74,-199,o),
(94,-158,cs),
(121,-104,o),
(137,-38,o),
(141,-14,cs),
(146,16,o),
(149,27,o),
(154,67,cs),
(161,117,o),
(163,168,o),
(170,219,cs),
(175,255,o),
(186,298,o),
(195,350,cs),
(200,379,o),
(203,403,o),
(207,425,c),
(217,426,o),
(226,427,o),
(236,428,cs),
(245,429,o),
(257,429,o),
(270,429,cs),
(305,429,o),
(340,427,o),
(377,428,cs),
(386,429,o),
(404,430,o),
(423,430,c),
(421,422,o),
(418,412,o),
(415,400,cs),
(392,307,o),
(377,189,o),
(353,100,c),
(347,56,l),
(341,44,o),
(333,22,o),
(333,7,cs),
(333,-16,o),
(339,-34,o),
(352,-34,cs),
(362,-34,o),
(374,-13,o),
(386,17,c),
(387,14,o),
(387,10,o),
(387,7,cs),
(387,3,o),
(387,-2,o),
(391,3,cs),
(420,43,o),
(468,79,o),
(501,134,cs),
(539,195,o),
(579,296,o),
(647,379,cs),
(674,411,o),
(734,396,o),
(750,395,c),
(755,484,l),
(724,487,o),
(653,494,o),
(606,436,cs),
(549,368,o),
(510,268,o),
(462,196,cs),
(450,178,o),
(435,160,o),
(420,142,c),
(435,220,o),
(444,298,o),
(467,374,cs),
(473,396,o),
(480,420,o),
(490,445,c),
(489,440,o),
(501,450,o),
(501,469,cs),
(501,501,o),
(482,507,o),
(425,507,cs),
(404,507,o),
(383,506,o),
(374,505,cs),
(339,504,o),
(304,506,o),
(269,506,cs),
(254,506,o),
(243,506,o),
(231,505,cs),
(229,505,o),
(226,505,o),
(224,504,c),
(226,513,o),
(228,521,o),
(231,530,cs),
(240,558,o),
(247,608,o),
(251,613,c),
(251,612,o),
(343,618,o),
(344,618,cs),
(359,618,o),
(381,617,o),
(383,616,c),
(411,609,o),
(397,614,o),
(443,590,c),
(467,671,l),
(442,684,o),
(421,697,o),
(397,703,cs),
(384,706,o),
(367,708,o),
(344,708,cs),
(278,708,o),
(235,699,o),
(213,676,cs),
(197,661,o),
(187,586,o),
(179,559,cs),
(173,538,o),
(168,518,o),
(164,498,c),
(133,494,o),
(102,491,o),
(72,491,c),
(73,414,l),
(99,414,o),
(124,416,o),
(150,419,c),
(148,402,o),
(145,385,o),
(142,366,cs),
(135,324,o),
(123,280,o),
(117,231,cs),
(110,181,o),
(108,130,o),
(101,79,cs),
(96,43,o),
(94,37,o),
(88,5,cs),
(83,-28,o),
(68,-72,o),
(46,-118,cs),
(51,-108,o),
(7,-125,o),
(18,-131,cs),
(-21,-111,o),
(-44,-83,o),
(-70,-56,c),
(-109,-120,l),
(-73,-156,o),
(-42,-194,o),
(-6,-212,cs)
);
}
);
width = 737;
}
);
},
{
color = 6;
glyphname = f_u;
layers = (
{
anchors = (
{
name = caret_1;
pos = (196,0);
}
);
layerId = "BC735296-CD3A-4FA4-9AA9-EE2D747BC69E";
shapes = (
{
closed = 1;
nodes = (
(31,-195,o),
(40,-190,o),
(47,-175,cs),
(72,-127,o),
(71,-70,o),
(82,-21,cs),
(94,34,o),
(109,89,o),
(120,149,cs),
(140,259,o),
(154,334,o),
(168,429,c),
(214,432,o),
(275,437,o),
(369,447,cs),
(391,450,o),
(414,451,o),
(437,452,cs),
(447,452,o),
(453,451,o),
(457,450,c),
(453,437,o),
(443,426,o),
(432,402,cs),
(394,323,o),
(356,229,o),
(331,148,cs),
(327,135,o),
(317,118,o),
(308,98,c),
(307,98,o),
(307,98,o),
(307,98,c),
(307,97,l),
(297,75,o),
(288,51,o),
(291,28,cs),
(291,29,o),
(291,9,o),
(302,8,cs),
(309,7,o),
(316,7,o),
(324,7,cs),
(361,7,o),
(397,15,o),
(430,30,cs),
(501,62,o),
(581,144,o),
(645,227,c),
(620,160,o),
(597,91,o),
(585,20,cs),
(580,-9,o),
(603,-6,o),
(639,13,c),
(638,9,o),
(638,6,o),
(638,5,cs),
(638,8,o),
(639,11,o),
(639,14,c),
(652,20,o),
(665,29,o),
(679,39,cs),
(725,71,o),
(761,132,o),
(788,180,c),
(742,225,l),
(711,173,o),
(695,151,o),
(671,130,c),
(696,202,o),
(728,278,o),
(758,360,cs),
(762,372,o),
(768,385,o),
(774,401,c),
(785,410,o),
(794,422,o),
(794,451,c),
(812,500,o),
(759,584,o),
(734,520,cs),
(729,508,o),
(726,493,o),
(723,476,c),
(715,457,o),
(702,434,o),
(686,404,cs),
(640,320,o),
(520,162,o),
(408,112,cs),
(400,108,o),
(389,105,o),
(377,102,c),
(379,106,o),
(380,109,o),
(381,112,cs),
(419,222,o),
(432,263,o),
(478,356,cs),
(482,364,o),
(514,403,o),
(510,485,cs),
(508,516,o),
(508,515,o),
(445,512,cs),
(423,511,o),
(399,510,o),
(372,506,cs),
(319,499,o),
(290,502,o),
(247,496,cs),
(224,493,o),
(200,491,o),
(177,489,c),
(178,502,o),
(180,516,o),
(182,530,cs),
(183,541,o),
(192,616,o),
(177,612,c),
(201,619,o),
(225,623,o),
(246,623,cs),
(284,623,o),
(321,611,o),
(361,587,c),
(389,664,l),
(330,700,o),
(294,713,o),
(246,713,cs),
(221,713,o),
(196,709,o),
(162,699,cs),
(129,689,o),
(134,606,o),
(128,530,cs),
(127,515,o),
(125,500,o),
(124,486,c),
(107,485,o),
(91,485,o),
(74,485,c),
(64,425,l),
(81,425,o),
(97,425,o),
(116,426,c),
(104,343,o),
(87,274,o),
(67,165,cs),
(59,118,o),
(44,64,o),
(29,-2,cs),
(17,-55,o),
(21,-76,o),
(12,-105,c),
(-6,-104,o),
(-92,-92,o),
(-107,-111,c),
(-107,-150,o),
(-39,-195,o),
(14,-195,cs)
);
},
{
closed = 1;
nodes = (
(-1,-134,o),
(3,-126,o),
(7,-119,c),
(5,-123,o),
(3,-128,o),
(0,-133,cs)
);
},
{
closed = 1;
nodes = (
(457,466,o),
(457,467,o),
(457,468,c),
(457,467,o),
(457,466,o),
(458,465,c)
);
}
);
width = 819;
}
);
},
{
color = 6;
glyphname = f_y;
layers = (
{
anchors = (
{
name = caret_1;
pos = (367,0);
}
);
layerId = "BC735296-CD3A-4FA4-9AA9-EE2D747BC69E";
shapes = (
{
closed = 1;
nodes = (
(271,-283,o),
(298,-279,o),
(323,-277,cs),
(354,-275,o),
(392,-277,o),
(427,-267,cs),
(519,-240,o),
(593,-146,o),
(654,-73,cs),
(662,-63,o),
(674,-53,o),
(686,-41,c),
(694,-43,o),
(699,-37,o),
(702,-27,c),
(719,-11,o),
(736,8,o),
(750,32,cs),
(776,80,o),
(780,151,o),
(789,199,cs),
(794,225,o),
(807,255,o),
(813,292,c),
(828,501,l),
(774,501,l),
(760,305,l),
(757,289,o),
(745,261,o),
(736,216,cs),
(726,158,o),
(727,121,o),
(702,76,cs),
(702,75,o),
(701,74,o),
(700,73,c),
(700,89,o),
(699,103,o),
(697,117,cs),
(689,207,o),
(693,314,o),
(642,400,cs),
(615,446,o),
(587,477,o),
(561,490,cs),
(539,502,o),
(450,499,o),
(432,500,cs),
(401,502,o),
(370,503,o),
(334,503,cs),
(299,503,o),
(263,502,o),
(228,502,c),
(230,513,o),
(231,525,o),
(232,537,cs),
(233,548,o),
(233,553,o),
(232,547,c),
(233,568,o),
(235,592,o),
(238,618,c),
(247,619,o),
(256,619,o),
(264,619,cs),
(306,619,o),
(346,613,o),
(369,603,cs),
(400,591,o),
(421,574,o),
(442,566,c),
(461,650,l),
(434,660,o),
(412,678,o),
(390,687,cs),
(353,702,o),
(313,709,o),
(264,709,cs),
(245,709,o),
(226,708,o),
(204,705,cs),
(194,704,o),
(187,690,o),
(187,675,cs),
(187,666,o),
(188,661,o),
(188,665,cs),
(188,657,o),
(186,647,o),
(185,633,cs),
(183,608,o),
(180,580,o),
(178,551,cs),
(178,547,ls),
(176,530,o),
(175,514,o),
(174,498,c),
(155,496,o),
(135.996,494,o),
(117,494,c),
(117,424,l),
(134,424,o),
(151,426,o),
(168,428,c),
(167,403,o),
(165,376,o),
(163,344,cs),
(160,276,o),
(162,212,o),
(148,149,cs),
(134,83,o),
(93,-130,o),
(32,-130,cs),
(11,-130,o),
(-13,-99,o),
(-25,-91,cs),
(-55,-69,o),
(-61,-64,o),
(-65,-59,c),
(-108,-115,l),
(-87,-142,o),
(-84,-144,o),
(-56,-164,cs),
(-33,-181,o),
(1,-210,o),
(32,-210,cs),
(133,-210,o),
(186,59,o),
(201,130,cs),
(217,201,o),
(214,274,o),
(217,338,cs),
(219,375,o),
(221,404,o),
(223,431,c),
(260,432,o),
(297,433,o),
(334,433,cs),
(369,433,o),
(401,432,o),
(428,431,cs),
(445,429,o),
(550,423,o),
(537,450,c),
(565,416,o),
(578,383,o),
(596,354,cs),
(638,283,o),
(635,203,o),
(644,108,cs),
(646,82,o),
(648,57,o),
(648,25,cs),
(648,24,o),
(648,24,o),
(648,23,c),
(637,12,o),
(625,-1,o),
(613,-15,cs),
(561,-77,o),
(498,-166,o),
(412,-191,cs),
(391,-197,o),
(354,-195,o),
(319,-197,cs),
(297,-199,o),
(270,-203,o),
(245,-203,cs),
(238,-203,o),
(229,-202,o),
(226,-202,c),
(219,-281,l),
(228,-282,o),
(235,-283,o),
(245,-283,cs)
);
}
);
width = 834;
}
);
},
{
color = 6;
glyphname = fi;
layers = (
{
anchors = (
{
name = caret_1;
pos = (253,0);
}
);
layerId = "BC735296-CD3A-4FA4-9AA9-EE2D747BC69E";
shapes = (
{
closed = 1;
nodes = (
(56,-206,o),
(66,-212,o),
(90,-184,cs),
(102,-169,o),
(111,-146,o),
(126,-87,cs),
(132,-60,o),
(136,-27,o),
(141,3,cs),
(147,36,o),
(159,77,o),
(168,129,cs),
(186,239,o),
(196,315,o),
(218,427,c),
(219,427,ls),
(288,427,o),
(356,426,o),
(424,422,cs),
(436,421,o),
(455,424,o),
(474,425,c),
(470,415,o),
(465,399,o),
(457,372,cs),
(437,306,o),
(418,253,o),
(395,173,cs),
(392,164,o),
(355,78,o),
(366,36,cs),
(383,-29,o),
(468,-23,o),
(526,35,c),
(488,99,l),
(463,74,o),
(438,85,o),
(425,86,c),
(431,106,o),
(442,133,o),
(446,148,cs),
(467,218,o),
(488,272,o),
(509,348,cs),
(515,372,o),
(533,412,o),
(533,451,cs),
(533,459,o),
(532,467,o),
(531,472,cs),
(531,474,o),
(528,491,o),
(520,494,cs),
(512,496,o),
(506,497,o),
(495,497,cs),
(471,497,o),
(434,491,o),
(420,492,cs),
(356,496,o),
(292,497,o),
(229,497,c),
(233,541,o),
(235,579,o),
(253,627,c),
(243,595,o),
(257,603,o),
(296,623,cs),
(314,633,o),
(317,641,o),
(345,646,cs),
(368,651,o),
(400,661,o),
(432,661,cs),
(443,661,o),
(455,660,o),
(465,659,c),
(468,625,o),
(497,578,o),
(570,578,c),
(570,628,l),
(585,656,l),
(578,677,o),
(574,682,o),
(572,685,cs),
(559,704,o),
(543,715,o),
(511,730,cs),
(488,742,o),
(463,747,o),
(432,747,cs),
(399,747,o),
(364,741,o),
(334,734,cs),
(315,730,o),
(292,714,o),
(271,703,cs),
(212,673,o),
(215,681,o),
(203,653,cs),
(184,608,o),
(180,549,o),
(174,497,c),
(100,497,l),
(107,427,l),
(162,427,l),
(143,326,o),
(132,251,o),
(114,143,cs),
(108,105,o),
(96,64,o),
(88,18,cs),
(83,-8,o),
(80,-37,o),
(73,-65,cs),
(65,-94,o),
(62,-106,o),
(56,-116,c),
(46,-115,o),
(34,-111,o),
(26,-108,cs),
(-10,-97,o),
(-25,-90,o),
(-55,-68,c),
(-58,-65,o),
(-57,-63,o),
(-57,-70,c),
(-111,-70,l),
(-111,-88,o),
(-97,-132,o),
(-87,-140,cs),
(-43,-173,o),
(-25,-183,o),
(9,-194,cs),
(27,-200,o),
(45,-206,o),
(60,-206,cs)
);
},
{
closed = 1;
nodes = (
(48,-125,o),
(49,-125,o),
(49,-124,c),
(49,-125,o),
(48,-125,o),
(48,-126,c)
);
},
{
closed = 1;
nodes = (
(60,-116,ls),
(61,-116,o),
(61,-116,o),
(60,-116,cs)
);
},
{
closed = 1;
nodes = (
(419,59,o),
(419,59,o),
(419,59,cs),
(419,59,ls)
);
}
);
width = 586;
}
);
unicode = 64257;
},
{
color = 6;
glyphname = fl;
layers = (
{
layerId = "BC735296-CD3A-4FA4-9AA9-EE2D747BC69E";
shapes = (
{
closed = 1;
nodes = (
(34,-206,o),
(43,-205,o),
(56,-203,cs),
(70,-200,o),
(67,-198,o),
(102,-157,cs),
(120,-137,o),
(150,20,o),
(156,50,cs),
(170,132,o),
(187,192,o),
(205,293,cs),
(211,331,o),
(216,376,o),
(220,417,c),
(280,425,o),
(338,435,o),
(397,435,c),
(397,505,l),
(341,505,o),
(285,496,o),
(229,489,c),
(230,493,o),
(230,497,o),
(231,501,cs),
(240,552,o),
(234,653,o),
(263,653,cs),
(295,653,o),
(375,643,o),
(392,643,cs),
(428,641,o),
(462,633,o),
(498,633,cs),
(519,634,l),
(510,608,o),
(495,564,o),
(486,534,cs),
(458,438,o),
(436,359,o),
(406,255,cs),
(396,221,o),
(364,151,o),
(364,82,cs),
(364,73,o),
(364,62,o),
(365,57,cs),
(372,10,o),
(393,-17,o),
(430,-17,cs),
(505,-17,o),
(613,55,o),
(613,115,c),
(559,115,l),
(559,125,o),
(496,63,o),
(450,63,cs),
(441,63,o),
(439,63,o),
(439,61,c),
(438,65,o),
(438,68,o),
(438,72,cs),
(438,114,o),
(443,180,o),
(458,230,cs),
(486,328,o),
(508,407,o),
(538,508,cs),
(547,538,o),
(582,612,o),
(582,658,cs),
(582,664,o),
(581,670,o),
(580,673,c),
(552,704,l),
(395,712,ls),
(375,713,o),
(296,723,o),
(263,723,cs),
(182,723,o),
(183,556,o),
(178,512,cs),
(177,502,o),
(175,491,o),
(174,481,c),
(143,478,o),
(113,475,o),
(82,475,c),
(82,405,l),
(110,405,o),
(138,407,o),
(166,410,c),
(161,376,o),
(157,343,o),
(151,309,cs),
(136,221,o),
(119,162,o),
(103,66,cs),
(99,43,o),
(74,-84,o),
(61,-98,c),
(62,-98,o),
(50,-114,o),
(47,-114,cs),
(41,-115,o),
(32,-116,o),
(24,-116,cs),
(-12,-116,o),
(-39,-102,o),
(-45,-82,c),
(-97,-108,l),
(-77,-173,o),
(-38,-206,o),
(24,-206,cs)
);
}
);
width = 646;
}
);
unicode = 64258;
},
{
color = 6;
glyphname = k_y;
layers = (
{
anchors = (
{
name = caret_1;
pos = (541,0);
},
{
name = top;
pos = (260,505);
}
);
layerId = "BC735296-CD3A-4FA4-9AA9-EE2D747BC69E";
shapes = (
{
closed = 1;
nodes = (
(279,-318,o),
(328,-307,o),
(372,-296,cs),
(401,-289,o),
(424,-269,o),
(450,-258,cs),
(461,-253,o),
(477,-230,o),
(487,-215,c),
(531,-184,o),
(559,-160,o),
(587,-130,c),
(587,-131,l),
(611,-131,o),
(627,-110,o),
(649,-65,c),
(665,-49,o),
(681,-31,o),
(697,-11,cs),
(786,106,o),
(834,289,o),
(834,500,c),
(780,500,l),
(780,352,o),
(757,226,o),
(710,125,c),
(710,134,o),
(711,142,o),
(711,151,cs),
(711,183,o),
(707,218,o),
(697,253,cs),
(670,355,o),
(636,441,o),
(541,490,cs),
(494,514,o),
(446,522,o),
(386,502,cs),
(314,476,o),
(333,475,o),
(266,431,cs),
(247,418,o),
(234,397,o),
(215,382,cs),
(186,359,o),
(164,334,o),
(142,299,c),
(152,387,o),
(164,475,o),
(183,562,cs),
(191,597,o),
(203,634,o),
(211,678,cs),
(218,720,o),
(204,742,o),
(179,738,cs),
(125,728,o),
(116,666,o),
(76,666,c),
(76,594,l),
(101,594,o),
(124,608,o),
(142,624,c),
(138,609,o),
(134,594,o),
(130,578,cs),
(109,481,o),
(97,379,o),
(85,280,cs),
(81,248,o),
(76,215,o),
(68,180,c),
(48,149,o),
(28,117,o),
(12,80,cs),
(6,66,o),
(0,35,o),
(0,15,cs),
(0,-7,o),
(7,-30,o),
(16,-39,cs),
(46,-68,o),
(63,-43,o),
(86,33,cs),
(98,73,o),
(108,110,o),
(116,146,c),
(133,172,o),
(151,199,o),
(168,229,cs),
(177,245,o),
(185,259,o),
(195,271,c),
(204,245,o),
(224,220,o),
(230,212,cs),
(273,145,o),
(316,70,o),
(371,15,cs),
(395,-9,o),
(420,-28,o),
(448,-44,c),
(496,-18,l),
(496,-2,o),
(489,10,o),
(475,18,cs),
(447,35,o),
(425,50,o),
(409,66,cs),
(354,121,o),
(315,189,o),
(275,251,cs),
(272,255,o),
(255,280,o),
(244,297,c),
(216,297,l),
(226,307,o),
(236,316,o),
(249,326,cs),
(267,340,o),
(279,362,o),
(300,375,cs),
(349,405,o),
(323,419,o),
(397,431,cs),
(435,437,o),
(482,443,o),
(513,428,cs),
(590,392,o),
(618,338,o),
(645,234,cs),
(654,202,o),
(657,177,o),
(657,151,cs),
(657,106,o),
(646,66,o),
(612,-12,cs),
(610,-15,l),
(592,-33,o),
(572,-53,o),
(553,-75,cs),
(486,-156,l),
(487,-157,o),
(429,-192,o),
(428,-192,c),
(403,-203,o),
(383,-220,o),
(358,-226,cs),
(304,-240,o),
(266,-246,o),
(232,-246,cs),
(189,-246,o),
(153,-236,o),
(129,-216,cs),
(113,-203,o),
(109,-201,o),
(108,-198,c),
(57,-222,l),
(65,-243,o),
(73,-254,o),
(95,-272,cs),
(134,-304,o),
(177,-318,o),
(232,-318,cs)
);
},
{
closed = 1;
nodes = (
(54,12,l),
(54,12,l),
(54,12,l)
);
},
{
closed = 1;
nodes = (
(156,690,o),
(158,694,o),
(158,690,cs),
(157,688,o),
(157,686,o),
(156,684,c)
);
}
);
width = 838;
}
);
},
{
color = 6;
glyphname = s_h;
layers = (
{
anchors = (
{
name = caret_1;
pos = (256,0);
}
);
layerId = "BC735296-CD3A-4FA4-9AA9-EE2D747BC69E";
shapes = (
{
closed = 1;
nodes = (
(166,-10,o),
(206,36,o),
(230,116,cs),
(239,150,o),
(245,196,o),
(248,239,c),
(214,381,ls),
(213,387,o),
(213,392,o),
(213,401,c),
(218,402,o),
(224,402,o),
(229,402,cs),
(240,402,o),
(264,398,o),
(265,398,c),
(274,390,o),
(279,391,o),
(277,393,c),
(277,394,o),
(279,391,o),
(280,390,c),
(313,306,o),
(370,321,o),
(370,412,cs),
(370,465,o),
(317,510,o),
(317,509,c),
(305,522,o),
(294,540,o),
(283,556,c),
(340,557,o),
(395,564,o),
(456,578,c),
(446,544,o),
(435,506,o),
(430,466,cs),
(418,374,o),
(408,287,o),
(383,194,c),
(381,101,l),
(286,-56,o),
(408,-83,o),
(439,49,c),
(455,81,o),
(486,121,o),
(525,179,cs),
(565,238,o),
(608,310,o),
(655,391,cs),
(653,387,o),
(660,400,o),
(668,415,c),
(685,394,o),
(702,374,o),
(701,375,c),
(736,305,o),
(744,284,o),
(744,264,cs),
(744,244,o),
(736,225,o),
(694,141,cs),
(679,111,o),
(669,96,o),
(662,88,c),
(656,89,o),
(648,90,o),
(639,92,cs),
(632,93,o),
(632,87,o),
(638,71,c),
(593,40,l),
(598,27,o),
(613,17,o),
(629,14,cs),
(649,10,o),
(662,8,o),
(673,8,cs),
(714,8,o),
(710,46,o),
(739,105,cs),
(774,175,o),
(794,219,o),
(794,264,cs),
(794,301,o),
(781,339,o),
(746,410,cs),
(720,464,o),
(699,466,o),
(671,506,cs),
(670,507,o),
(669,520,o),
(661,515,cs),
(655,512,o),
(613,434,o),
(612,431,c),
(562,344,o),
(523,282,o),
(484,224,cs),
(469,201,o),
(450,182,o),
(431,163,c),
(431,168,o),
(431,172,o),
(432,174,cs),
(456,267,o),
(467,360,o),
(480,455,cs),
(487,501,o),
(502,548,o),
(518,594,c),
(525,596,o),
(533,599,o),
(540,601,cs),
(612,623,o),
(626,630,o),
(662,668,cs),
(675,681,o),
(687,723,o),
(687,751,cs),
(687,788,o),
(669,829,o),
(646,839,cs),
(628,846,o),
(622,848,o),
(610,848,cs),
(526,848,o),
(501,706,o),
(488,670,cs),
(488,669,o),
(487,667,o),
(487,666,c),
(411,646,o),
(343,636,o),
(274,636,cs),
(256,636,o),
(240,635,o),
(224,634,cs),
(223,634,ls),
(219,634,o),
(213,635,o),
(209,635,c),
(191,602,l),
(191,593,o),
(199,575,o),
(211,555,c),
(210,555,o),
(210,555,o),
(209,555,cs),
(210,555,o),
(210,555,o),
(211,555,c),
(226,529,o),
(246,499,o),
(262,478,c),
(252,481,o),
(241,482,o),
(229,482,cs),
(212,482,o),
(197,479,o),
(181,473,cs),
(169,469,o),
(163,443,o),
(163,405,cs),
(163,390,o),
(164,376,o),
(165,369,cs),
(174,309,o),
(195,297,o),
(195,239,cs),
(195,206,o),
(192,173,o),
(182,139,cs),
(169,95,o),
(144,70,o),
(113,70,c),
(31,127,l),
(-11,85,l),
(27,22,o),
(66,-10,o),
(113,-10,cs)
);
},
{
closed = 1;
nodes = (
(326,421,o),
(325,422,o),
(325,422,c),
(326,421,o),
(326,419,o),
(326,420,cs)
);
},
{
closed = 1;
nodes = (
(559,723,o),
(577,768,o),
(610,768,c),
(625,723,l),
(608,704,o),
(576,693,o),
(547,684,c)
);
}
);
width = 822;
}
);
},
{
color = 6;
glyphname = s_p;
layers = (
{
anchors = (
{
name = caret_1;
pos = (230,0);
}
);
layerId = "BC735296-CD3A-4FA4-9AA9-EE2D747BC69E";
shapes = (
{
closed = 1;
nodes = (
(421,-163,o),
(425,-91,o),
(429,-28,c),
(430,-28,o),
(431,-28,o),
(432,-28,cs),
(451,-28,o),
(469,-25,o),
(488,-18,cs),
(517,-6,o),
(547,18,o),
(578,56,cs),
(599,83,o),
(615,115,o),
(634,146,cs),
(694,243,o),
(728,323,o),
(728,408,cs),
(728,434,o),
(724,462,o),
(719,485,cs),
(713,506,o),
(706,513,o),
(709,504,cs),
(697,540,o),
(677,529,o),
(681,529,cs),
(660,529,o),
(646,525,o),
(618,511,cs),
(603,503,o),
(586,494,o),
(568,485,c),
(580,513,o),
(594,544,o),
(610,579,cs),
(615,591,o),
(622,604,o),
(629,618,c),
(655,629,o),
(682,645,o),
(707,666,cs),
(718,674,o),
(725,700,o),
(725,724,cs),
(725,756,o),
(712,784,o),
(691,789,cs),
(686,790,o),
(683,790,o),
(677,790,cs),
(672,790,o),
(668,790,o),
(663,789,cs),
(646,786,o),
(632,742,o),
(624,730,cs),
(614,713,o),
(604,696,o),
(596,680,c),
(583,676,o),
(570,674,o),
(559,674,cs),
(490,674,o),
(432,677,o),
(379,684,cs),
(342,688,o),
(305,697,o),
(267,697,cs),
(256,697,o),
(178,689,o),
(160,689,c),
(114,632,l),
(114,594,o),
(140,532,o),
(171,485,c),
(155,463,o),
(142,431,o),
(136,398,cs),
(133,382,o),
(131,362,o),
(131,340,cs),
(131,289,o),
(148,211,o),
(148,151,cs),
(148,127,o),
(145,112,o),
(140,96,cs),
(136,86,o),
(127,75,o),
(113,67,cs),
(105,62,o),
(99,60,o),
(94,60,cs),
(86,60,o),
(84,66,o),
(64,88,cs),
(48,106,o),
(46,109,o),
(46,105,c),
(-8,105,l),
(-8,69,o),
(17,47,o),
(23,41,cs),
(45,16,o),
(63,-12,o),
(94,-12,cs),
(107,-12,o),
(122,-6,o),
(141,6,cs),
(161,18,o),
(181,44,o),
(191,72,cs),
(198,92,o),
(202,120,o),
(202,151,cs),
(202,219,o),
(185,277,o),
(185,340,cs),
(185,358,o),
(186,371,o),
(189,384,cs),
(193,407,o),
(200,423,o),
(212,438,c),
(243,413,o),
(268,403,o),
(299,407,c),
(325,407,o),
(340,431,o),
(333,459,cs),
(322,500,o),
(290,526,o),
(247,526,cs),
(237,526,o),
(228,525,o),
(219,522,c),
(196,551,o),
(178,589,o),
(178,612,cs),
(178,619,o),
(178,617,o),
(182,623,c),
(191,625,o),
(208,627,o),
(220,627,cs),
(237,627,o),
(254,625,o),
(267,625,cs),
(302,625,o),
(337,617,o),
(372,612,cs),
(429,605,o),
(486,602,o),
(558,602,c),
(545,572,o),
(527,538,o),
(512,498,cs),
(506,481,o),
(500,463,o),
(494,445,c),
(426,407,o),
(371,366,o),
(355,335,c),
(404,303,l),
(406,307,o),
(432,326,o),
(464,347,c),
(463,345,o),
(462,342,o),
(461,339,cs),
(426,245,o),
(397,155,o),
(383,53,c),
(364,60,o),
(348,69,o),
(341,80,c),
(296,40,l),
(315,11,o),
(343,-9,o),
(375,-19,c),
(371,-83,o),
(368,-152,o),
(359,-211,c),
(412,-222,l)
);
},
{
closed = 1;
nodes = (
(448,131,o),
(473,224,o),
(512,314,cs),
(522,339,o),
(530,365,o),
(538,391,c),
(570,409,o),
(604,428,o),
(642,446,cs),
(653,451,o),
(661,455,o),
(669,456,c),
(672,441,o),
(674,426,o),
(674,408,cs),
(674,337,o),
(645,276,o),
(589,184,cs),
(572,157,o),
(558,129,o),
(536,102,cs),
(515,75,o),
(493,59,o),
(469,50,cs),
(461,46,o),
(448,44,o),
(436,44,c)
);
},
{
closed = 1;
nodes = (
(674,722,o),
(674,722,o),
(674,722,cs),
(674,722,ls)
);
}
);
width = 734;
}
);
},
{
color = 6;
glyphname = s_t;
layers = (
{
anchors = (
{
name = caret_1;
pos = (228,0);
}
);
layerId = "BC735296-CD3A-4FA4-9AA9-EE2D747BC69E";
shapes = (
{
closed = 1;
nodes = (
(98,0,o),
(107,3,o),
(117,11,cs),
(160,45,o),
(190,115,o),
(190,181,cs),
(190,191,o),
(189,203,o),
(188,212,cs),
(179,262,o),
(151,326,o),
(151,378,cs),
(151,399,o),
(155,412,o),
(164,425,cs),
(171,437,o),
(184,444,o),
(207,447,c),
(211,444,o),
(214,442,o),
(216,440,cs),
(234,422,o),
(245,410,o),
(249,406,cs),
(260,394,o),
(268,388,o),
(268,387,c),
(332,413,l),
(350,454,o),
(310,530,o),
(237,530,cs),
(230,530,o),
(224,530,o),
(218,530,c),
(202,546,o),
(189,562,o),
(189,578,cs),
(189,581,o),
(189,584,o),
(190,587,c),
(189,583,o),
(192,586,o),
(201,592,cs),
(221,609,o),
(235,606,o),
(267,606,cs),
(406,601,l),
(473,611,l),
(466,548,l),
(452,516,o),
(441,483,o),
(430,449,c),
(377,449,l),
(377,389,l),
(388,389,o),
(399,390,o),
(410,390,c),
(382,317,o),
(320,192,o),
(320,88,cs),
(320,60,o),
(325,34,o),
(333,13,cs),
(339,0,o),
(344,-3,o),
(354,2,cs),
(360,5,o),
(374,2,o),
(389,12,cs),
(421,33,o),
(469,77,o),
(476,96,cs),
(476,95,l),
(491,108,o),
(508,121,o),
(528,137,c),
(529,137,o),
(562,170,o),
(526,170,c),
(495,200,l),
(480,188,o),
(462,173,o),
(441,156,cs),
(405,126,o),
(460,148,o),
(374,89,c),
(374,168,o),
(429,277,o),
(460,363,cs),
(463,372,o),
(466,381,o),
(469,390,c),
(495,389,o),
(520,389,o),
(546,389,cs),
(593,389,l),
(621,403,l),
(621,433,o),
(604,449,o),
(593,449,cs),
(578,449,o),
(562,449,o),
(546,449,cs),
(490,449,l),
(497,471,o),
(506,494,o),
(516,517,cs),
(523,537,o),
(550,621,o),
(565,625,cs),
(565,625,l),
(565,625,ls),
(565,625,o),
(565,625,o),
(566,625,cs),
(615,641,o),
(621,675,o),
(588,697,cs),
(551,721,o),
(489,689,o),
(482,689,c),
(482,688,l),
(467,684,o),
(441,681,o),
(406,680,c),
(267,685,ls),
(210,686,o),
(204,685,o),
(167,655,cs),
(172,660,o),
(150,646,o),
(140,616,cs),
(137,608,o),
(135,589,o),
(135,578,cs),
(135,551,o),
(142,528,o),
(153,509,c),
(142,500,o),
(131,487,o),
(119,469,cs),
(107,451,o),
(97,411,o),
(97,378,cs),
(97,306,o),
(129,233,o),
(134,199,cs),
(136,191,o),
(136,188,o),
(136,181,cs),
(136,138,o),
(119,103,o),
(84,75,c),
(85,76,o),
(84,80,o),
(66,78,cs),
(43,75,o),
(42,85,o),
(21,98,c),
(-11,81,l),
(-11,43,o),
(43,0,o),
(86,0,cs)
);
},
{
closed = 1;
nodes = (
(268,387,l),
(268,387,l)
);
},
{
closed = 1;
nodes = (
(565,625,o),
(566,625,o),
(566,625,c),
(565,625,l)
);
}
);
width = 621;
}
);
},
{
color = 6;
glyphname = t_h;
layers = (
{
anchors = (
{
name = caret_1;
pos = (240,0);
}
);
layerId = "BC735296-CD3A-4FA4-9AA9-EE2D747BC69E";
shapes = (
{
closed = 1;
nodes = (
(351,-35,o),
(378,-8,o),
(383,-3,c),
(383,-4,o),
(383,-4,o),
(384,-2,c),
(395,10,o),
(401,35,o),
(405,63,c),
(408,69,o),
(412,75,o),
(417,82,cs),
(439,115,o),
(453,152,o),
(484,198,cs),
(507,233,o),
(545,277,o),
(589,338,cs),
(608,365,o),
(625,386,o),
(649,410,c),
(690,374,o),
(699,353,o),
(711,333,cs),
(721,317,o),
(721,319,o),
(722,292,cs),
(722,281,o),
(723,273,o),
(723,266,cs),
(723,195,o),
(709,166,o),
(671,99,c),
(655,96,o),
(631,93,o),
(622,93,cs),
(612,93,o),
(595,94,o),
(592,95,c),
(547,84,l),
(552,69,o),
(557,54,o),
(569,27,cs),
(570,25,o),
(571,22,o),
(573,22,c),
(587,15,o),
(604,13,o),
(622,13,cs),
(656,13,o),
(693,19,o),
(707,43,cs),
(747,113,o),
(773,173,o),
(773,266,cs),
(773,275,o),
(772,286,o),
(772,296,cs),
(771,321,o),
(767,352,o),
(754,375,cs),
(723,426,o),
(707,451,o),
(666,484,cs),
(658,491,o),
(660,497,o),
(653,505,c),
(650,507,o),
(650,507,o),
(648,507,cs),
(642,507,o),
(638,496,o),
(636,491,c),
(631,483,o),
(626,478,o),
(616,468,cs),
(592,444,o),
(570,415,o),
(548,385,cs),
(515,339,o),
(476,294,o),
(442,243,cs),
(433,230,o),
(426,217,o),
(418,203,c),
(439,332,o),
(473,453,o),
(503,582,c),
(506,583,o),
(510,584,o),
(513,585,cs),
(589,610,o),
(633,625,o),
(633,691,cs),
(633,711,o),
(626,740,o),
(617,750,cs),
(594,778,o),
(603,780,o),
(567,783,cs),
(561,784,o),
(555,784,o),
(548,784,cs),
(528,784,o),
(528,782,o),
(508,769,cs),
(497,761,o),
(482,709,o),
(468,652,c),
(445,645,o),
(420,639,o),
(394,639,c),
(272,664,l),
(244,668,o),
(208,675,o),
(175,675,cs),
(148,675,o),
(127,671,o),
(109,661,cs),
(90,650,o),
(76,629,o),
(76,598,cs),
(76,578,o),
(82,559,o),
(92,548,cs),
(109,530,o),
(140,517,o),
(177,515,c),
(173,502,o),
(170,492,o),
(170,492,cs),
(164,474,o),
(155,457,o),
(146,436,c),
(58,436,l),
(58,386,l),
(128,386,l),
(108,331,o),
(86,266,o),
(75,218,cs),
(68,189,o),
(64,163,o),
(53,135,cs),
(47,117,o),
(43,97,o),
(43,78,cs),
(43,76,o),
(43,75,o),
(43,73,c),
(42,73,o),
(41,73,o),
(41,73,cs),
(42,73,o),
(42,73,o),
(43,73,c),
(41,65,o),
(38,56,o),
(37,48,cs),
(36,41,o),
(29,17,o),
(29,6,cs),
(29,-2,o),
(33,-7,o),
(41,-7,cs),
(63,-7,o),
(129,32,o),
(138,38,c),
(140,40,o),
(162,61,o),
(163,60,c),
(186,132,l),
(137,157,o),
(176,151,o),
(109,103,cs),
(110,104,o),
(107,102,o),
(103,100,c),
(103,102,o),
(104,105,o),
(105,107,cs),
(115,134,o),
(123,168,o),
(131,199,cs),
(142,245,o),
(166,321,o),
(190,386,c),
(203,386,o),
(216,386,o),
(229,386,cs),
(286,386,ls),
(331,386,o),
(357,415,o),
(323,450,c),
(286,436,l),
(229,436,l),
(213,436,l),
(216,444,o),
(220,454,o),
(224,465,cs),
(255,554,l),
(207,551,l),
(212,563,l),
(204,563,o),
(165,583,o),
(143,594,c),
(149,600,o),
(159,605,o),
(175,605,cs),
(206,605,o),
(240,598,o),
(264,595,c),
(394,569,l),
(413,569,o),
(430,570,o),
(448,572,c),
(418,454,o),
(388,334,o),
(367,202,cs),
(363,176,o),
(355,122,o),
(343,79,c),
(333,64,o),
(325,49,o),
(321,26,cs),
(320,20,o),
(325,10,o),
(325,-3,cs),
(325,-14,o),
(337,-24,o),
(342,-28,cs)
);
},
{
closed = 1;
nodes = (
(676,445,o),
(677,448,o),
(680,453,cs),
(679,451,o),
(677,447,o),
(674,442,c)
);
},
{
closed = 1;
nodes = (
(531,687,o),
(535,702,o),
(537,703,cs),
(538,704,o),
(543,704,o),
(548,704,cs),
(553,704,o),
(559,704,o),
(563,703,cs),
(568,702,o),
(575,700,o),
(579,699,c),
(582,695,o),
(583,694,o),
(583,691,cs),
(583,678,o),
(561,677,o),
(526,669,c)
);
}
);
width = 804;
}
);
},
{
color = 6;
glyphname = z_y;
layers = (
{
anchors = (
{
name = caret_1;
pos = (514,0);
}
);
layerId = "BC735296-CD3A-4FA4-9AA9-EE2D747BC69E";
shapes = (
{
closed = 1;
nodes = (
(434,-255,o),
(480,-233,o),
(629,-133,cs),
(695,-89,o),
(775,-41,o),
(835,32,cs),
(850,51,o),
(881,107,o),
(882,107,c),
(882,108,o),
(910,134,o),
(934,201,cs),
(952,250,o),
(960,308,o),
(960,377,cs),
(960,394,o),
(960,412,o),
(959,433,cs),
(957,469,o),
(945,486,o),
(945,504,c),
(891,504,l),
(891,467,o),
(904,448,o),
(905,429,cs),
(906,411,o),
(906,394,o),
(906,377,cs),
(906,315,o),
(899,270,o),
(883,225,c),
(836,146,ls),
(835,144,o),
(834,142,o),
(833,141,c),
(836,160,o),
(837,181,o),
(837,202,cs),
(837,242,o),
(831,286,o),
(821,323,cs),
(796,416,o),
(723,508,o),
(667,508,cs),
(661,508,o),
(656,507,o),
(649,505,cs),
(621,497,o),
(597,456,o),
(583,439,cs),
(576,431,o),
(536,395,o),
(536,358,c),
(590,338,l),
(590,330,o),
(610,377,o),
(623,392,cs),
(638,409,o),
(649,432,o),
(663,436,c),
(667,436,ls),
(698,436,o),
(753,364,o),
(769,304,cs),
(778,269,o),
(783,236,o),
(783,202,cs),
(783,169,o),
(779,142,o),
(770,114,c),
(769,52,l),
(754,36,o),
(736,21,o),
(717,7,c),
(715,7,l),
(715,6,l),
(679,-21,o),
(639,-46,o),
(598,-73,cs),
(454,-171,o),
(416,-183,o),
(256,-183,cs),
(212,-183,o),
(176,-176,o),
(145,-161,c),
(122,-227,l),
(163,-246,o),
(206,-255,o),
(256,-255,cs)
);
},
{
closed = 1;
nodes = (
(123,49,l),
(142,41,o),
(159,27,o),
(177,18,cs),
(217,-4,o),
(277,-32,o),
(328,-32,cs),
(374,-32,o),
(407,-11,o),
(428,33,cs),
(433,42,o),
(454,75,o),
(454,103,c),
(400,103,l),
(380,65,ls),
(372,49,o),
(354,40,o),
(328,40,cs),
(296,40,o),
(254,54,o),
(202,81,cs),
(193,86,o),
(185,91,o),
(176,97,c),
(196,114,o),
(218,133,o),
(242,154,cs),
(283,190,o),
(336,251,o),
(385,320,cs),
(394,332,o),
(402,344,o),
(411,356,c),
(465,358,o),
(501,380,o),
(523,426,cs),
(526,432,o),
(536,459,o),
(536,479,cs),
(536,488,o),
(534,499,o),
(531,504,cs),
(523,521,o),
(514,529,o),
(499,529,cs),
(482,529,o),
(446,515,o),
(433,498,c),
(393,428,l),
(378,429,o),
(361,431,o),
(340,435,cs),
(326,438,o),
(307,447,o),
(294,457,cs),
(261,482,o),
(229,522,o),
(192,541,cs),
(171,552,o),
(154,557,o),
(137,557,cs),
(92,557,o),
(62,518,o),
(59,460,cs),
(58,436,o),
(59,411,o),
(59,388,c),
(113,388,l),
(137,485,l),
(177,485,o),
(167,471,o),
(261,400,cs),
(285,382,o),
(310,369,o),
(330,365,cs),
(338,363,o),
(346,362,o),
(353,361,c),
(316,312,o),
(253,249,o),
(206,208,cs),
(178,184,o),
(146,158,o),
(113,125,c),
(111,125,o),
(108,125,o),
(105,125,cs),
(47,125,o),
(-16,66,o),
(-16,9,cs),
(-16,-17,o),
(-3,-37,o),
(18,-37,c)
);
}
);
width = 976;
}
);
},
{
color = 6;
glyphname = ordfeminine;
layers = (
{
layerId = "BC735296-CD3A-4FA4-9AA9-EE2D747BC69E";
shapes = (
{
closed = 1;
nodes = (
(173,341,o),
(215,370,o),
(302,438,c),
(302,433,o),
(302,429,o),
(302,425,cs),
(302,399,o),
(308,354,o),
(329,348,cs),
(348,343,o),
(386,374,o),
(413,392,cs),
(421,398,o),
(435,412,o),
(451,431,c),
(421,477,l),
(412,466,o),
(403,459,o),
(390,449,cs),
(376,440,o),
(352,424,o),
(343,418,c),
(342,420,o),
(342,422,o),
(342,425,cs),
(342,437,o),
(344,456,o),
(345,463,cs),
(348,486,o),
(355,513,o),
(361,538,c),
(377,538,l),
(388,581,o),
(399,628,o),
(399,673,c),
(362,673,l),
(363,688,l),
(361,688,o),
(362,688,o),
(349,692,cs),
(325,700,o),
(282,715,o),
(265,715,cs),
(246,715,o),
(231,690,o),
(214,666,cs),
(182,621,o),
(112,534,o),
(112,438,cs),
(112,424,o),
(114,406,o),
(117,395,cs),
(122,376,o),
(132,341,o),
(155,341,cs)
);
},
{
closed = 1;
nodes = (
(156,412,ls),
(153,421,o),
(152,428,o),
(152,438,cs),
(152,501,o),
(205,568,o),
(246,625,cs),
(258,641,o),
(261,645,o),
(265,645,cs),
(280,645,o),
(313,634,o),
(336,626,c),
(331,626,l),
(333,625,o),
(336,625,o),
(338,624,c),
(334,602,o),
(329,579,o),
(323,555,cs),
(319,541,o),
(317,530,o),
(314,521,c),
(309,517,o),
(299,509,o),
(283,497,c),
(274,497,l),
(214,451,o),
(164,416,o),
(156,411,c)
);
}
);
width = 478;
}
);
unicode = 170;
},
{
color = 6;
glyphname = ordmasculine;
layers = (
{
layerId = "BC735296-CD3A-4FA4-9AA9-EE2D747BC69E";
shapes = (
{
closed = 1;
nodes = (
(226,336,o),
(232,338,o),
(243,342,cs),
(298,362,o),
(379,497,o),
(379,579,cs),
(379,590,o),
(377,611,o),
(375,617,cs),
(364,649,o),
(353,664,o),
(326,685,cs),
(323,687,o),
(321,689,o),
(319,690,c),
(319,701,l),
(305,701,o),
(296,702,o),
(281,706,cs),
(264,710,o),
(255,712,o),
(248,712,cs),
(229,712,o),
(213,705,o),
(186,689,cs),
(150,668,o),
(108,562,o),
(108,459,cs),
(108,438,o),
(111,414,o),
(115,405,cs),
(126,375,o),
(144,353,o),
(175,343,cs),
(188,339,o),
(203,336,o),
(216,336,cs)
);
},
{
closed = 1;
nodes = (
(206,406,o),
(193,408,o),
(187,410,cs),
(170,416,o),
(154,426,o),
(152,431,cs),
(149,438,o),
(148,444,o),
(148,459,cs),
(148,528,o),
(174,610,o),
(207,629,cs),
(221,637,o),
(236,642,o),
(248,642,cs),
(250,642,o),
(252,642,o),
(255,641,cs),
(270,637,o),
(282,634,o),
(293,633,c),
(312,614,o),
(318,607,o),
(322,595,c),
(337,595,l),
(339,589,o),
(339,587,o),
(339,579,cs),
(339,524,o),
(277,425,o),
(229,408,c),
(228,407,o),
(221,406,o),
(216,406,cs)
);
}
);
width = 389;
}
);
unicode = 186;
},
{
color = 6;
glyphname = Delta;
layers = (
{
layerId = "BC735296-CD3A-4FA4-9AA9-EE2D747BC69E";
shapes = (
{
closed = 1;
nodes = (
(509,-2,l),
(499,60,l),
(476,60,o),
(457,64,o),
(437,67,c),
(441,83,o),
(466,103,o),
(469,96,cs),
(461,117,o),
(456,136,o),
(450,152,cs),
(438,188,o),
(429,217,o),
(414,267,cs),
(376,396,o),
(362,528,o),
(346,661,c),
(300,660,l),
(298,651,o),
(294,639,o),
(289,625,cs),
(271,578,ls),
(251,529,o),
(230,478,o),
(208,423,cs),
(158,300,o),
(92,177,o),
(43,43,cs),
(36,26,o),
(48,3,o),
(65,3,cs),
(70,3,o),
(75,4,o),
(74,4,cs),
(89,4,o),
(103,4,o),
(119,3,cs),
(146,1,o),
(173,0,o),
(200,-1,cs),
(266,-1,o),
(332,-2,o),
(398,-2,cs)
);
},
{
closed = 1;
nodes = (
(93,19,ls),
(93,19,o),
(93,18,o),
(93,18,cs)
);
},
{
closed = 1;
nodes = (
(423,69,o),
(411,70,o),
(398,70,cs),
(332,70,o),
(266,71,o),
(200,71,cs),
(174,72,o),
(148,73,o),
(122,75,cs),
(120,75,o),
(118,75,o),
(115,75,c),
(158,178,o),
(212,283,o),
(258,396,cs),
(272,431,o),
(288,469,o),
(304,509,c),
(317,421,o),
(333,347,o),
(362,247,cs),
(375,202,o),
(386,167,o),
(399,129,cs),
(407,107,o),
(412,88,o),
(418,72,c),
(434,67,l)
);
}
);
width = 596;
}
);
unicode = 916;
},
{
color = 6;
glyphname = Omega;
layers = (
{
layerId = "BC735296-CD3A-4FA4-9AA9-EE2D747BC69E";
shapes = (
{
closed = 1;
nodes = (
(179,-2,ls),
(231,-2,o),
(248,1,o),
(253,39,cs),
(259,87,o),
(222,98,o),
(225,95,cs),
(214,105,o),
(212,110,o),
(204,121,cs),
(164,184,o),
(141,204,o),
(127,238,cs),
(116,270,o),
(111,303,o),
(112,342,cs),
(113,363,o),
(115,382,o),
(120,402,cs),
(125,424,o),
(148,457,o),
(169,492,cs),
(187,525,o),
(191,530,o),
(202,541,cs),
(214,552,o),
(234,566,o),
(261,585,cs),
(279,600,o),
(288,615,o),
(301,618,cs),
(330,625,o),
(362,629,o),
(403,629,cs),
(412,629,o),
(423,629,o),
(438,628,cs),
(450,628,o),
(466,611,o),
(474,604,c),
(534,541,o),
(546,518,o),
(544,467,cs),
(544,457,o),
(543,447,o),
(541,435,cs),
(532,372,o),
(493,278,o),
(431,171,cs),
(420,150,o),
(404,142,o),
(390,119,cs),
(370,82,o),
(360,67,o),
(365,45,cs),
(373,7,o),
(394,6,o),
(469,6,cs),
(517,6,o),
(590,8,o),
(610,11,c),
(605,82,l),
(592,81,o),
(524,78,o),
(469,78,cs),
(455,78,o),
(444,79,o),
(436,80,c),
(436,81,o),
(437,82,o),
(437,83,cs),
(451,107,o),
(463,128,o),
(479,155,cs),
(523,232,o),
(582,332,o),
(595,426,cs),
(596,439,o),
(597,453,o),
(598,465,cs),
(600,539,o),
(579,586,o),
(512,653,cs),
(491,676,o),
(465,689,o),
(440,690,cs),
(427,691,o),
(415,691,o),
(402,691,cs),
(359,691,o),
(325,687,o),
(288,678,cs),
(267,673,o),
(247,657,o),
(228,644,cs),
(211,630,o),
(188,616,o),
(164,593,cs),
(147,576,o),
(134,549,o),
(121,528,cs),
(107,502,o),
(76,459,o),
(67,417,cs),
(62,394,o),
(59,369,o),
(58,344,cs),
(56,296,o),
(64,248,o),
(77,212,cs),
(99,156,o),
(132,124,o),
(160,82,cs),
(162,78,o),
(165,74,o),
(167,70,c),
(123,68,o),
(86,60,o),
(41,60,c),
(29,-2,l)
);
}
);
width = 678;
}
);
unicode = 937;
},
{
color = 6;
glyphname = pi;
layers = (
{
layerId = "BC735296-CD3A-4FA4-9AA9-EE2D747BC69E";
shapes = (
{
closed = 1;
nodes = (
(508,-17,o),
(516,-15,o),
(525,-11,cs),
(545,-1,o),
(559,2,o),
(589,31,cs),
(601,43,o),
(592,39,o),
(603,46,c),
(573,106,l),
(567,102,o),
(555,86,o),
(551,83,c),
(537,69,o),
(531,68,o),
(503,55,c),
(501,55,ls),
(496,55,o),
(492,56,o),
(488,57,cs),
(452,63,o),
(451,61,o),
(441,71,c),
(441,105,o),
(449,182,o),
(449,187,cs),
(455,236,ls),
(460,264,o),
(463,285,o),
(464,306,cs),
(466,343,o),
(468,382,o),
(468,421,c),
(473,420,o),
(479,420,o),
(485,419,cs),
(507,416,o),
(523,415,o),
(538,415,cs),
(573,415,o),
(602,424,o),
(629,449,cs),
(670,486,o),
(682,502,o),
(682,532,cs),
(682,558,o),
(669,580,o),
(643,600,c),
(638,606,o),
(626,614,o),
(613,614,c),
(613,542,l),
(610,543,l),
(617,538,o),
(621,534,o),
(624,532,c),
(619,528,o),
(611,519,o),
(593,503,cs),
(583,493,o),
(558,487,o),
(538,487,cs),
(522,487,o),
(506,489,o),
(492,490,cs),
(406,501,o),
(364,498,o),
(309,502,cs),
(276,504,o),
(235,521,o),
(200,521,cs),
(191,521,o),
(176,523,o),
(159,523,cs),
(96,523,o),
(63,500,o),
(63,453,c),
(117,453,l),
(117,439,o),
(120,451,o),
(159,451,cs),
(169,451,o),
(178,450,o),
(186,450,c),
(186,332,o),
(177,239,o),
(155,150,cs),
(152,136,o),
(121,40,o),
(121,-1,c),
(175,-1,l),
(175,23,o),
(202,110,o),
(208,134,cs),
(232,234,o),
(239,340,o),
(240,443,c),
(260,438,o),
(281,432,o),
(300,431,cs),
(338,428,o),
(371,428,o),
(414,426,c),
(414,388,o),
(412,350,o),
(410,310,cs),
(409,293,o),
(406,276,o),
(402,249,cs),
(395,193,ls),
(395,189,o),
(387,105,o),
(387,69,cs),
(387,50,o),
(391,34,o),
(397,27,cs),
(438,-19,o),
(473,-13,o),
(478,-14,cs),
(485,-15,o),
(493,-17,o),
(501,-17,cs)
);
},
{
closed = 1;
nodes = (
(441,69,ls),
(445,61,o),
(441,55,o),
(441,69,cs)
);
}
);
width = 679;
}
);
unicode = 960;
},
{
color = 6;
glyphname = zero;
kernLeft = O;
kernRight = O;
layers = (
{
layerId = "BC735296-CD3A-4FA4-9AA9-EE2D747BC69E";
shapes = (
{
closed = 1;
nodes = (
(319,1,o),
(322,2,o),
(325,3,cs),
(377,21,o),
(434,63,o),
(468,110,cs),
(482,129,o),
(492,158,o),
(496,195,cs),
(498,215,o),
(500,232,o),
(500,248,cs),
(500,276,o),
(496,305,o),
(485,333,cs),
(480,346,o),
(468,356,o),
(463,364,cs),
(455,377,o),
(441,424,o),
(438,440,c),
(413,432,l),
(408,456,l),
(408,490,o),
(346,511,o),
(265,511,cs),
(251,511,o),
(241,510,o),
(234,509,c),
(221,505,o),
(209,502,o),
(198,498,cs),
(132,476,o),
(67,447,o),
(41,373,cs),
(34,354,o),
(35,326,o),
(33,306,cs),
(30,283,o),
(24,253,o),
(24,225,cs),
(24,216,o),
(25,206,o),
(27,197,cs),
(33,164,o),
(47,131,o),
(64,110,cs),
(113,46,o),
(207,3,o),
(293,3,cs),
(300,3,o),
(307,1,o),
(314,1,cs)
);
},
{
closed = 1;
nodes = (
(311,79,o),
(313,81,o),
(314,81,cs),
(309,81,o),
(302,83,o),
(293,83,cs),
(225,83,o),
(137,120,o),
(107,159,cs),
(90,180,o),
(84,192,o),
(80,213,c),
(78,219,o),
(78,219,o),
(78,225,cs),
(78,244,o),
(83,267,o),
(87,296,cs),
(91,328,o),
(86,331,o),
(92,346,cs),
(101,373,o),
(135,395,o),
(215,422,cs),
(221,424,o),
(233,427,o),
(247,431,c),
(245,430,o),
(254,431,o),
(265,431,cs),
(329,431,o),
(369,406,o),
(391,399,c),
(399,369,o),
(412,332,o),
(417,323,cs),
(430,302,o),
(437,294,o),
(436,299,c),
(443,279,o),
(446,268,o),
(446,248,cs),
(446,235,o),
(445,223,o),
(443,204,cs),
(440,179,o),
(438,175,o),
(425,158,cs),
(403,129,o),
(355,95,o),
(308,78,cs)
);
}
);
width = 525;
}
);
unicode = 48;
},
{
color = 6;
glyphname = one;
layers = (
{
layerId = "BC735296-CD3A-4FA4-9AA9-EE2D747BC69E";
shapes = (
{
closed = 1;
nodes = (
(164,-16,l),
(164,21,o),
(174,28,o),
(183,98,cs),
(193,180,o),
(197,197,o),
(209,267,cs),
(214,296,o),
(219,328,o),
(227,364,cs),
(228,368,o),
(232,381,o),
(237,402,c),
(237,404,o),
(238,410,o),
(240,418,cs),
(250,471,o),
(222,511,o),
(191,510,cs),
(156,509,o),
(108,448,o),
(71,448,c),
(71,368,l),
(112,368,o),
(163,415,o),
(186,427,c),
(185,425,o),
(185,422,o),
(184,419,cs),
(181,407,o),
(178,395,o),
(175,381,cs),
(167,348,o),
(161,314,o),
(155,280,cs),
(142,204,o),
(139,184,o),
(129,108,cs),
(124,64,o),
(110,34,o),
(110,-16,c)
);
},
{
closed = 1;
nodes = (
(185,434,o),
(187,435,o),
(186,433,cs),
(186,432,l)
);
}
);
width = 303;
}
);
unicode = 49;
},
{
color = 6;
glyphname = two;
layers = (
{
layerId = "BC735296-CD3A-4FA4-9AA9-EE2D747BC69E";
shapes = (
{
closed = 1;
nodes = (
(339,-22,o),
(345,-21,o),
(355,-18,cs),
(397,-6,o),
(449,47,o),
(449,86,c),
(396,76,l),
(395,105,o),
(357,64,o),
(340,59,c),
(339,59,o),
(335,58,o),
(331,58,cs),
(323,58,o),
(313,60,o),
(303,62,cs),
(159,103,l),
(238,155,o),
(391,287,o),
(391,360,cs),
(391,407,o),
(390,414,o),
(389,419,cs),
(380,476,o),
(339,510,o),
(277,510,cs),
(221,510,o),
(167,484,o),
(139,443,cs),
(128,426,o),
(110,396,o),
(106,366,cs),
(104,347,o),
(112,332,o),
(123,332,c),
(160,356,l),
(184,397,ls),
(193,411,o),
(242,430,o),
(277,430,cs),
(312,430,o),
(334,419,o),
(336,406,cs),
(337,402,o),
(337,403,o),
(337,400,cs),
(337,344,o),
(221,226,o),
(118,164,cs),
(78,139,o),
(28,91,o),
(10,56,c),
(10,55,o),
(3,20,o),
(3,16,cs),
(3,0,o),
(11,-14,o),
(22,-14,cs),
(33,-14,o),
(79,-9,o),
(91,15,c),
(105,24,o),
(121,29,o),
(139,29,cs),
(200,29,o),
(209,-1,o),
(292,-17,cs),
(310,-20,o),
(321,-22,o),
(331,-22,cs)
);
}
);
width = 505;
}
);
unicode = 50;
},
{
color = 6;
glyphname = three;
kernRight = O;
layers = (
{
layerId = "BC735296-CD3A-4FA4-9AA9-EE2D747BC69E";
shapes = (
{
closed = 1;
nodes = (
(128,-163,o),
(154,-157,o),
(183,-143,cs),
(264,-106,o),
(350,5,o),
(350,108,cs),
(350,122,o),
(349,137,o),
(346,149,cs),
(342,168,o),
(323,229,o),
(305,244,cs),
(285,261,o),
(263,268,o),
(231,268,cs),
(220,268,o),
(209,266,o),
(198,262,c),
(215,286,o),
(233,311,o),
(255,335,cs),
(276,359,o),
(299,390,o),
(326,419,cs),
(327,420,o),
(328,421,o),
(331,423,c),
(335,422,o),
(339,423,o),
(337,424,cs),
(336,424,o),
(334,425,o),
(333,426,c),
(344,436,o),
(364,455,o),
(364,475,c),
(364,484,o),
(362,497,o),
(353,500,cs),
(345,503,o),
(338,504,o),
(329,504,cs),
(314,504,o),
(298,501,o),
(287,501,cs),
(80,501,l),
(80,425,l),
(245,425,l),
(236,414,o),
(225,402,o),
(214,388,cs),
(175,339,o),
(127,288,o),
(72,230,cs),
(73,231,o),
(66,225,o),
(58,217,c),
(58,217,l),
(25,189,o),
(22,150,o),
(40,133,cs),
(52,122,o),
(55,124,o),
(67,135,c),
(70,139,o),
(82,146,o),
(97,160,c),
(97,161,o),
(120,165,o),
(128,174,cs),
(129,176,o),
(131,177,o),
(132,179,c),
(158,173,l),
(174,182,o),
(207,188,o),
(231,188,cs),
(246,188,o),
(269,184,o),
(270,183,cs),
(278,176,o),
(288,155,o),
(293,130,c),
(296,121,o),
(296,117,o),
(296,108,cs),
(296,34,o),
(227,-40,o),
(160,-71,cs),
(144,-78,o),
(122,-83,o),
(102,-83,cs),
(78,-83,o),
(52,-75,o),
(41,-65,cs),
(25,-50,o),
(42,-59,o),
(42,-92,c),
(-12,-92,l),
(-12,-115,o),
(5,-124,o),
(4,-124,c),
(33,-150,o),
(65,-163,o),
(102,-163,cs)
);
}
);
width = 415;
}
);
unicode = 51;
},
{
color = 6;
glyphname = four;
layers = (
{
layerId = "BC735296-CD3A-4FA4-9AA9-EE2D747BC69E";
shapes = (
{
closed = 1;
nodes = (
(345,-145,l),
(345,-104,o),
(353,-37,o),
(360,2,c),
(431,2,o),
(474,6,o),
(501,15,c),
(484,76,l),
(469,71,o),
(430,68,o),
(372,67,c),
(374,81,o),
(373,92,o),
(375,101,cs),
(382,136,o),
(377,138,o),
(386,182,cs),
(399,251,o),
(404,324,o),
(411,392,cs),
(413,408,o),
(420,436,o),
(420,467,cs),
(420,538,o),
(362,518,o),
(350,498,cs),
(344,490,l),
(342,490,o),
(336,482,o),
(316,458,cs),
(290,428,o),
(267,390,o),
(237,349,cs),
(210,312,o),
(178,271,o),
(144,212,cs),
(118,167,o),
(99,159,o),
(60,109,cs),
(55,102,o),
(42,87,o),
(22,55,cs),
(-26,-26,o),
(20,-26,o),
(68,-3,c),
(74,-2,o),
(84,-2,o),
(97,0,cs),
(121,3,o),
(156,4,o),
(212,4,cs),
(234,4,o),
(268,3,o),
(306,2,c),
(299,-40,o),
(291,-97,o),
(291,-145,c)
);
},
{
closed = 1;
nodes = (
(138,109,o),
(162,127,o),
(191,172,cs),
(218,215,o),
(246,254,o),
(280,301,cs),
(305,334,o),
(327,371,o),
(357,407,cs),
(357,407,o),
(358,408,o),
(358,408,c),
(358,406,o),
(357,403,o),
(357,400,cs),
(350,331,o),
(347,266,o),
(333,199,cs),
(324,157,o),
(331,163,o),
(322,113,cs),
(319,101,o),
(318,86,o),
(316,67,c),
(274,68,o),
(235.998,69,o),
(212,69,cs),
(168,69,o),
(124,67,o),
(103,65,c)
);
},
{
closed = 1;
nodes = (
(391,446,l),
(391,446,l)
);
}
);
width = 563;
}
);
unicode = 52;
},
{
color = 6;
glyphname = five;
layers = (
{
layerId = "BC735296-CD3A-4FA4-9AA9-EE2D747BC69E";
shapes = (
{
closed = 1;
nodes = (
(113,-160,o),
(167,-151,o),
(181,-148,cs),
(277,-128,o),
(365,-4,o),
(365,109,cs),
(365,119,o),
(365,130,o),
(364,137,cs),
(359,169,o),
(347,194,o),
(342,206,cs),
(331,230,o),
(314,259,o),
(306,265,cs),
(289,278,o),
(282,281,o),
(260,281,cs),
(223,281,o),
(166,263,o),
(140,252,cs),
(133,249,o),
(125,248,o),
(117,245,c),
(123,294,o),
(132,343,o),
(139,398,c),
(129,428,l),
(150,433,o),
(177,435,o),
(207,435,cs),
(228,435,o),
(248,434,o),
(269,433,cs),
(284,432,o),
(329,431,o),
(346,431,c),
(346,501,l),
(330,501,o),
(285,502,o),
(273,503,cs),
(250,504,o),
(228,505,o),
(207,505,cs),
(174,505,o),
(146,503,o),
(117,497,cs),
(102,493,o),
(92,460,o),
(86,408,cs),
(77,339,o),
(62,271,o),
(58,197,c),
(54,191,o),
(51,184,o),
(49,179,c),
(57,176,l),
(57,171,o),
(57,165,o),
(57,159,c),
(99,149,l),
(109,159,l),
(111,159,l),
(111.004,161.002,l),
(116,164,o),
(139.005,170.002,o),
(159,178,cs),
(177,185,o),
(227,201,o),
(260,201,cs),
(270,201,o),
(276,199,o),
(273,202,c),
(280,196,o),
(288,184,o),
(292,174,cs),
(302,151,o),
(308,138,o),
(310,126,cs),
(311,120,o),
(311,116,o),
(311,109,cs),
(311,32,o),
(244,-54,o),
(170,-70,cs),
(162,-72,o),
(111,-80,o),
(78,-80,cs),
(69,-80,o),
(64,-80,o),
(62,-80,c),
(55,-73,o),
(43,-58,o),
(39,-56,c),
(8,-122,l),
(35,-140,o),
(7,-124,o),
(31,-144,cs),
(47,-158,o),
(53,-160,o),
(78,-160,cs)
);
}
);
width = 431;
}
);
unicode = 53;
},
{
color = 6;
glyphname = six;
layers = (
{
layerId = "BC735296-CD3A-4FA4-9AA9-EE2D747BC69E";
shapes = (
{
closed = 1;
nodes = (
(219,-11,o),
(242,-10,o),
(236,-10,cs),
(254,-10,ls),
(266,-10,o),
(274,-9,o),
(282,-7,cs),
(329,9,o),
(372,82,o),
(397,120,cs),
(409,138,o),
(414,171,o),
(419,188,cs),
(424,203,o),
(441,230,o),
(441,265,cs),
(441,305,o),
(428,352,o),
(416,372,cs),
(396,407,o),
(366,415,o),
(361,417,cs),
(336,430,o),
(317,449,o),
(297,452,cs),
(238,462,o),
(230,440,o),
(196,430,cs),
(186,427,o),
(180,429,o),
(172,427,c),
(245,527,o),
(352,580,o),
(459,580,c),
(459,660,l),
(290,660,o),
(124,537,o),
(53,319,cs),
(45,293,o),
(31,196,o),
(31,144,cs),
(31,127,o),
(33,109,o),
(36,102,cs),
(61,53,o),
(110,19,o),
(191,-8,cs),
(198,-10,o),
(203,-11,o),
(210,-11,cs)
);
},
{
closed = 1;
nodes = (
(142,90,o),
(95,118,o),
(85,137,c),
(85,138,o),
(85,140,o),
(85,144,cs),
(85,183,o),
(96,266,o),
(105,294,cs),
(119,337,o),
(138,376,o),
(160,410,c),
(160,338,l),
(171,338,o),
(183,347,o),
(186,350,c),
(187,349,o),
(192,348,o),
(196,350,cs),
(213,360,o),
(239,382,o),
(272,381,cs),
(303,379,o),
(320,354,o),
(337,345,cs),
(364,332,o),
(379,314,o),
(374,325,cs),
(382,309,o),
(387,288,o),
(387,265,cs),
(387,259,o),
(378,245,o),
(368,212,cs),
(360,188,o),
(363,181,o),
(352,164,cs),
(309,98,o),
(293,79,o),
(265,69,cs),
(268,70,o),
(263,70,o),
(254,70,cs),
(236,70,ls),
(244,70,o),
(219,69,o),
(210,69,cs),
(206,69,o),
(205,69,o),
(208,68,cs)
);
},
{
closed = 1;
nodes = (
(187,350,o),
(187,350,o),
(187,350,cs),
(187,350,ls)
);
},
{
closed = 1;
nodes = (
(372,328,o),
(371,330,o),
(370,332,cs),
(371,330,o),
(372,328,o),
(373,327,cs)
);
}
);
width = 480;
}
);
unicode = 54;
},
{
color = 6;
glyphname = seven;
kernRight = V;
layers = (
{
layerId = "BC735296-CD3A-4FA4-9AA9-EE2D747BC69E";
shapes = (
{
closed = 1;
nodes = (
(99,-138,o),
(126,-38,o),
(130,-27,cs),
(156,46,o),
(190,122,o),
(227,204,cs),
(260,278,o),
(282,318,o),
(336,390,cs),
(359,421,o),
(380,416,o),
(362,437,c),
(369,439,o),
(375,443,o),
(384,450,cs),
(396,460,o),
(400,494,o),
(389,505,cs),
(372,522,o),
(362,523,o),
(347,507,c),
(348,510,o),
(349,513,o),
(351,514,cs),
(347,511,o),
(307,507,o),
(287,504,cs),
(269,501,o),
(246,500,o),
(222,500,cs),
(167,500,o),
(112,506,o),
(56,506,c),
(56,426,l),
(110,426,o),
(167,420,o),
(222,420,cs),
(244,420,o),
(263,421,o),
(282,423,c),
(236,361,o),
(213,316,o),
(178,237,cs),
(145,163,o),
(109,85,o),
(79,1,cs),
(77,-6,o),
(49,-92,o),
(55,-87,c),
(92,-144,l)
);
}
);
width = 397;
}
);
unicode = 55;
},
{
color = 6;
glyphname = eight;
kernLeft = O;
kernRight = O;
layers = (
{
layerId = "BC735296-CD3A-4FA4-9AA9-EE2D747BC69E";
shapes = (
{
closed = 1;
nodes = (
(152,-16,o),
(174,-11,o),
(205,-1,cs),
(277,22,o),
(310,63,o),
(310,129,cs),
(310,148,o),
(307,171,o),
(301,195,cs),
(290,235,o),
(282,277,o),
(261,301,cs),
(256,306,o),
(252,312,o),
(247,317,c),
(266,331,o),
(285,348,o),
(304,371,cs),
(345,422,o),
(362,475,o),
(362,520,cs),
(362,536,o),
(359,555,o),
(355,567,cs),
(343,602,o),
(328,627,o),
(310,635,c),
(310,642,l),
(287,642,o),
(279,663,o),
(238,663,cs),
(233,663,o),
(229,662,o),
(222,661,cs),
(178,652,o),
(155,612,o),
(134,583,cs),
(115,557,o),
(103,516,o),
(103,478,cs),
(103,422,o),
(129,381,o),
(156,346,c),
(93,316,o),
(32,280,o),
(28,159,cs),
(28,146,o),
(26,128,o),
(26,112,cs),
(26,51,o),
(47,10,o),
(88,-7,cs),
(103,-13,o),
(116,-16,o),
(132,-16,cs)
);
},
{
closed = 1;
nodes = (
(123,64,o),
(112,66,o),
(109,67,cs),
(83,78,o),
(80,80,o),
(80,112,cs),
(80,126,o),
(82,140,o),
(82,156,cs),
(85,252,o),
(135,258,o),
(200,290,c),
(205,282,o),
(209,275,o),
(212,268,cs),
(229,231,o),
(242,201,o),
(249,175,cs),
(254,153,o),
(256,140,o),
(256,129,cs),
(256,105,o),
(244,93,o),
(189,75,cs),
(168,68,o),
(148,64,o),
(132,64,cs)
);
},
{
closed = 1;
nodes = (
(177,404,o),
(157,440,o),
(157,478,cs),
(157,500,o),
(162,515,o),
(178,536,cs),
(205,573,o),
(209,578,o),
(232,582,cs),
(233,582,o),
(235,583,o),
(238,583,cs),
(258,583,o),
(273,567,o),
(299,563,c),
(299,557,l),
(268,557,o),
(300,553,o),
(304,541,cs),
(307,532,o),
(308,528,o),
(308,520,cs),
(308,495,o),
(294,465,o),
(260,418,cs),
(245,397,o),
(225,382,o),
(203,370,c)
);
}
);
width = 372;
}
);
unicode = 56;
},
